<?xml version="1.0" encoding="UTF-8" standalone="no"?>
<svg
   xmlns:dc="http://purl.org/dc/elements/1.1/"
   xmlns:cc="http://creativecommons.org/ns#"
   xmlns:rdf="http://www.w3.org/1999/02/22-rdf-syntax-ns#"
   xmlns:svg="http://www.w3.org/2000/svg"
   xmlns="http://www.w3.org/2000/svg"
   xmlns:sodipodi="http://sodipodi.sourceforge.net/DTD/sodipodi-0.dtd"
   xmlns:inkscape="http://www.inkscape.org/namespaces/inkscape"
   width="82.849396mm"
   height="22.038467mm"
   viewBox="0 0 293.56085 78.089056"
   id="svg7639"
   version="1.1"
   inkscape:version="1.0.1 (1.0.1+r74)"
   sodipodi:docname="CreatieveSTEM Logo v04.svg"
   inkscape:export-filename="/home/benny/ownCloud/ingegno/CreatieveSTEMLogo/CreatieveSTEMLogov04_large.png"
   inkscape:export-xdpi="299"
   inkscape:export-ydpi="299">
  <defs
     id="defs7641" />
  <sodipodi:namedview
     id="base"
     pagecolor="#ffffff"
     bordercolor="#666666"
     borderopacity="1.0"
     inkscape:pageopacity="0.0"
     inkscape:pageshadow="2"
     inkscape:zoom="2.7666958"
     inkscape:cx="167.38451"
     inkscape:cy="-59.859743"
     inkscape:document-units="px"
     inkscape:current-layer="layer1"
     showgrid="false"
     fit-margin-top="0"
     fit-margin-left="0"
     fit-margin-right="0"
     fit-margin-bottom="0"
     inkscape:window-width="1292"
     inkscape:window-height="715"
     inkscape:window-x="606"
     inkscape:window-y="315"
     inkscape:window-maximized="0"
     inkscape:document-rotation="0" />
  <metadata
     id="metadata7644">
    <rdf:RDF>
      <cc:Work
         rdf:about="">
        <dc:format>image/svg+xml</dc:format>
        <dc:type
           rdf:resource="http://purl.org/dc/dcmitype/StillImage" />
        <dc:title></dc:title>
      </cc:Work>
    </rdf:RDF>
  </metadata>
  <g
     inkscape:label="Laag 1"
     inkscape:groupmode="layer"
     id="layer1"
     transform="translate(-51.472286,-170.4465)">
    <g
       id="g884"
       transform="matrix(0.57732566,0,0,0.57732566,21.756015,72.043362)">
      <path
         inkscape:connector-curvature="0"
         d="m 174.59648,232.64746 c -8e-5,-1.70559 1.06679,-3.16135 2.56906,-3.73877 -0.39667,-1.66119 -1.05169,-3.22239 -1.92077,-4.63788 -0.51744,0.23019 -1.07385,0.34529 -1.63002,0.34529 -1.02442,0 -2.04852,-0.3905 -2.83042,-1.17223 -1.2064,-1.2064 -1.48116,-2.99073 -0.82629,-4.46182 -1.41517,-0.86964 -2.97587,-1.52531 -4.63706,-1.92263 -0.57654,1.50397 -2.03302,2.57222 -3.73975,2.57222 -1.70656,0 -3.16304,-1.06825 -3.73966,-2.57222 -1.66119,0.39732 -3.22182,1.05299 -4.63698,1.92271 0.65486,1.47093 0.38011,3.25517 -0.82638,4.46182 -0.78173,0.78173 -1.80599,1.17231 -2.83042,1.17231 -0.55632,0 -1.11248,-0.11517 -1.63009,-0.34537 -0.86899,1.41541 -1.52418,2.97652 -1.92077,4.6378 1.50234,0.57726 2.56913,2.03318 2.56913,3.73877 0,1.70518 -1.0659,3.16037 -2.56735,3.73812 0.39757,1.66119 1.05324,3.22173 1.92305,4.63698 0.5163,-0.22897 1.07125,-0.3435 1.62596,-0.3435 1.0245,0 2.0486,0.39058 2.83041,1.17231 1.20462,1.20461 1.48043,2.98545 0.82913,4.45524 1.41542,0.86931 2.97596,1.52459 4.63715,1.92149 0.57856,-1.4999 2.03294,-2.56459 3.73682,-2.56459 1.70389,0 3.15826,1.06452 3.73675,2.56459 1.66134,-0.3969 3.22181,-1.05226 4.6373,-1.92165 -0.65121,-1.46963 -0.37548,-3.25047 0.82922,-4.45508 0.78156,-0.78182 1.80583,-1.1724 2.83017,-1.1724 0.55487,0 1.10957,0.11453 1.62604,0.34359 0.8698,-1.41525 1.52548,-2.97579 1.92304,-4.63698 -1.50145,-0.57784 -2.56727,-2.0331 -2.56727,-3.73812 z m -12.94219,6.4816 c -3.59576,0 -6.49347,-2.91394 -6.49347,-6.49346 0,-3.57959 2.89771,-6.49346 6.49347,-6.49346 3.59566,0 6.49346,2.91387 6.49346,6.49346 0,3.57952 -2.8978,6.49346 -6.49346,6.49346 z"
         id="path7630"
         style="fill:none;stroke:#000000;stroke-width:1.54;stroke-miterlimit:4;stroke-dasharray:none;stroke-opacity:1" />
      <g
         id="g7"
         transform="translate(-34.650714,-214.3055)">
        <path
           d="m 117.857,478.723 v -11.19 c 0,-5.48 1.461,-9.651 4.384,-12.515 2.924,-2.861 6.791,-4.293 11.602,-4.293 4.812,0 8.678,1.432 11.601,4.293 2.923,2.863 4.385,7.034 4.385,12.515 v 11.19 z m 24.321,-19.754 c -1.933,-1.964 -4.711,-2.945 -8.335,-2.945 -3.623,0 -6.401,0.981 -8.336,2.945 -1.933,1.964 -2.899,4.834 -2.899,8.609 v 5.938 h 22.471 v -5.938 c -0.001,-3.775 -0.967,-6.645 -2.901,-8.609 z"
           id="path9"
           inkscape:connector-curvature="0" />
        <path
           d="m 117.857,444.879 v -22.014 h 4.75 v 16.807 h 8.724 v -15.438 h 4.75 v 15.438 h 8.997 v -17.081 h 4.75 v 22.288 z"
           id="path11"
           inkscape:connector-curvature="0" />
      </g>
      <g
         id="g13"
         transform="translate(-34.650714,-214.3055)">
        <path
           d="m 226.938,495.578 c 0,-2.803 1.073,-4.957 3.22,-6.463 2.147,-1.508 4.819,-2.262 8.016,-2.262 3.867,0 7.201,0.807 10.002,2.42 v 4.979 c -2.71,-1.826 -5.908,-2.709 -9.591,-2.648 -4.232,0 -6.349,1.273 -6.349,3.82 0,1.229 0.632,2.256 1.898,3.078 1.265,0.824 2.79,1.545 4.574,2.16 1.783,0.613 3.581,1.234 5.394,1.859 1.812,0.627 3.332,1.662 4.561,3.107 1.228,1.447 1.843,3.242 1.843,5.385 0,3.137 -1.135,5.43 -3.403,6.875 -2.269,1.447 -5.169,2.154 -8.701,2.123 -4.263,0 -8.039,-0.928 -11.327,-2.785 v -5.115 c 3.258,2.1 6.912,3.15 10.962,3.15 4.78,0 7.17,-1.324 7.17,-3.973 0,-1.156 -0.45,-2.146 -1.347,-2.969 -0.898,-0.822 -2.018,-1.465 -3.357,-1.932 -1.34,-0.463 -2.809,-0.975 -4.408,-1.529 -1.599,-0.554 -3.076,-1.16 -4.43,-1.814 -1.355,-0.654 -2.482,-1.621 -3.38,-2.9 -0.898,-1.279 -1.347,-2.8 -1.347,-4.566 z"
           id="path15"
           inkscape:connector-curvature="0" />
        <path
           d="m 252.149,487.447 h 26.353 v 4.795 h -10.55 v 27.176 h -5.207 v -27.176 h -10.596 z"
           id="path17"
           inkscape:connector-curvature="0" />
        <path
           d="m 283.024,487.447 h 22.014 v 4.75 H 288.23 v 8.725 h 15.438 v 4.75 H 288.23 v 8.996 h 17.082 v 4.75 h -22.288 z"
           id="path19"
           inkscape:connector-curvature="0" />
        <path
           d="m 340.394,487.447 h 4.654 v 31.971 h -5.207 v -22.379 l -10.06,15.162 h -3.14 l -10.094,-15.215 v 22.432 h -5.207 v -31.971 h 4.69 l 12.181,18.363 z"
           id="path21"
           inkscape:connector-curvature="0" />
      </g>
      <g
         id="g23"
         transform="translate(-34.650714,-214.3055)">
        <path
           d="m 275.562,422.102 h 34.104 v 5.779 h -28.035 v 16.402 h 25.867 v 5.779 h -25.867 v 16.836 H 310.1 v 5.78 h -34.538 z"
           id="path25"
           inkscape:connector-curvature="0" />
        <path
           d="m 320.793,472.679 h -6.575 l 22.036,-50.577 h 6.722 l 21.964,50.577 h -6.503 l -5.172,-12.211 h -27.304 z m 18.024,-42.583 -10.47,24.736 h 22.532 L 340.426,430.16 c -0.1,-0.238 -0.373,-0.884 -0.819,-1.934 -0.431,1.063 -0.695,1.686 -0.79,1.87 z"
           id="path27"
           inkscape:connector-curvature="0" />
        <path
           d="m 360.75,422.102 h 41.618 v 5.779 h -17.774 v 44.798 h -6.069 V 427.881 H 360.75 Z"
           id="path29"
           inkscape:connector-curvature="0" />
        <path
           d="m 411.472,422.102 h 6.069 v 50.577 h -6.069 z"
           id="path31"
           inkscape:connector-curvature="0" />
        <path
           d="m 430.835,422.102 h 34.104 v 5.779 h -28.035 v 16.402 h 25.867 v 5.779 h -25.867 v 16.836 h 28.468 v 5.78 h -34.538 v -50.576 z"
           id="path33"
           inkscape:connector-curvature="0" />
        <path
           d="m 497.019,472.679 h -6.284 L 469.78,422.102 h 6.503 l 17.554,43.879 17.633,-43.879 h 6.503 z"
           id="path35"
           inkscape:connector-curvature="0" />
        <path
           d="m 525.415,422.102 h 34.104 v 5.779 h -28.035 v 16.402 h 25.867 v 5.779 h -25.867 v 16.836 h 28.468 v 5.78 h -34.538 v -50.576 z"
           id="path37"
           inkscape:connector-curvature="0" />
      </g>
      <g
         id="g39"
         transform="translate(-34.650714,-214.3055)">
        <path
           d="m 230.824,472.679 h -6.068 v -50.578 h 19.797 c 3.323,0 6.333,0.446 9.031,1.337 2.697,0.892 5.021,2.528 6.972,4.913 1.951,2.385 2.926,5.408 2.926,9.068 0,4.335 -1.252,7.707 -3.757,10.115 -2.503,2.408 -5.754,3.973 -9.752,4.695 l 17.122,20.449 h -7.587 l -16.605,-19.941 h -12.078 v 19.942 z m 0,-44.797 v 19.074 h 14.018 c 3.564,0 6.539,-0.733 8.923,-2.203 2.385,-1.469 3.576,-3.914 3.576,-7.334 0,-3.469 -1.191,-5.926 -3.576,-7.37 -2.384,-1.445 -5.358,-2.167 -8.923,-2.167 z"
           id="path41"
           inkscape:connector-curvature="0" />
      </g>
      <g
         id="g43"
         transform="translate(-34.650714,-214.3055)">
        <g
           id="g45">
          <polygon
             points="188.257,485.581 193.157,480.632 207.942,487.114 205.16,479.397 211.275,477.194 219.186,499.141 "
             id="polygon47" />
        </g>
        <g
           id="g49">
          <path
             d="m 192.88,480.511 c -16.017,-1.647 -28.55,-15.219 -28.55,-31.664 0,-17.553 14.279,-31.832 31.832,-31.832 6.897,0 13.284,2.212 18.504,5.955 0.959,-1.955 1.939,-3.945 2.906,-5.904 -6.118,-4.135 -13.487,-6.551 -21.41,-6.551 -21.137,0 -38.332,17.195 -38.332,38.332 0,21.137 17.195,38.334 38.332,38.334 3.208,0 6.321,-0.406 9.3,-1.153 z"
             id="path51"
             inkscape:connector-curvature="0" />
          <path
             d="m 205.119,479.389 2.233,6.112 c 5.199,-1.594 9.936,-4.259 13.941,-7.746 l -4.276,-4.889 c -3.41,2.965 -7.454,5.214 -11.898,6.523 z"
             id="path53"
             inkscape:connector-curvature="0" />
        </g>
      </g>
      <g
         id="g55"
         transform="translate(-34.650714,-214.3055)">
        <path
           stroke-miterlimit="10"
           d="M 219.282,516.086 H 99.294 c -5.457,0 -9.921,-4.465 -9.921,-9.921 V 397.923 c 0,-5.456 4.464,-9.921 9.921,-9.921 h 482.141 c 5.457,0 9.922,4.465 9.922,9.921 v 108.242 c 0,5.456 -4.465,9.921 -9.922,9.921 H 341.262"
           id="path57"
           inkscape:connector-curvature="0"
           style="fill:none;stroke:#000000;stroke-width:6.5;stroke-miterlimit:10" />
      </g>
    </g>
  </g>
</svg>
