<?xml version="1.0" encoding="UTF-8" standalone="no"?>
<svg
   width="1536.572"
   height="1200.1544"
   viewBox="0 0 1536.572 1200.1544"
   version="1.1"
   id="svg6"
   sodipodi:docname="Imal logo.svg"
   inkscape:version="1.2.2 (1:1.2.2+202212051550+b0a8486541)"
   xmlns:inkscape="http://www.inkscape.org/namespaces/inkscape"
   xmlns:sodipodi="http://sodipodi.sourceforge.net/DTD/sodipodi-0.dtd"
   xmlns="http://www.w3.org/2000/svg"
   xmlns:svg="http://www.w3.org/2000/svg"
   xmlns:rdf="http://www.w3.org/1999/02/22-rdf-syntax-ns#"
   xmlns:cc="http://creativecommons.org/ns#"
   xmlns:dc="http://purl.org/dc/elements/1.1/">
  <defs
     id="defs10" />
  <sodipodi:namedview
     id="namedview8"
     pagecolor="#ffffff"
     bordercolor="#666666"
     borderopacity="1.0"
     inkscape:showpageshadow="2"
     inkscape:pageopacity="0.0"
     inkscape:pagecheckerboard="0"
     inkscape:deskcolor="#d1d1d1"
     showgrid="false"
     inkscape:zoom="0.45607143"
     inkscape:cx="803.60219"
     inkscape:cy="662.17698"
     inkscape:window-width="1920"
     inkscape:window-height="1051"
     inkscape:window-x="0"
     inkscape:window-y="0"
     inkscape:window-maximized="1"
     inkscape:current-layer="svg6" />
  <title
     id="title2">iMAL</title>
  <rect
     style="fill:#ffffff;stroke:#000000;stroke-width:0.215;stop-color:#000000"
     id="rect291"
     width="1536.3571"
     height="1199.9395"
     x="0.1075"
     y="0.1075" />
  <g
     id="V3"
     stroke="none"
     stroke-width="1"
     fill="none"
     fill-rule="evenodd"
     transform="translate(99.898134,590.79292)">
    <path
       d="M 797.84946,36.4995 C 797.84946,16.34124 781.45143,0 761.22064,0 c -20.23078,0 -36.63283,16.34124 -36.63283,36.4995 0,20.15826 16.40205,36.499501 36.63283,36.499501 -20.23078,0 -36.63283,16.343239 -36.63283,36.501499 0,-20.15826 -16.40003,-36.501499 -36.63082,-36.501499 20.23079,0 36.63082,-16.341241 36.63082,-36.499501 C 724.58781,16.34124 708.18778,0 687.95699,0 c -20.22878,0 -36.63083,16.34124 -36.63083,36.4995 0,20.15826 16.40205,36.499501 36.63083,36.499501 -20.22878,0 -36.63083,16.343239 -36.63083,36.501499 0,20.15826 16.40205,36.4995 36.63083,36.4995 20.23079,0 36.63082,-16.34124 36.63082,-36.4995 0,20.15826 16.40205,36.4995 36.63283,36.4995 20.23079,0 36.62882,-16.34124 36.62882,-36.4995 0,-20.15826 -16.39803,-36.501499 -36.62882,-36.501499 20.23079,0 36.62882,-16.341241 36.62882,-36.499501 z M 488.74552,0 562.00617,73 635.26882,0 Z m 0,146 h 146.5233 L 562.00617,73 Z M 235.84229,73 h 73.26165 V 0 h -73.26165 z m -73.26165,73 h 73.26165 V 73 H 162.58064 Z M 813.90681,73 887.16846,0 h -73.26165 z m 146.5233,0 V 0 h -73.26165 z m 0,73 V 73 l -73.26165,73 z m -146.5233,0 h 73.26165 L 813.90681,73 Z M 398.92273,109 C 378.69394,109 362.29391,92.656985 362.29391,72.499001 362.29391,52.343015 378.69394,36 398.92273,36 419.15351,36 435.55556,52.343015 435.55556,72.499001 435.55556,92.656985 419.15351,109 398.92273,109 Z M 398.42194,0 C 357.96292,0 325.16129,32.682481 325.16129,72.999001 325.16129,113.31552 357.96292,146 398.42194,146 438.88296,146 471.68459,113.31552 471.68459,72.999001 471.68459,32.682481 438.88296,0 398.42194,0 Z M 48.172043,97 H 97.34767 V 48 H 48.172043 Z M 0,146 H 146.5233 V 0 H 0 Z M 1092.92,130.28227 1043.0798,0 h -22.4306 v 146 h 13.9173 V 15.925565 L 1083.9894,146 h 17.8611 L 1150.2424,15.717727 V 146 h 13.9134 V 0 h -22.6373 z M 993.54839,16 H 1006.595 V 0 h -13.04661 z m 214.76701,72 28.6042,-77 28.6001,77 z m 19.8007,-88 -55.9297,146 h 15.6534 l 17.1107,-45.29264 h 65.9454 L 1288.0066,146 h 15.6493 L 1248.5667,0 Z m 96.481,133.59169 V 0 H 1310.681 V 146 H 1400 V 133.59169 Z M 993.54839,146 H 1006.593 V 47 h -13.04464 l -0.002,99 z"
       id="imal_logo_RGB"
       fill="#000000" />
  </g>
  <metadata
     id="metadata1573">
    <rdf:RDF>
      <cc:Work
         rdf:about="">
        <dc:title>iMAL</dc:title>
      </cc:Work>
    </rdf:RDF>
  </metadata>
</svg>
