<?xml version="1.0" encoding="UTF-8"?>
<!-- Generator: Adobe Illustrator 23.0.1, SVG Export Plug-In . SVG Version: 6.00 Build 0)  -->
<svg version="1.1" id="Layer_1" xmlns="http://www.w3.org/2000/svg" xmlns:xlink="http://www.w3.org/1999/xlink" x="0px" y="0px" viewBox="0 0 787 517" style="enable-background:new 0 0 787 517;" xml:space="preserve">
<style type="text/css">
	.st0{fill:#E21017;}
</style>
<polygon points="241.6,363.1 151.1,284.2 151.1,172.9 242.7,201.7 298.8,278.6 338.1,176.8 244,159.1 244,181.1 237.6,181.1   237.6,151.4 346.7,172 300.5,291.8 238.8,207.1 157.5,181.5 157.5,281.3 235.6,349.5 237.6,280.3 244,280.5 "/>
<rect x="337.9" y="310.7" width="8.7" height="8.7"/>
<path d="M398.8,257.7v-24.8c0-4.1-2.2-5.3-4.6-5.3c-2.4,0-4.8,1.2-7.3,3.9v26.2h-8.6v-24.1c0-3.7-1.2-5.9-4.4-5.9  c-2.3,0-4.8,1.3-7.6,4.1v25.9h-8.5v-36.4h7.9v4.4c3.3-3.3,7.3-5.3,11-5.3c4.6,0,7.3,1.7,8.8,5.6c3.9-3.7,7.4-5.6,11.8-5.6  c6.2,0,9.8,3.4,9.8,11.4v25.9H398.8z"/>
<path d="M423.1,235.4h15c0-5.2-2.7-8.6-7.3-8.6C426.2,226.8,423.8,230.4,423.1,235.4 M430.5,258.5c-10.6,0-15.9-8-15.9-19.3  c0-11.6,6.6-18.9,16.1-18.9c10.4,0,15.6,7.2,15.6,18.4c0,0.6,0,1.3-0.1,2.3h-23.3c0.3,6.5,2.5,10.7,8.2,10.7c3.9,0,6.5-1.8,8.6-5.7  l6.5,3.3C442.3,256.3,436.8,258.5,430.5,258.5"/>
<path d="M475.9,231.4c-1.8-2.5-4.4-3.9-7.3-3.9c-5.3,0-8.2,4.6-8.2,12.4c0,7.3,3.1,11.5,8.1,11.5c2.7,0,5.6-1.5,7.4-4.1V231.4z   M477.9,257.7l-1.1-4c-3.4,3.1-6.5,4.8-11.2,4.8c-8.8,0-13.8-7.5-13.8-18.7c0-11.7,5.8-19.2,14.8-19.2c3.6,0,6.8,1.3,9.4,3.9v-17.2  h8.6v50.4H477.9z"/>
<path d="M494.3,221.2h8.5v36.5h-8.5V221.2z M494.1,206.8h9v8.6h-9V206.8z"/>
<path d="M531.7,239.1c-5.1,1.1-7.9,1.8-10.2,3c-1.8,1.1-2.7,2.9-2.7,5.1c0,2.9,1.8,4.6,4.6,4.6c3,0,6.2-1.5,8.4-3.9V239.1z   M532.6,257.7l-0.6-4.1c-3.5,3-7.5,4.8-12,4.8c-6.1,0-9.9-3.8-9.9-9.9c0-4.7,2-7.9,6-10.1c3.7-2,9.3-3.4,15.9-4.6c0.4-4.9-1.3-7-6-7  c-3.7,0-6.2,1.5-8.2,4.8l-6.1-3.8c3.2-5.4,8.4-7.4,14.9-7.4c9.4,0,13.8,4.1,13.8,12.8v18l0.6,6.6H532.6z"/>
<rect x="549.8" y="207.3" width="8.5" height="50.4"/>
<path d="M587.2,239.1c-5.1,1.1-7.9,1.8-10.2,3c-1.8,1.1-2.7,2.9-2.7,5.1c0,2.9,1.8,4.6,4.6,4.6c3,0,6.2-1.5,8.4-3.9V239.1z   M588.2,257.7l-0.6-4.1c-3.5,3-7.5,4.8-12,4.8c-6.1,0-9.9-3.8-9.9-9.9c0-4.7,2-7.9,6-10.1c3.7-2,9.3-3.4,15.9-4.6c0.4-4.9-1.3-7-6-7  c-3.7,0-6.2,1.5-8.2,4.8l-6.1-3.8c3.2-5.4,8.4-7.4,14.9-7.4c9.4,0,13.8,4.1,13.8,12.8v18l0.6,6.6H588.2z"/>
<path d="M613.8,247.6c1.7,2.4,4.6,3.9,7.4,3.9c5.2,0,8.1-4.6,8.1-12.3c0-7.3-3.2-11.6-8.1-11.6c-2.7,0-5.4,1.5-7.4,4.1V247.6z   M605.3,257.7v-50.4h8.5v17.6c3.2-3,6.4-4.3,10-4.3c8.7,0,14.3,7.2,14.3,18.9c0,11.2-4.9,19-14.2,19c-4.6,0-7.4-1.5-10.8-4.8l-1.2,4  H605.3z"/>
<path d="M366.4,310c1.7,2.4,4.6,3.9,7.4,3.9c5.2,0,8.1-4.6,8.1-12.3c0-7.3-3.2-11.6-8.1-11.6c-2.7,0-5.4,1.5-7.4,4.1V310z   M357.9,320.1v-50.4h8.5v17.6c3.2-3,6.4-4.3,10-4.3c8.7,0,14.3,7.2,14.3,18.9c0,11.2-4.9,19-14.2,19c-4.6,0-7.4-1.5-10.8-4.8l-1.2,4  H357.9z"/>
<path d="M398.4,320.1v-36.5h7.9v6.7c2.6-4.9,6-7.5,10.5-7.5c0.4,0,0.6,0,1.1,0.1v8c-0.6-0.1-1.1-0.1-1.3-0.1c-4.3,0-7.4,2.8-9.7,7.2  v22.2H398.4z"/>
<path d="M445.6,320.1v-4.5c-3.9,3.6-7.5,5.3-11.9,5.3c-4.1,0-7.2-1.6-8.7-4.5c-1.1-1.8-1.5-4.2-1.5-8.7v-24.1h8.6v24.2  c0,4,1.6,5.8,4.9,5.8c2.5,0,4.8-1.1,7.9-4.1v-26h8.5v36.5H445.6z"/>
<path d="M481.9,293.2c-2.1-3.2-4.4-4.1-7.4-4.1c-3.1,0-4.9,1.5-4.9,3.9c0,7,19.4,2.3,19.4,16.5c0,7.3-5.8,11.4-14.3,11.4  c-7,0-11-2.2-14.7-7.4l6.1-4.2c2.5,3.6,4.5,5.2,8.6,5.2c3.8,0,5.9-1.7,5.9-4.4c0-7.8-19.3-2.6-19.3-16.6c0-6.5,5.4-10.8,13.1-10.8  c6.2,0,10.4,1.9,13.3,6.9L481.9,293.2z"/>
<path d="M514.7,293.2c-2.1-3.2-4.4-4.1-7.4-4.1c-3.1,0-4.9,1.5-4.9,3.9c0,7,19.4,2.3,19.4,16.5c0,7.3-5.8,11.4-14.3,11.4  c-7,0-11-2.2-14.7-7.4l6.1-4.2c2.5,3.6,4.5,5.2,8.6,5.2c3.8,0,5.9-1.7,5.9-4.4c0-7.8-19.3-2.6-19.3-16.6c0-6.5,5.4-10.8,13.1-10.8  c6.2,0,10.4,1.9,13.3,6.9L514.7,293.2z"/>
<path d="M603.7,293.2c-2.1-3.2-4.4-4.1-7.4-4.1c-3.1,0-4.9,1.5-4.9,3.9c0,7,19.4,2.3,19.4,16.5c0,7.3-5.8,11.4-14.3,11.4  c-7,0-11-2.2-14.7-7.4l6.1-4.2c2.5,3.6,4.5,5.2,8.6,5.2c3.8,0,5.9-1.7,5.9-4.4c0-7.8-19.3-2.6-19.3-16.6c0-6.5,5.4-10.8,13.1-10.8  c6.2,0,10.4,1.9,13.3,6.9L603.7,293.2z"/>
<path d="M535.2,297.7h15c0-5.2-2.7-8.6-7.3-8.6C538.4,289.2,535.9,292.8,535.2,297.7 M542.7,320.9c-10.6,0-15.9-8-15.9-19.3  c0-11.6,6.6-18.9,16.1-18.9c10.4,0,15.6,7.2,15.6,18.4c0,0.6,0,1.3-0.1,2.3h-23.3c0.4,6.5,2.5,10.7,8.2,10.7c3.9,0,6.5-1.8,8.6-5.7  l6.5,3.3C554.5,318.7,548.9,320.9,542.7,320.9"/>
<rect x="566" y="269.7" width="8.5" height="50.4"/>
<rect x="357.7" y="337.7" class="st0" width="39.2" height="25.4"/>
<rect x="463" y="337.7" class="st0" width="72.2" height="25.4"/>
<rect x="410.1" y="337.7" class="st0" width="27.9" height="25.4"/>
</svg>