<?xml version="1.0" encoding="UTF-8" standalone="no"?>
<svg
   xmlns:dc="http://purl.org/dc/elements/1.1/"
   xmlns:cc="http://creativecommons.org/ns#"
   xmlns:rdf="http://www.w3.org/1999/02/22-rdf-syntax-ns#"
   xmlns:svg="http://www.w3.org/2000/svg"
   xmlns="http://www.w3.org/2000/svg"
   xmlns:sodipodi="http://sodipodi.sourceforge.net/DTD/sodipodi-0.dtd"
   xmlns:inkscape="http://www.inkscape.org/namespaces/inkscape"
   version="1.1"
   viewBox="0 0 621.79266 160.89453"
   fill="none"
   stroke="none"
   stroke-linecap="square"
   stroke-miterlimit="10"
   id="svg75"
   sodipodi:docname="FabZeroBasis.svg"
   width="621.79266"
   height="160.89453"
   inkscape:version="1.0.2 (1.0.2+r75+1)">
  <metadata
     id="metadata81">
    <rdf:RDF>
      <cc:Work
         rdf:about="">
        <dc:format>image/svg+xml</dc:format>
        <dc:type
           rdf:resource="http://purl.org/dc/dcmitype/StillImage" />
        <dc:title></dc:title>
      </cc:Work>
    </rdf:RDF>
  </metadata>
  <defs
     id="defs79" />
  <sodipodi:namedview
     pagecolor="#ffffff"
     bordercolor="#666666"
     borderopacity="1"
     objecttolerance="10"
     gridtolerance="10"
     guidetolerance="10"
     inkscape:pageopacity="0"
     inkscape:pageshadow="2"
     inkscape:window-width="1581"
     inkscape:window-height="897"
     id="namedview77"
     showgrid="false"
     fit-margin-top="0"
     fit-margin-left="0"
     fit-margin-right="0"
     fit-margin-bottom="0"
     inkscape:zoom="0.953125"
     inkscape:cx="350.80272"
     inkscape:cy="286.05629"
     inkscape:window-x="0"
     inkscape:window-y="0"
     inkscape:window-maximized="0"
     inkscape:current-layer="svg75" />
  <clipPath
     id="p.0">
    <path
       d="M 0,0 H 960 V 720 H 0 Z"
       clip-rule="nonzero"
       id="path2" />
  </clipPath>
  <g
     id="g973"
     transform="translate(-120.26247,-165.77953)">
    <path
       fill="#000000"
       fill-opacity="0"
       d="m 123.77428,176.85826 h 113.51181 v 64.62993 H 123.77428 Z"
       fill-rule="evenodd"
       id="path7" />
    <path
       stroke="#000000"
       stroke-width="2"
       stroke-linejoin="round"
       stroke-linecap="butt"
       d="m 123.77428,176.85826 h 113.51181 v 64.62993 H 123.77428 Z"
       fill-rule="evenodd"
       id="path9" />
    <path
       fill="#0000ff"
       d="m 159.07938,203.77826 v -13.35938 h 5.01562 q 1.53125,0 2.45313,0.40625 0.92187,0.40625 1.4375,1.25 0.53125,0.84375 0.53125,1.76563 0,0.85937 -0.46875,1.625 -0.45313,0.75 -1.39063,1.20312 1.20313,0.35938 1.85938,1.21875 0.65625,0.85938 0.65625,2.01563 0,0.9375 -0.40625,1.75 -0.39063,0.79687 -0.98438,1.23437 -0.57812,0.4375 -1.45312,0.67188 -0.875,0.21875 -2.15625,0.21875 z m 1.78125,-7.75 h 2.875 q 1.1875,0 1.6875,-0.14063 0.67187,-0.20312 1.01562,-0.67187 0.34375,-0.46875 0.34375,-1.17188 0,-0.65625 -0.32812,-1.15625 -0.3125,-0.51562 -0.90625,-0.70312 -0.59375,-0.1875 -2.03125,-0.1875 h -2.65625 z m 0,6.17187 h 3.3125 q 0.85937,0 1.20312,-0.0625 0.60938,-0.10937 1.01563,-0.35937 0.42187,-0.26563 0.6875,-0.75 0.26562,-0.48438 0.26562,-1.125 0,-0.75 -0.39062,-1.29688 -0.375,-0.54687 -1.0625,-0.76562 -0.67188,-0.23438 -1.95313,-0.23438 h -3.07812 z m 16.84982,0.39063 q -0.92187,0.76562 -1.76562,1.09375 -0.82813,0.3125 -1.79688,0.3125 -1.59375,0 -2.45312,-0.78125 -0.85938,-0.78125 -0.85938,-1.98438 0,-0.71875 0.32813,-1.29687 0.32812,-0.59375 0.84375,-0.9375 0.53125,-0.35938 1.1875,-0.54688 0.46875,-0.125 1.45312,-0.25 1.98438,-0.23437 2.92188,-0.5625 0.0156,-0.34375 0.0156,-0.42187 0,-1 -0.46875,-1.42188 -0.625,-0.54687 -1.875,-0.54687 -1.15625,0 -1.70312,0.40625 -0.54688,0.40625 -0.8125,1.42187 l -1.60938,-0.21875 q 0.21875,-1.01562 0.71875,-1.64062 0.5,-0.64063 1.45313,-0.98438 0.95312,-0.34375 2.1875,-0.34375 1.25,0 2.01562,0.29688 0.78125,0.28125 1.14063,0.73437 0.375,0.4375 0.51562,1.10938 0.0781,0.42187 0.0781,1.51562 v 2.1875 q 0,2.28125 0.10937,2.89063 0.10938,0.59375 0.40625,1.15625 h -1.70312 q -0.26563,-0.51563 -0.32813,-1.1875 z m -0.14062,-3.67188 q -0.89063,0.375 -2.67188,0.625 -1.01562,0.14063 -1.4375,0.32813 -0.42187,0.1875 -0.65625,0.53125 -0.21875,0.34375 -0.21875,0.78125 0,0.65625 0.5,1.09375 0.5,0.4375 1.45313,0.4375 0.9375,0 1.67187,-0.40625 0.75,-0.42188 1.09375,-1.14063 0.26563,-0.5625 0.26563,-1.64062 z m 3.54759,1.96875 1.625,-0.25 q 0.125,0.96875 0.75,1.5 0.625,0.51563 1.75,0.51563 1.125,0 1.67188,-0.45313 0.54687,-0.46875 0.54687,-1.09375 0,-0.54687 -0.48437,-0.875 -0.32813,-0.21875 -1.67188,-0.54687 -1.8125,-0.46875 -2.51562,-0.79688 -0.6875,-0.32812 -1.04688,-0.90625 -0.35937,-0.59375 -0.35937,-1.3125 0,-0.64062 0.29687,-1.1875 0.29688,-0.5625 0.8125,-0.92187 0.375,-0.28125 1.03125,-0.46875 0.67188,-0.20313 1.42188,-0.20313 1.14062,0 2,0.32813 0.85937,0.32812 1.26562,0.89062 0.42188,0.5625 0.57813,1.5 l -1.60938,0.21875 q -0.10937,-0.75 -0.64062,-1.17187 -0.51563,-0.42188 -1.46875,-0.42188 -1.14063,0 -1.625,0.375 -0.46875,0.375 -0.46875,0.875 0,0.3125 0.1875,0.57813 0.20312,0.26562 0.64062,0.4375 0.23438,0.0937 1.4375,0.42187 1.75,0.45313 2.4375,0.75 0.6875,0.29688 1.07813,0.85938 0.39062,0.5625 0.39062,1.40625 0,0.82812 -0.48437,1.54687 -0.46875,0.71875 -1.375,1.125 -0.90625,0.39063 -2.04688,0.39063 -1.875,0 -2.875,-0.78125 -0.98437,-0.78125 -1.25,-2.32813 z m 9.98438,-8.57812 v -1.89063 h 1.64062 v 1.89063 z m 0,11.46875 v -9.67188 h 1.64062 v 9.67188 z m 3.48857,-2.89063 1.625,-0.25 q 0.125,0.96875 0.75,1.5 0.625,0.51563 1.75,0.51563 1.125,0 1.67187,-0.45313 0.54688,-0.46875 0.54688,-1.09375 0,-0.54687 -0.48438,-0.875 -0.32812,-0.21875 -1.67187,-0.54687 -1.8125,-0.46875 -2.51563,-0.79688 -0.6875,-0.32812 -1.04687,-0.90625 -0.35938,-0.59375 -0.35938,-1.3125 0,-0.64062 0.29688,-1.1875 0.29687,-0.5625 0.8125,-0.92187 0.375,-0.28125 1.03125,-0.46875 0.67187,-0.20313 1.42187,-0.20313 1.14063,0 2,0.32813 0.85938,0.32812 1.26563,0.89062 0.42187,0.5625 0.57812,1.5 l -1.60937,0.21875 q -0.10938,-0.75 -0.64063,-1.17187 -0.51562,-0.42188 -1.46875,-0.42188 -1.14062,0 -1.625,0.375 -0.46875,0.375 -0.46875,0.875 0,0.3125 0.1875,0.57813 0.20313,0.26562 0.64063,0.4375 0.23437,0.0937 1.4375,0.42187 1.75,0.45313 2.4375,0.75 0.6875,0.29688 1.07812,0.85938 0.39063,0.5625 0.39063,1.40625 0,0.82812 -0.48438,1.54687 -0.46875,0.71875 -1.375,1.125 -0.90625,0.39063 -2.04687,0.39063 -1.875,0 -2.875,-0.78125 -0.98438,-0.78125 -1.25,-2.32813 z"
       fill-rule="nonzero"
       id="path11" />
    <path
       fill="#0000ff"
       d="m 146.6625,226.17827 v -13.35938 h 2.65625 l 3.15625,9.45313 q 0.4375,1.32812 0.64062,1.98437 0.23438,-0.73437 0.70313,-2.14062 l 3.20312,-9.29688 h 2.375 v 13.35938 h -1.70312 v -11.17188 l -3.875,11.17188 H 152.225 l -3.85938,-11.375 v 11.375 z m 14.77518,-4.84375 q 0,-2.6875 1.48437,-3.96875 1.25,-1.07813 3.04688,-1.07813 2,0 3.26562,1.3125 1.26563,1.29688 1.26563,3.60938 0,1.85937 -0.5625,2.9375 -0.5625,1.0625 -1.64063,1.65625 -1.0625,0.59375 -2.32812,0.59375 -2.03125,0 -3.28125,-1.29688 -1.25,-1.3125 -1.25,-3.76562 z m 1.6875,0 q 0,1.85937 0.79687,2.79687 0.8125,0.92188 2.04688,0.92188 1.21875,0 2.03125,-0.92188 0.8125,-0.9375 0.8125,-2.84375 0,-1.79687 -0.8125,-2.71875 -0.8125,-0.92187 -2.03125,-0.92187 -1.23438,0 -2.04688,0.92187 -0.79687,0.90625 -0.79687,2.76563 z m 15.56321,4.84375 v -1.21875 q -0.90625,1.4375 -2.70312,1.4375 -1.15625,0 -2.125,-0.64063 -0.96875,-0.64062 -1.5,-1.78125 -0.53125,-1.14062 -0.53125,-2.625 0,-1.45312 0.48437,-2.625 0.48438,-1.1875 1.4375,-1.8125 0.96875,-0.625 2.17188,-0.625 0.875,0 1.54687,0.375 0.6875,0.35938 1.10938,0.95313 v -4.79688 h 1.64062 v 13.35938 z m -5.17187,-4.82813 q 0,1.85938 0.78125,2.78125 0.78125,0.92188 1.84375,0.92188 1.07812,0 1.82812,-0.875 0.75,-0.89063 0.75,-2.6875 0,-1.98438 -0.76562,-2.90625 -0.76563,-0.9375 -1.89063,-0.9375 -1.07812,0 -1.8125,0.89062 -0.73437,0.89063 -0.73437,2.8125 z m 15.61009,4.82813 v -1.42188 q -1.125,1.64063 -3.0625,1.64063 -0.85937,0 -1.60937,-0.32813 -0.73438,-0.32812 -1.09375,-0.82812 -0.35938,-0.5 -0.5,-1.21875 -0.10938,-0.46875 -0.10938,-1.53125 v -5.98438 h 1.64063 v 5.35938 q 0,1.28125 0.10937,1.73437 0.15625,0.64063 0.65625,1.01563 0.5,0.375 1.23438,0.375 0.73437,0 1.375,-0.375 0.65625,-0.39063 0.92187,-1.03125 0.26563,-0.65625 0.26563,-1.89063 v -5.1875 h 1.64062 v 9.67188 z m 4.00072,0 v -13.35938 h 1.64062 v 13.35938 z m 10.81669,-3.10938 1.6875,0.20313 q -0.40625,1.48437 -1.48437,2.3125 -1.07813,0.8125 -2.76563,0.8125 -2.125,0 -3.375,-1.29688 -1.23437,-1.3125 -1.23437,-3.67187 0,-2.45313 1.25,-3.79688 1.26562,-1.34375 3.26562,-1.34375 1.9375,0 3.15625,1.32813 1.23438,1.3125 1.23438,3.70312 0,0.15625 0,0.4375 h -7.21875 q 0.0937,1.59375 0.90625,2.45313 0.8125,0.84375 2.01562,0.84375 0.90625,0 1.54688,-0.46875 0.64062,-0.48438 1.01562,-1.51563 z m -5.39062,-2.65625 h 5.40625 q -0.10938,-1.21875 -0.625,-1.82812 -0.78125,-0.95313 -2.03125,-0.95313 -1.125,0 -1.90625,0.76563 -0.76563,0.75 -0.84375,2.01562 z m 8.48509,2.875 1.625,-0.25 q 0.125,0.96875 0.75,1.5 0.625,0.51563 1.75,0.51563 1.125,0 1.67188,-0.45313 0.54687,-0.46875 0.54687,-1.09375 0,-0.54687 -0.48437,-0.875 -0.32813,-0.21875 -1.67188,-0.54687 -1.8125,-0.46875 -2.51562,-0.79688 -0.6875,-0.32812 -1.04688,-0.90625 -0.35937,-0.59375 -0.35937,-1.3125 0,-0.64062 0.29687,-1.1875 0.29688,-0.5625 0.8125,-0.92187 0.375,-0.28125 1.03125,-0.46875 0.67188,-0.20313 1.42188,-0.20313 1.14062,0 2,0.32813 0.85937,0.32812 1.26562,0.89062 0.42188,0.5625 0.57813,1.5 l -1.60938,0.21875 q -0.10937,-0.75 -0.64062,-1.17187 -0.51563,-0.42188 -1.46875,-0.42188 -1.14063,0 -1.625,0.375 -0.46875,0.375 -0.46875,0.875 0,0.3125 0.1875,0.57813 0.20312,0.26562 0.64062,0.4375 0.23438,0.0937 1.4375,0.42187 1.75,0.45313 2.4375,0.75 0.6875,0.29688 1.07813,0.85938 0.39062,0.5625 0.39062,1.40625 0,0.82812 -0.48437,1.54687 -0.46875,0.71875 -1.375,1.125 -0.90625,0.39063 -2.04688,0.39063 -1.875,0 -2.875,-0.78125 -0.98437,-0.78125 -1.25,-2.32813 z"
       fill-rule="nonzero"
       id="path13" />
    <path
       fill="#000000"
       fill-opacity="0"
       d="m 451.20734,188.16536 h 134.5827 v 42.01575 h -134.5827 z"
       fill-rule="evenodd"
       id="path15" />
    <path
       stroke="#000000"
       stroke-width="2"
       stroke-linejoin="round"
       stroke-linecap="butt"
       d="m 451.20734,188.16536 h 134.5827 v 42.01575 h -134.5827 z"
       fill-rule="evenodd"
       id="path17" />
    <path
       fill="#0000ff"
       d="m 461.6761,215.08536 v -13.35938 h 9.65625 v 1.57813 h -7.875 v 4.09375 h 7.375 v 1.5625 h -7.375 v 4.54687 h 8.1875 v 1.57813 z m 12.2092,-11.46875 v -1.89063 h 1.64062 v 1.89063 z m 0,11.46875 v -9.67188 h 1.64062 v 9.67188 z m 3.83233,0.79687 1.59375,0.23438 q 0.10938,0.75 0.5625,1.07812 0.60938,0.45313 1.67188,0.45313 1.14062,0 1.75,-0.45313 0.625,-0.45312 0.84375,-1.26562 0.125,-0.5 0.10937,-2.10938 -1.0625,1.26563 -2.67187,1.26563 -2,0 -3.09375,-1.4375 -1.09375,-1.4375 -1.09375,-3.45313 0,-1.39062 0.5,-2.5625 0.51562,-1.17187 1.45312,-1.79687 0.95313,-0.64063 2.25,-0.64063 1.70313,0 2.8125,1.375 v -1.15625 h 1.51563 v 8.35938 q 0,2.26562 -0.46875,3.20312 -0.45313,0.9375 -1.45313,1.48438 -0.98437,0.54687 -2.45312,0.54687 -1.71875,0 -2.79688,-0.78125 -1.0625,-0.76562 -1.03125,-2.34375 z m 1.35938,-5.8125 q 0,1.90625 0.75,2.78125 0.76562,0.875 1.90625,0.875 1.125,0 1.89062,-0.85937 0.76563,-0.875 0.76563,-2.73438 0,-1.78125 -0.79688,-2.67187 -0.78125,-0.90625 -1.89062,-0.90625 -1.09375,0 -1.85938,0.89062 -0.76562,0.875 -0.76562,2.625 z m 15.95383,1.90625 1.6875,0.20313 q -0.40625,1.48437 -1.48438,2.3125 -1.07812,0.8125 -2.76562,0.8125 -2.125,0 -3.375,-1.29688 -1.23438,-1.3125 -1.23438,-3.67187 0,-2.45313 1.25,-3.79688 1.26563,-1.34375 3.26563,-1.34375 1.9375,0 3.15625,1.32813 1.23437,1.3125 1.23437,3.70312 0,0.15625 0,0.4375 h -7.21875 q 0.0937,1.59375 0.90625,2.45313 0.8125,0.84375 2.01563,0.84375 0.90625,0 1.54687,-0.46875 0.64063,-0.48438 1.01563,-1.51563 z m -5.39063,-2.65625 h 5.40625 q -0.10937,-1.21875 -0.625,-1.82812 -0.78125,-0.95313 -2.03125,-0.95313 -1.125,0 -1.90625,0.76563 -0.76562,0.75 -0.84375,2.01562 z m 9.14136,5.76563 v -9.67188 h 1.46875 v 1.375 q 1.0625,-1.59375 3.07812,-1.59375 0.875,0 1.60938,0.3125 0.73437,0.3125 1.09375,0.82813 0.375,0.5 0.51562,1.20312 0.0937,0.45313 0.0937,1.59375 v 5.95313 h -1.64062 v -5.89063 q 0,-1 -0.20313,-1.48437 -0.1875,-0.5 -0.67187,-0.79688 -0.48438,-0.29687 -1.14063,-0.29687 -1.04687,0 -1.8125,0.67187 -0.75,0.65625 -0.75,2.51563 v 5.28125 z m 15.76214,0 v -13.35938 h 5.04688 q 1.32812,0 2.03125,0.125 0.96875,0.17188 1.64062,0.64063 0.67188,0.45312 1.07813,1.28125 0.40625,0.82812 0.40625,1.82812 0,1.70313 -1.09375,2.89063 -1.07813,1.17187 -3.92188,1.17187 h -3.42187 v 5.42188 z m 1.76563,-7 h 3.45312 q 1.71875,0 2.4375,-0.64063 0.71875,-0.64062 0.71875,-1.79687 0,-0.84375 -0.42187,-1.4375 -0.42188,-0.59375 -1.125,-0.78125 -0.4375,-0.125 -1.64063,-0.125 h -3.42187 z m 10.45917,7 v -9.67188 h 1.46875 v 1.46875 q 0.5625,-1.03125 1.03125,-1.35937 0.48437,-0.32813 1.0625,-0.32813 0.82812,0 1.6875,0.53125 l -0.5625,1.51563 q -0.60938,-0.35938 -1.20313,-0.35938 -0.54687,0 -0.96875,0.32813 -0.42187,0.32812 -0.60937,0.89062 -0.28125,0.875 -0.28125,1.92188 v 5.0625 z m 5.61895,-4.84375 q 0,-2.6875 1.48438,-3.96875 1.25,-1.07813 3.04687,-1.07813 2,0 3.26563,1.3125 1.26562,1.29688 1.26562,3.60938 0,1.85937 -0.5625,2.9375 -0.5625,1.0625 -1.64062,1.65625 -1.0625,0.59375 -2.32813,0.59375 -2.03125,0 -3.28125,-1.29688 -1.25,-1.3125 -1.25,-3.76562 z m 1.6875,0 q 0,1.85937 0.79688,2.79687 0.8125,0.92188 2.04687,0.92188 1.21875,0 2.03125,-0.92188 0.8125,-0.9375 0.8125,-2.84375 0,-1.79687 -0.8125,-2.71875 -0.8125,-0.92187 -2.03125,-0.92187 -1.23437,0 -2.04687,0.92187 -0.79688,0.90625 -0.79688,2.76563 z m 9.28199,-6.60938 v -1.90625 h 1.64062 v 1.90625 z m -2.07813,15.20313 0.3125,-1.39063 q 0.5,0.125 0.78125,0.125 0.5,0 0.73438,-0.32812 0.25,-0.32813 0.25,-1.67188 v -10.15625 h 1.64062 v 10.20313 q 0,1.78125 -0.46875,2.48437 -0.59375,0.90625 -1.96875,0.90625 -0.65625,0 -1.28125,-0.17187 z m 12.86353,-6.85938 1.6875,0.20313 q -0.40625,1.48437 -1.48438,2.3125 -1.07812,0.8125 -2.76562,0.8125 -2.125,0 -3.375,-1.29688 -1.23438,-1.3125 -1.23438,-3.67187 0,-2.45313 1.25,-3.79688 1.26563,-1.34375 3.26563,-1.34375 1.9375,0 3.15625,1.32813 1.23437,1.3125 1.23437,3.70312 0,0.15625 0,0.4375 h -7.21875 q 0.0937,1.59375 0.90625,2.45313 0.8125,0.84375 2.01563,0.84375 0.90625,0 1.54687,-0.46875 0.64063,-0.48438 1.01563,-1.51563 z m -5.39063,-2.65625 h 5.40625 q -0.10937,-1.21875 -0.625,-1.82812 -0.78125,-0.95313 -2.03125,-0.95313 -1.125,0 -1.90625,0.76563 -0.76562,0.75 -0.84375,2.01562 z m 15.45386,2.21875 1.60937,0.21875 q -0.26562,1.65625 -1.35937,2.60938 -1.07813,0.9375 -2.67188,0.9375 -1.98437,0 -3.1875,-1.29688 -1.20312,-1.29687 -1.20312,-3.71875 0,-1.57812 0.51562,-2.75 0.51563,-1.17187 1.57813,-1.75 1.0625,-0.59375 2.3125,-0.59375 1.57812,0 2.57812,0.79688 1,0.79687 1.28125,2.26562 l -1.59375,0.23438 q -0.23437,-0.96875 -0.8125,-1.45313 -0.57812,-0.5 -1.39062,-0.5 -1.23438,0 -2.01563,0.89063 -0.78125,0.89062 -0.78125,2.8125 0,1.95312 0.75,2.84375 0.75,0.875 1.95313,0.875 0.96875,0 1.60937,-0.59375 0.65625,-0.59375 0.82813,-1.82813 z m 6.59375,2.07813 0.23437,1.45312 q -0.6875,0.14063 -1.23437,0.14063 -0.89063,0 -1.39063,-0.28125 -0.48437,-0.28125 -0.6875,-0.73438 -0.20312,-0.46875 -0.20312,-1.9375 v -5.57812 h -1.20313 v -1.26563 h 1.20313 v -2.39062 l 1.625,-0.98438 v 3.375 h 1.65625 v 1.26563 h -1.65625 v 5.67187 q 0,0.6875 0.0781,0.89063 0.0937,0.20312 0.28125,0.32812 0.20313,0.10938 0.57813,0.10938 0.26562,0 0.71875,-0.0625 z"
       fill-rule="nonzero"
       id="path19" />
    <path
       fill="#000000"
       fill-opacity="0"
       d="m 597.8793,203.29134 h 25.1181 v -5.88188 l 11.7638,11.76378 -11.7638,11.76378 v -5.8819 h -25.1181 z"
       fill-rule="evenodd"
       id="path21" />
    <path
       stroke="#000000"
       stroke-width="2"
       stroke-linejoin="round"
       stroke-linecap="butt"
       d="m 597.8793,203.29134 h 25.1181 v -5.88188 l 11.7638,11.76378 -11.7638,11.76378 v -5.8819 h -25.1181 z"
       fill-rule="evenodd"
       id="path23" />
    <path
       fill="#000000"
       fill-opacity="0"
       d="m 646.8504,166.77953 h 94.20471 v 87.27559 H 646.8504 Z"
       fill-rule="evenodd"
       id="path25" />
    <path
       stroke="#0000ff"
       stroke-width="2"
       stroke-linejoin="round"
       stroke-linecap="butt"
       d="m 646.8504,166.77953 h 94.20471 v 87.27559 H 646.8504 Z"
       fill-rule="evenodd"
       id="path27" />
    <path
       fill="#0000ff"
       d="m 657.31915,193.69952 v -13.35938 h 9.65625 v 1.57813 h -7.875 v 4.09375 h 7.375 v 1.5625 h -7.375 v 4.54687 h 8.1875 v 1.57813 z m 11.05292,0 5.17187,-6.95313 -4.5625,-6.40625 h 2.10938 l 2.42187,3.4375 q 0.75,1.0625 1.07813,1.625 0.4375,-0.71875 1.04687,-1.51562 l 2.6875,-3.54688 h 1.92188 l -4.6875,6.29688 5.0625,7.0625 h -2.1875 l -3.35938,-4.76563 q -0.28125,-0.40625 -0.59375,-0.89062 -0.4375,0.73437 -0.625,1 l -3.35937,4.65625 z m 13.80298,0 v -13.35938 h 5.04687 q 1.32813,0 2.03125,0.125 0.96875,0.17188 1.64063,0.64063 0.67187,0.45312 1.07812,1.28125 0.40625,0.82812 0.40625,1.82812 0,1.70313 -1.09375,2.89063 -1.07812,1.17187 -3.92187,1.17187 h -3.42188 v 5.42188 z m 1.76562,-7 h 3.45313 q 1.71875,0 2.4375,-0.64063 0.71875,-0.64062 0.71875,-1.79687 0,-0.84375 -0.42188,-1.4375 -0.42187,-0.59375 -1.125,-0.78125 -0.4375,-0.125 -1.64062,-0.125 h -3.42188 z m 10.14667,0.5 q 0,-3.32813 1.78125,-5.20313 1.78125,-1.89062 4.60937,-1.89062 1.84375,0 3.32813,0.89062 1.48437,0.875 2.26562,2.46875 0.78125,1.57813 0.78125,3.57813 0,2.03125 -0.82812,3.64062 -0.8125,1.59375 -2.3125,2.42188 -1.5,0.82812 -3.25,0.82812 -1.875,0 -3.35938,-0.90625 -1.48437,-0.92187 -2.25,-2.5 -0.76562,-1.57812 -0.76562,-3.32812 z m 1.8125,0.0156 q 0,2.42188 1.29687,3.8125 1.29688,1.39063 3.26563,1.39063 2,0 3.28125,-1.40625 1.28125,-1.40625 1.28125,-3.98438 0,-1.625 -0.54688,-2.84375 -0.54687,-1.21875 -1.60937,-1.875 -1.0625,-0.67187 -2.375,-0.67187 -1.89063,0 -3.25,1.29687 -1.34375,1.28125 -1.34375,4.28125 z m 25.83539,4.90625 q -0.8125,0.90625 -1.76563,1.35938 -0.95312,0.45312 -2.0625,0.45312 -2.04687,0 -3.25,-1.39062 -0.98437,-1.125 -0.98437,-2.53125 0,-1.23438 0.79687,-2.23438 0.79688,-1 2.39063,-1.75 -0.90625,-1.03125 -1.20313,-1.67187 -0.29687,-0.65625 -0.29687,-1.26563 0,-1.20312 0.9375,-2.07812 0.9375,-0.89063 2.375,-0.89063 1.35937,0 2.23437,0.84375 0.875,0.82813 0.875,2 0,1.90625 -2.53125,3.25 l 2.39063,3.0625 q 0.42187,-0.8125 0.64062,-1.85937 l 1.70313,0.35937 q -0.4375,1.75 -1.1875,2.875 0.92187,1.21875 2.09375,2.04688 l -1.10938,1.3125 q -0.98437,-0.64063 -2.04687,-1.89063 z m -3.32813,-6.95312 q 1.0625,-0.64063 1.375,-1.10938 0.3125,-0.46875 0.3125,-1.04687 0,-0.6875 -0.4375,-1.10938 -0.42187,-0.4375 -1.0625,-0.4375 -0.67187,0 -1.125,0.4375 -0.4375,0.42188 -0.4375,1.03125 0,0.3125 0.15625,0.65625 0.17188,0.34375 0.48438,0.73438 z m 2.29688,5.65625 -3,-3.71875 q -1.32813,0.79687 -1.79688,1.46875 -0.46875,0.67187 -0.46875,1.34375 0,0.8125 0.64063,1.6875 0.65625,0.875 1.84375,0.875 0.73437,0 1.51562,-0.45313 0.79688,-0.46875 1.26563,-1.20312 z"
       fill-rule="nonzero"
       id="path29" />
    <path
       fill="#0000ff"
       d="m 657.38165,216.09952 v -13.35938 h 9.01563 v 1.57813 h -7.25 v 4.14062 h 6.26562 v 1.57813 h -6.26562 v 6.0625 z m 17.41162,-1.1875 q -0.92187,0.76562 -1.76562,1.09375 -0.82813,0.3125 -1.79688,0.3125 -1.59375,0 -2.45312,-0.78125 -0.85938,-0.78125 -0.85938,-1.98438 0,-0.71875 0.32813,-1.29687 0.32812,-0.59375 0.84375,-0.9375 0.53125,-0.35938 1.1875,-0.54688 0.46875,-0.125 1.45312,-0.25 1.98438,-0.23437 2.92188,-0.5625 0.0156,-0.34375 0.0156,-0.42187 0,-1 -0.46875,-1.42188 -0.625,-0.54687 -1.875,-0.54687 -1.15625,0 -1.70312,0.40625 -0.54688,0.40625 -0.8125,1.42187 l -1.60938,-0.21875 q 0.21875,-1.01562 0.71875,-1.64062 0.5,-0.64063 1.45313,-0.98438 0.95312,-0.34375 2.1875,-0.34375 1.25,0 2.01562,0.29688 0.78125,0.28125 1.14063,0.73437 0.375,0.4375 0.51562,1.10938 0.0781,0.42187 0.0781,1.51562 v 2.1875 q 0,2.28125 0.10937,2.89063 0.10938,0.59375 0.40625,1.15625 h -1.70312 q -0.26563,-0.51563 -0.32813,-1.1875 z m -0.14062,-3.67188 q -0.89063,0.375 -2.67188,0.625 -1.01562,0.14063 -1.4375,0.32813 -0.42187,0.1875 -0.65625,0.53125 -0.21875,0.34375 -0.21875,0.78125 0,0.65625 0.5,1.09375 0.5,0.4375 1.45313,0.4375 0.9375,0 1.67187,-0.40625 0.75,-0.42188 1.09375,-1.14063 0.26563,-0.5625 0.26563,-1.64062 z m 5.70379,4.85938 h -1.51562 v -13.35938 h 1.64062 v 4.76563 q 1.04688,-1.29688 2.65625,-1.29688 0.89063,0 1.6875,0.35938 0.79688,0.35937 1.3125,1.01562 0.51563,0.64063 0.79688,1.5625 0.29687,0.92188 0.29687,1.96875 0,2.48438 -1.23437,3.84375 -1.21875,1.35938 -2.95313,1.35938 -1.70312,0 -2.6875,-1.4375 z m -0.0156,-4.90625 q 0,1.73437 0.48437,2.51562 0.76563,1.26563 2.09375,1.26563 1.07813,0 1.85938,-0.9375 0.78125,-0.9375 0.78125,-2.78125 0,-1.89063 -0.75,-2.79688 -0.75,-0.90625 -1.82813,-0.90625 -1.0625,0 -1.85937,0.9375 -0.78125,0.9375 -0.78125,2.70313 z m 8.03198,4.90625 v -1.64063 l 6.84375,-8.54687 q 0.71875,-0.92188 1.375,-1.59375 h -7.45313 v -1.57813 h 9.57813 v 1.57813 l -7.5,9.26562 -0.8125,0.9375 h 8.53125 v 1.57813 z m 18.88037,-3.10938 1.6875,0.20313 q -0.40625,1.48437 -1.48437,2.3125 -1.07813,0.8125 -2.76563,0.8125 -2.125,0 -3.375,-1.29688 -1.23437,-1.3125 -1.23437,-3.67187 0,-2.45313 1.25,-3.79688 1.26562,-1.34375 3.26562,-1.34375 1.9375,0 3.15625,1.32813 1.23438,1.3125 1.23438,3.70312 0,0.15625 0,0.4375 h -7.21875 q 0.0937,1.59375 0.90625,2.45313 0.8125,0.84375 2.01562,0.84375 0.90625,0 1.54688,-0.46875 0.64062,-0.48438 1.01562,-1.51563 z m -5.39062,-2.65625 h 5.40625 q -0.10938,-1.21875 -0.625,-1.82812 -0.78125,-0.95313 -2.03125,-0.95313 -1.125,0 -1.90625,0.76563 -0.76563,0.75 -0.84375,2.01562 z m 9.12573,5.76563 v -9.67188 h 1.46875 v 1.46875 q 0.5625,-1.03125 1.03125,-1.35937 0.48437,-0.32813 1.0625,-0.32813 0.82812,0 1.6875,0.53125 l -0.5625,1.51563 q -0.60938,-0.35938 -1.20313,-0.35938 -0.54687,0 -0.96875,0.32813 -0.42187,0.32812 -0.60937,0.89062 -0.28125,0.875 -0.28125,1.92188 v 5.0625 z m 5.61889,-4.84375 q 0,-2.6875 1.48438,-3.96875 1.25,-1.07813 3.04687,-1.07813 2,0 3.26563,1.3125 1.26562,1.29688 1.26562,3.60938 0,1.85937 -0.5625,2.9375 -0.5625,1.0625 -1.64062,1.65625 -1.0625,0.59375 -2.32813,0.59375 -2.03125,0 -3.28125,-1.29688 -1.25,-1.3125 -1.25,-3.76562 z m 1.6875,0 q 0,1.85937 0.79688,2.79687 0.8125,0.92188 2.04687,0.92188 1.21875,0 2.03125,-0.92188 0.8125,-0.9375 0.8125,-2.84375 0,-1.79687 -0.8125,-2.71875 -0.8125,-0.92187 -2.03125,-0.92187 -1.23437,0 -2.04687,0.92187 -0.79688,0.90625 -0.79688,2.76563 z"
       fill-rule="nonzero"
       id="path31" />
    <path
       fill="#0000ff"
       d="m 657.2879,238.49953 v -13.35938 h 4.60938 q 1.54687,0 2.375,0.20313 1.14062,0.25 1.95312,0.95312 1.0625,0.89063 1.57813,2.28125 0.53125,1.39063 0.53125,3.17188 0,1.51562 -0.35938,2.70312 -0.35937,1.17188 -0.92187,1.9375 -0.54688,0.76563 -1.20313,1.21875 -0.65625,0.4375 -1.59375,0.67188 -0.9375,0.21875 -2.14062,0.21875 z m 1.76563,-1.57813 h 2.85937 q 1.3125,0 2.0625,-0.23437 0.75,-0.25 1.20313,-0.70313 0.625,-0.625 0.96875,-1.6875 0.35937,-1.0625 0.35937,-2.57812 0,-2.09375 -0.6875,-3.21875 -0.6875,-1.125 -1.67187,-1.5 -0.70313,-0.28125 -2.28125,-0.28125 h -2.8125 z m 11.50421,-9.89062 v -1.89063 h 1.64062 v 1.89063 z m 0,11.46875 v -9.67188 h 1.64062 v 9.67188 z m 4.14477,3.70312 v -13.375 h 1.48438 v 1.25 q 0.53125,-0.73437 1.1875,-1.09375 0.67187,-0.375 1.625,-0.375 1.23437,0 2.17187,0.64063 0.95313,0.625 1.4375,1.79687 0.48438,1.15625 0.48438,2.54688 0,1.48437 -0.53125,2.67187 -0.53125,1.1875 -1.54688,1.82813 -1.01562,0.625 -2.14062,0.625 -0.8125,0 -1.46875,-0.34375 -0.65625,-0.34375 -1.0625,-0.875 v 4.70312 z m 1.48438,-8.48437 q 0,1.85937 0.75,2.76562 0.76562,0.89063 1.82812,0.89063 1.09375,0 1.875,-0.92188 0.78125,-0.9375 0.78125,-2.875 0,-1.84375 -0.76562,-2.76562 -0.75,-0.92188 -1.8125,-0.92188 -1.04688,0 -1.85938,0.98438 -0.79687,0.96875 -0.79687,2.84375 z m 8.84448,4.78125 v -13.35938 h 1.64062 v 13.35938 z m 3.58233,-4.84375 q 0,-2.6875 1.48438,-3.96875 1.25,-1.07813 3.04687,-1.07813 2,0 3.26563,1.3125 1.26562,1.29688 1.26562,3.60938 0,1.85937 -0.5625,2.9375 -0.5625,1.0625 -1.64062,1.65625 -1.0625,0.59375 -2.32813,0.59375 -2.03125,0 -3.28125,-1.29688 -1.25,-1.3125 -1.25,-3.76562 z m 1.6875,0 q 0,1.85937 0.79688,2.79687 0.8125,0.92188 2.04687,0.92188 1.21875,0 2.03125,-0.92188 0.8125,-0.9375 0.8125,-2.84375 0,-1.79687 -0.8125,-2.71875 -0.8125,-0.92187 -2.03125,-0.92187 -1.23437,0 -2.04687,0.92187 -0.79688,0.90625 -0.79688,2.76563 z m 9.29761,4.84375 v -9.67188 h 1.46875 v 1.35938 q 0.45313,-0.71875 1.20313,-1.14063 0.76562,-0.4375 1.71875,-0.4375 1.07812,0 1.76562,0.45313 0.6875,0.4375 0.96875,1.23437 1.15625,-1.6875 2.98438,-1.6875 1.45312,0 2.21875,0.79688 0.78125,0.79687 0.78125,2.45312 v 6.64063 h -1.64063 v -6.09375 q 0,-0.98438 -0.15625,-1.40625 -0.15625,-0.4375 -0.57812,-0.70313 -0.42188,-0.26562 -0.98438,-0.26562 -1.01562,0 -1.6875,0.6875 -0.67187,0.67187 -0.67187,2.15625 v 5.625 h -1.64063 v -6.28125 q 0,-1.09375 -0.40625,-1.64063 -0.40625,-0.54687 -1.3125,-0.54687 -0.6875,0 -1.28125,0.35937 -0.59375,0.35938 -0.85937,1.0625 -0.25,0.70313 -0.25,2.03125 v 5.01563 z m 21.85327,-1.1875 q -0.92187,0.76562 -1.76562,1.09375 -0.82813,0.3125 -1.79688,0.3125 -1.59375,0 -2.45312,-0.78125 -0.85938,-0.78125 -0.85938,-1.98438 0,-0.71875 0.32813,-1.29687 0.32812,-0.59375 0.84375,-0.9375 0.53125,-0.35938 1.1875,-0.54688 0.46875,-0.125 1.45312,-0.25 1.98438,-0.23437 2.92188,-0.5625 0.0156,-0.34375 0.0156,-0.42187 0,-1 -0.46875,-1.42188 -0.625,-0.54687 -1.875,-0.54687 -1.15625,0 -1.70312,0.40625 -0.54688,0.40625 -0.8125,1.42187 l -1.60938,-0.21875 q 0.21875,-1.01562 0.71875,-1.64062 0.5,-0.64063 1.45313,-0.98438 0.95312,-0.34375 2.1875,-0.34375 1.25,0 2.01562,0.29688 0.78125,0.28125 1.14063,0.73437 0.375,0.4375 0.51562,1.10938 0.0781,0.42187 0.0781,1.51562 v 2.1875 q 0,2.28125 0.10937,2.89063 0.10938,0.59375 0.40625,1.15625 h -1.70312 q -0.26563,-0.51563 -0.32813,-1.1875 z m -0.14062,-3.67188 q -0.89063,0.375 -2.67188,0.625 -1.01562,0.14063 -1.4375,0.32813 -0.42187,0.1875 -0.65625,0.53125 -0.21875,0.34375 -0.21875,0.78125 0,0.65625 0.5,1.09375 0.5,0.4375 1.45313,0.4375 0.9375,0 1.67187,-0.40625 0.75,-0.42188 1.09375,-1.14063 0.26563,-0.5625 0.26563,-1.64062 z"
       fill-rule="nonzero"
       id="path33" />
    <path
       fill="#000000"
       d="m 250.80785,206.64714 h 5.36687 v -6.11911 h 5.05215 v 6.11911 h 5.36685 v 5.05217 h -5.36685 v 6.11913 h -5.05215 v -6.11913 h -5.36687 z"
       fill-rule="evenodd"
       id="path35" />
    <path
       stroke="#000000"
       stroke-width="2"
       stroke-linejoin="round"
       stroke-linecap="butt"
       d="m 250.80785,206.64714 h 5.36687 v -6.11911 h 5.05215 v 6.11911 h 5.36685 v 5.05217 h -5.36685 v 6.11913 h -5.05215 v -6.11913 h -5.36687 z"
       fill-rule="evenodd"
       id="path37" />
    <path
       fill="#000000"
       d="m 416.28815,207.89124 h 5.36688 v -6.11911 h 5.05216 v 6.11911 h 5.36685 v 5.05217 h -5.36685 v 6.11913 h -5.05216 v -6.11913 h -5.36688 z"
       fill-rule="evenodd"
       id="path39" />
    <path
       stroke="#000000"
       stroke-width="1"
       stroke-linejoin="round"
       stroke-linecap="butt"
       d="m 416.28815,207.89124 h 5.36688 v -6.11911 h 5.05216 v 6.11911 h 5.36685 v 5.05217 h -5.36685 v 6.11913 h -5.05216 v -6.11913 h -5.36688 z"
       fill-rule="evenodd"
       id="path41" />
    <path
       fill="#000000"
       fill-opacity="0"
       d="M 120.26247,266.07874 H 240.7979 v 42.01575 H 120.26247 Z"
       fill-rule="evenodd"
       id="path43" />
    <path
       fill="#000000"
       d="m 141.0197,292.99875 v -13.35938 h 2.65625 l 3.15625,9.45313 q 0.4375,1.32812 0.64062,1.98437 0.23438,-0.73437 0.70313,-2.14062 l 3.20312,-9.29688 h 2.375 v 13.35938 h -1.70312 v -11.17188 l -3.875,11.17188 h -1.59375 l -3.85938,-11.375 v 11.375 z m 21.1033,0 h -1.64062 v -10.45313 q -0.59375,0.5625 -1.5625,1.14063 -0.95313,0.5625 -1.71875,0.84375 v -1.59375 q 1.375,-0.64063 2.40625,-1.5625 1.03125,-0.92188 1.45312,-1.78125 h 1.0625 z m 9.19965,-4.01563 v -1.64062 h 5.03125 v 1.64062 z m 6.21267,0 v -1.64062 h 5.03125 v 1.64062 z m 12.19286,4.01563 v -13.35938 h 2.65625 l 3.15625,9.45313 q 0.4375,1.32812 0.64063,1.98437 0.23437,-0.73437 0.70312,-2.14062 l 3.20313,-9.29688 h 2.375 v 13.35938 h -1.70313 v -11.17188 l -3.875,11.17188 h -1.59375 l -3.85937,-11.375 v 11.375 z m 21.1033,0 h -1.64062 v -10.45313 q -0.59375,0.5625 -1.5625,1.14063 -0.95313,0.5625 -1.71875,0.84375 v -1.59375 q 1.375,-0.64063 2.40625,-1.5625 1.03125,-0.92188 1.45312,-1.78125 h 1.0625 z m 4.20384,-6.59375 q 0,-2.35938 0.48438,-3.79688 0.48437,-1.45312 1.4375,-2.23437 0.96875,-0.78125 2.42187,-0.78125 1.07813,0 1.89063,0.4375 0.8125,0.42187 1.32812,1.25 0.53125,0.8125 0.82813,1.98437 0.3125,1.15625 0.3125,3.14063 0,2.35937 -0.48438,3.8125 -0.48437,1.4375 -1.45312,2.23437 -0.95313,0.78125 -2.42188,0.78125 -1.92187,0 -3.03125,-1.39062 -1.3125,-1.67188 -1.3125,-5.4375 z m 1.67188,0 q 0,3.29687 0.76562,4.39062 0.78125,1.07813 1.90625,1.07813 1.14063,0 1.90625,-1.09375 0.76563,-1.09375 0.76563,-4.375 0,-3.29688 -0.76563,-4.375 -0.76562,-1.07813 -1.92187,-1.07813 -1.125,0 -1.79688,0.95313 -0.85937,1.21875 -0.85937,4.5 z"
       fill-rule="nonzero"
       id="path45" />
    <path
       fill="#000000"
       fill-opacity="0"
       d="m 289.1076,254.77165 h 145.82678 v 64.62993 H 289.1076 Z"
       fill-rule="evenodd"
       id="path47" />
    <path
       fill="#000000"
       d="m 315.12628,281.69165 v -13.35938 h 9.65625 v 1.57813 h -7.875 v 4.09375 h 7.375 v 1.5625 h -7.375 v 4.54687 h 8.1875 v 1.57813 z m 3.54687,-13.875 1.21875,-2.54688 h 2.15625 l -2.01562,2.54688 z m 15.28733,10.76562 1.6875,0.20313 q -0.40625,1.48437 -1.48438,2.3125 -1.07812,0.8125 -2.76562,0.8125 -2.125,0 -3.375,-1.29688 -1.23438,-1.3125 -1.23438,-3.67187 0,-2.45313 1.25,-3.79688 1.26563,-1.34375 3.26563,-1.34375 1.9375,0 3.15625,1.32813 1.23437,1.3125 1.23437,3.70312 0,0.15625 0,0.4375 h -7.21875 q 0.0937,1.59375 0.90625,2.45313 0.8125,0.84375 2.01563,0.84375 0.90625,0 1.54687,-0.46875 0.64063,-0.48438 1.01563,-1.51563 z m -5.39063,-2.65625 h 5.40625 q -0.10937,-1.21875 -0.625,-1.82812 -0.78125,-0.95313 -2.03125,-0.95313 -1.125,0 -1.90625,0.76563 -0.76562,0.75 -0.84375,2.01562 z m 1.54688,-5.10937 1.21875,-2.54688 h 2.15625 l -2.01563,2.54688 z m 7.59445,10.875 v -9.67188 h 1.46875 v 1.375 q 1.0625,-1.59375 3.07813,-1.59375 0.875,0 1.60937,0.3125 0.73438,0.3125 1.09375,0.82813 0.375,0.5 0.51563,1.20312 0.0937,0.45313 0.0937,1.59375 v 5.95313 h -1.64063 v -5.89063 q 0,-1 -0.20312,-1.48437 -0.1875,-0.5 -0.67188,-0.79688 -0.48437,-0.29687 -1.14062,-0.29687 -1.04688,0 -1.8125,0.67187 -0.75,0.65625 -0.75,2.51563 v 5.28125 z m 21.88715,0 v -1.42188 q -1.125,1.64063 -3.0625,1.64063 -0.85938,0 -1.60938,-0.32813 -0.73437,-0.32812 -1.09375,-0.82812 -0.35937,-0.5 -0.5,-1.21875 -0.10937,-0.46875 -0.10937,-1.53125 v -5.98438 h 1.64062 v 5.35938 q 0,1.28125 0.10938,1.73437 0.15625,0.64063 0.65625,1.01563 0.5,0.375 1.23437,0.375 0.73438,0 1.375,-0.375 0.65625,-0.39063 0.92188,-1.03125 0.26562,-0.65625 0.26562,-1.89063 v -5.1875 h 1.64063 v 9.67188 z m 4.0476,-11.46875 v -1.89063 h 1.64063 v 1.89063 z m 0,11.46875 v -9.67188 h 1.64063 v 9.67188 z m 7.72293,-1.46875 0.23438,1.45312 q -0.6875,0.14063 -1.23438,0.14063 -0.89062,0 -1.39062,-0.28125 -0.48438,-0.28125 -0.6875,-0.73438 -0.20313,-0.46875 -0.20313,-1.9375 v -5.57812 h -1.20312 v -1.26563 h 1.20312 v -2.39062 l 1.625,-0.98438 v 3.375 h 1.65625 v 1.26563 h -1.65625 v 5.67187 q 0,0.6875 0.0781,0.89063 0.0937,0.20312 0.28125,0.32812 0.20312,0.10938 0.57812,0.10938 0.26563,0 0.71875,-0.0625 z"
       fill-rule="nonzero"
       id="path49" />
    <path
       fill="#000000"
       d="m 299.49823,304.09164 v -13.35938 h 2.65625 l 3.15625,9.45313 q 0.4375,1.32812 0.64062,1.98437 0.23438,-0.73437 0.70313,-2.14062 l 3.20312,-9.29688 h 2.375 v 13.35938 h -1.70312 v -11.17188 l -3.875,11.17188 h -1.59375 l -3.85938,-11.375 v 11.375 z m 21.1033,0 h -1.64062 v -10.45313 q -0.59375,0.5625 -1.5625,1.14063 -0.95313,0.5625 -1.71875,0.84375 v -1.59375 q 1.375,-0.64063 2.40625,-1.5625 1.03125,-0.92188 1.45312,-1.78125 h 1.0625 z m 8.9903,0 h -1.64063 v -10.45313 q -0.59375,0.5625 -1.5625,1.14063 -0.95312,0.5625 -1.71875,0.84375 v -1.59375 q 1.375,-0.64063 2.40625,-1.5625 1.03125,-0.92188 1.45313,-1.78125 h 1.0625 z m 9.19964,-4.01563 v -1.64062 h 5.03125 v 1.64062 z m 6.21268,0 v -1.64062 h 5.03125 v 1.64062 z m 12.19287,4.01563 v -13.35938 h 2.65625 l 3.15625,9.45313 q 0.4375,1.32812 0.64063,1.98437 0.23437,-0.73437 0.70312,-2.14062 l 3.20313,-9.29688 h 2.375 v 13.35938 h -1.70313 v -11.17188 l -3.875,11.17188 h -1.59375 l -3.85937,-11.375 v 11.375 z m 21.1033,0 h -1.64062 v -10.45313 q -0.59375,0.5625 -1.5625,1.14063 -0.95313,0.5625 -1.71875,0.84375 v -1.59375 q 1.375,-0.64063 2.40625,-1.5625 1.03125,-0.92188 1.45312,-1.78125 h 1.0625 z m 4.20383,-3.5 1.71875,-0.14063 q 0.1875,1.25 0.875,1.89063 0.70312,0.625 1.6875,0.625 1.1875,0 2,-0.89063 0.82812,-0.89062 0.82812,-2.35937 0,-1.40625 -0.79687,-2.21875 -0.78125,-0.8125 -2.0625,-0.8125 -0.78125,0 -1.42188,0.35937 -0.64062,0.35938 -1,0.9375 l -1.54687,-0.20312 1.29687,-6.85938 h 6.64063 v 1.5625 h -5.32813 l -0.71875,3.59375 q 1.20313,-0.84375 2.51563,-0.84375 1.75,0 2.95312,1.21875 1.20313,1.20313 1.20313,3.10938 0,1.8125 -1.04688,3.14062 -1.29687,1.625 -3.51562,1.625 -1.8125,0 -2.96875,-1.01562 -1.15625,-1.03125 -1.3125,-2.71875 z"
       fill-rule="nonzero"
       id="path51" />
    <path
       fill="#000000"
       fill-opacity="0"
       d="m 123.77428,264.41165 c 0,-2.85986 2.31839,-5.17825 5.17827,-5.17825 h 53.56473 c 2.85987,0 5.17826,-2.31839 5.17826,-5.17829 0,2.8599 2.31839,5.17829 5.17827,5.17829 h 53.56472 v 0 c 2.85987,0 5.17826,2.31839 5.17826,5.17825 v 41.42865 c 0,1.37338 -0.54556,2.69049 -1.51667,3.66159 -0.97112,0.97113 -2.28823,1.51669 -3.66159,1.51669 h -53.56472 c -2.85988,0 -5.17827,2.31839 -5.17827,5.17826 v 0 c 0,-2.85987 -2.31839,-5.17826 -5.17826,-5.17826 h -53.56473 c -2.85988,0 -5.17827,-2.31839 -5.17827,-5.17828 z"
       fill-rule="evenodd"
       id="path53" />
    <path
       fill="#000000"
       fill-opacity="0"
       d="m 123.77428,264.41165 c 0,-2.85986 2.31839,-5.17825 5.17827,-5.17825 h 53.56473 c 2.85987,0 5.17826,-2.31839 5.17826,-5.17829 0,2.8599 2.31839,5.17829 5.17827,5.17829 h 53.56472 v 0 c 2.85987,0 5.17826,2.31839 5.17826,5.17825 m 0,41.42865 c 0,1.37338 -0.54556,2.69049 -1.51667,3.66159 -0.97112,0.97113 -2.28823,1.51669 -3.66159,1.51669 h -53.56472 c -2.85988,0 -5.17827,2.31839 -5.17827,5.17826 v 0 c 0,-2.85987 -2.31839,-5.17826 -5.17826,-5.17826 h -53.56473 c -2.85988,0 -5.17827,-2.31839 -5.17827,-5.17828"
       fill-rule="evenodd"
       id="path55" />
    <path
       stroke="#000000"
       stroke-width="1"
       stroke-linejoin="round"
       stroke-linecap="butt"
       d="m 123.77428,264.41165 c 0,-2.85986 2.31839,-5.17825 5.17827,-5.17825 h 53.56473 c 2.85987,0 5.17826,-2.31839 5.17826,-5.17829 0,2.8599 2.31839,5.17829 5.17827,5.17829 h 53.56472 v 0 c 2.85987,0 5.17826,2.31839 5.17826,5.17825 m 0,41.42865 c 0,1.37338 -0.54556,2.69049 -1.51667,3.66159 -0.97112,0.97113 -2.28823,1.51669 -3.66159,1.51669 h -53.56472 c -2.85988,0 -5.17827,2.31839 -5.17827,5.17826 v 0 c 0,-2.85987 -2.31839,-5.17826 -5.17826,-5.17826 h -53.56473 c -2.85988,0 -5.17827,-2.31839 -5.17827,-5.17828"
       fill-rule="evenodd"
       id="path57" />
    <path
       fill="#000000"
       fill-opacity="0"
       d="m 280.32547,266.07562 c 0,-3.31937 2.69089,-6.01025 6.01025,-6.01025 h 51.90073 c 3.3194,0 6.01025,-2.69089 6.01025,-6.01026 0,3.31937 2.69089,6.01026 6.01029,6.01026 h 51.90072 v 0 c 3.31937,0 6.01026,2.69088 6.01026,6.01025 v 48.08496 c 0,1.59402 -0.63321,3.12274 -1.76035,4.24991 -1.12713,1.12713 -2.65588,1.76034 -4.24991,1.76034 h -51.90072 c -3.3194,0 -6.01029,2.69089 -6.01029,6.01026 0,-3.31937 -2.69085,-6.01026 -6.01025,-6.01026 h -51.90073 c -3.31936,0 -6.01025,-2.69088 -6.01025,-6.01025 z"
       fill-rule="evenodd"
       id="path59" />
    <path
       fill="#000000"
       fill-opacity="0"
       d="m 280.32547,266.07562 c 0,-3.31937 2.69089,-6.01025 6.01025,-6.01025 h 51.90073 c 3.3194,0 6.01025,-2.69089 6.01025,-6.01026 0,3.31937 2.69089,6.01026 6.01029,6.01026 h 51.90072 v 0 c 3.31937,0 6.01026,2.69088 6.01026,6.01025 m 0,48.08496 c 0,1.59402 -0.63321,3.12274 -1.76035,4.24991 -1.12713,1.12713 -2.65588,1.76034 -4.24991,1.76034 h -51.90072 c -3.3194,0 -6.01029,2.69089 -6.01029,6.01026 0,-3.31937 -2.69085,-6.01026 -6.01025,-6.01026 h -51.90073 c -3.31936,0 -6.01025,-2.69088 -6.01025,-6.01025"
       fill-rule="evenodd"
       id="path61" />
    <path
       stroke="#000000"
       stroke-width="1"
       stroke-linejoin="round"
       stroke-linecap="butt"
       d="m 280.32547,266.07562 c 0,-3.31937 2.69089,-6.01025 6.01025,-6.01025 h 51.90073 c 3.3194,0 6.01025,-2.69089 6.01025,-6.01026 0,3.31937 2.69089,6.01026 6.01029,6.01026 h 51.90072 v 0 c 3.31937,0 6.01026,2.69088 6.01026,6.01025 m 0,48.08496 c 0,1.59402 -0.63321,3.12274 -1.76035,4.24991 -1.12713,1.12713 -2.65588,1.76034 -4.24991,1.76034 h -51.90072 c -3.3194,0 -6.01029,2.69089 -6.01029,6.01026 0,-3.31937 -2.69085,-6.01026 -6.01025,-6.01026 h -51.90073 c -3.31936,0 -6.01025,-2.69088 -6.01025,-6.01025"
       fill-rule="evenodd"
       id="path63" />
    <path
       fill="#000000"
       fill-opacity="0"
       d="m 287.4908,178.10236 h 113.51181 v 64.62993 H 287.4908 Z"
       fill-rule="evenodd"
       id="path65" />
    <path
       stroke="#000000"
       stroke-width="2"
       stroke-linejoin="round"
       stroke-linecap="butt"
       d="m 287.4908,178.10236 h 113.51181 v 64.62993 H 287.4908 Z"
       fill-rule="evenodd"
       id="path67" />
    <path
       fill="#0000ff"
       d="m 319.15668,205.02235 v -13.35938 h 1.78125 v 6.625 l 6.625,-6.625 h 2.39062 l -5.59375,5.42188 5.84375,7.9375 h -2.32812 l -4.76563,-6.76563 -2.17187,2.14063 v 4.625 z m 18.94357,-3.10938 1.6875,0.20313 q -0.40625,1.48437 -1.48437,2.3125 -1.07813,0.8125 -2.76563,0.8125 -2.125,0 -3.375,-1.29688 -1.23437,-1.3125 -1.23437,-3.67187 0,-2.45313 1.25,-3.79688 1.26562,-1.34375 3.26562,-1.34375 1.9375,0 3.15625,1.32813 1.23438,1.3125 1.23438,3.70312 0,0.15625 0,0.4375 h -7.21875 q 0.0937,1.59375 0.90625,2.45313 0.8125,0.84375 2.01562,0.84375 0.90625,0 1.54688,-0.46875 0.64062,-0.48438 1.01562,-1.51563 z m -5.39062,-2.65625 h 5.40625 q -0.10938,-1.21875 -0.625,-1.82812 -0.78125,-0.95313 -2.03125,-0.95313 -1.125,0 -1.90625,0.76563 -0.76563,0.75 -0.84375,2.01562 z m 15.46945,5.76563 v -1.42188 q -1.125,1.64063 -3.0625,1.64063 -0.85938,0 -1.60938,-0.32813 -0.73437,-0.32812 -1.09375,-0.82812 -0.35937,-0.5 -0.5,-1.21875 -0.10937,-0.46875 -0.10937,-1.53125 v -5.98438 h 1.64062 v 5.35938 q 0,1.28125 0.10938,1.73437 0.15625,0.64063 0.65625,1.01563 0.5,0.375 1.23437,0.375 0.73438,0 1.375,-0.375 0.65625,-0.39063 0.92188,-1.03125 0.26562,-0.65625 0.26562,-1.89063 v -5.1875 h 1.64063 v 9.67188 z m 3.17261,0 v -1.32813 l 6.15625,-7.07812 q -1.04688,0.0625 -1.84375,0.0625 h -3.9375 v -1.32813 h 7.90625 v 1.07813 l -5.25,6.14062 -1,1.125 q 1.09375,-0.0781 2.0625,-0.0781 h 4.46875 v 1.40625 z m 16.82812,-3.10938 1.6875,0.20313 q -0.40625,1.48437 -1.48437,2.3125 -1.07813,0.8125 -2.76563,0.8125 -2.125,0 -3.375,-1.29688 -1.23437,-1.3125 -1.23437,-3.67187 0,-2.45313 1.25,-3.79688 1.26562,-1.34375 3.26562,-1.34375 1.9375,0 3.15625,1.32813 1.23438,1.3125 1.23438,3.70312 0,0.15625 0,0.4375 h -7.21875 q 0.0937,1.59375 0.90625,2.45313 0.8125,0.84375 2.01562,0.84375 0.90625,0 1.54688,-0.46875 0.64062,-0.48438 1.01562,-1.51563 z m -5.39062,-2.65625 h 5.40625 q -0.10938,-1.21875 -0.625,-1.82812 -0.78125,-0.95313 -2.03125,-0.95313 -1.125,0 -1.90625,0.76563 -0.76563,0.75 -0.84375,2.01562 z"
       fill-rule="nonzero"
       id="path69" />
    <path
       fill="#0000ff"
       d="m 320.92865,227.42236 v -11.78125 h -4.40625 v -1.57813 h 10.57812 v 1.57813 h -4.40625 v 11.78125 z m 7.07828,0 v -9.67188 h 1.46875 v 1.46875 q 0.5625,-1.03125 1.03125,-1.35937 0.48437,-0.32813 1.0625,-0.32813 0.82812,0 1.6875,0.53125 l -0.5625,1.51563 q -0.60938,-0.35938 -1.20313,-0.35938 -0.54687,0 -0.96875,0.32813 -0.42187,0.32812 -0.60937,0.89062 -0.28125,0.875 -0.28125,1.92188 v 5.0625 z m 12.5408,-1.1875 q -0.92188,0.76562 -1.76563,1.09375 -0.82812,0.3125 -1.79687,0.3125 -1.59375,0 -2.45313,-0.78125 -0.85937,-0.78125 -0.85937,-1.98438 0,-0.71875 0.32812,-1.29687 0.32813,-0.59375 0.84375,-0.9375 0.53125,-0.35938 1.1875,-0.54688 0.46875,-0.125 1.45313,-0.25 1.98437,-0.23437 2.92187,-0.5625 0.0156,-0.34375 0.0156,-0.42187 0,-1 -0.46875,-1.42188 -0.625,-0.54687 -1.875,-0.54687 -1.15625,0 -1.70313,0.40625 -0.54687,0.40625 -0.8125,1.42187 l -1.60937,-0.21875 q 0.21875,-1.01562 0.71875,-1.64062 0.5,-0.64063 1.45312,-0.98438 0.95313,-0.34375 2.1875,-0.34375 1.25,0 2.01563,0.29688 0.78125,0.28125 1.14062,0.73437 0.375,0.4375 0.51563,1.10938 0.0781,0.42187 0.0781,1.51562 v 2.1875 q 0,2.28125 0.10938,2.89063 0.10937,0.59375 0.40625,1.15625 h -1.70313 q -0.26562,-0.51563 -0.32812,-1.1875 z m -0.14063,-3.67188 q -0.89062,0.375 -2.67187,0.625 -1.01563,0.14063 -1.4375,0.32813 -0.42188,0.1875 -0.65625,0.53125 -0.21875,0.34375 -0.21875,0.78125 0,0.65625 0.5,1.09375 0.5,0.4375 1.45312,0.4375 0.9375,0 1.67188,-0.40625 0.75,-0.42188 1.09375,-1.14063 0.26562,-0.5625 0.26562,-1.64062 z m 4.18821,-6.59375 v -1.90625 h 1.64062 v 1.90625 z m -2.07813,15.20313 0.3125,-1.39063 q 0.5,0.125 0.78125,0.125 0.5,0 0.73438,-0.32812 0.25,-0.32813 0.25,-1.67188 v -10.15625 h 1.64062 v 10.20313 q 0,1.78125 -0.46875,2.48437 -0.59375,0.90625 -1.96875,0.90625 -0.65625,0 -1.28125,-0.17187 z m 12.86359,-6.85938 1.6875,0.20313 q -0.40625,1.48437 -1.48438,2.3125 -1.07812,0.8125 -2.76562,0.8125 -2.125,0 -3.375,-1.29688 -1.23438,-1.3125 -1.23438,-3.67187 0,-2.45313 1.25,-3.79688 1.26563,-1.34375 3.26563,-1.34375 1.9375,0 3.15625,1.32813 1.23437,1.3125 1.23437,3.70312 0,0.15625 0,0.4375 h -7.21875 q 0.0937,1.59375 0.90625,2.45313 0.8125,0.84375 2.01563,0.84375 0.90625,0 1.54687,-0.46875 0.64063,-0.48438 1.01563,-1.51563 z m -5.39063,-2.65625 h 5.40625 q -0.10937,-1.21875 -0.625,-1.82812 -0.78125,-0.95313 -2.03125,-0.95313 -1.125,0 -1.90625,0.76563 -0.76562,0.75 -0.84375,2.01562 z m 15.45383,2.21875 1.60937,0.21875 q -0.26562,1.65625 -1.35937,2.60938 -1.07813,0.9375 -2.67188,0.9375 -1.98437,0 -3.1875,-1.29688 -1.20312,-1.29687 -1.20312,-3.71875 0,-1.57812 0.51562,-2.75 0.51563,-1.17187 1.57813,-1.75 1.0625,-0.59375 2.3125,-0.59375 1.57812,0 2.57812,0.79688 1,0.79687 1.28125,2.26562 l -1.59375,0.23438 q -0.23437,-0.96875 -0.8125,-1.45313 -0.57812,-0.5 -1.39062,-0.5 -1.23438,0 -2.01563,0.89063 -0.78125,0.89062 -0.78125,2.8125 0,1.95312 0.75,2.84375 0.75,0.875 1.95313,0.875 0.96875,0 1.60937,-0.59375 0.65625,-0.59375 0.82813,-1.82813 z m 6.59375,2.07813 0.23437,1.45312 q -0.6875,0.14063 -1.23437,0.14063 -0.89063,0 -1.39063,-0.28125 -0.48437,-0.28125 -0.6875,-0.73438 -0.20312,-0.46875 -0.20312,-1.9375 v -5.57812 h -1.20313 v -1.26563 h 1.20313 v -2.39062 l 1.625,-0.98438 v 3.375 h 1.65625 v 1.26563 h -1.65625 v 5.67187 q 0,0.6875 0.0781,0.89063 0.0937,0.20312 0.28125,0.32812 0.20313,0.10938 0.57813,0.10938 0.26562,0 0.71875,-0.0625 z"
       fill-rule="nonzero"
       id="path71" />
  </g>
</svg>
