<?xml version="1.0" encoding="UTF-8" standalone="no"?>
<svg
   xmlns:dc="http://purl.org/dc/elements/1.1/"
   xmlns:cc="http://creativecommons.org/ns#"
   xmlns:rdf="http://www.w3.org/1999/02/22-rdf-syntax-ns#"
   xmlns:svg="http://www.w3.org/2000/svg"
   xmlns="http://www.w3.org/2000/svg"
   xmlns:sodipodi="http://sodipodi.sourceforge.net/DTD/sodipodi-0.dtd"
   xmlns:inkscape="http://www.inkscape.org/namespaces/inkscape"
   version="1.1"
   id="Layer_1"
   x="0px"
   y="0px"
   viewBox="0 0 300.00001 299.99999"
   xml:space="preserve"
   sodipodi:docname="logoFABRIZERO.svg"
   width="300"
   height="300"
   inkscape:version="1.0.2 (1.0.2+r75+1)"><metadata
     id="metadata1080"><rdf:RDF><cc:Work
         rdf:about=""><dc:format>image/svg+xml</dc:format><dc:type
           rdf:resource="http://purl.org/dc/dcmitype/StillImage" /><dc:title></dc:title></cc:Work></rdf:RDF></metadata><defs
     id="defs1078" /><sodipodi:namedview
     pagecolor="#ffffff"
     bordercolor="#666666"
     borderopacity="1"
     objecttolerance="10"
     gridtolerance="10"
     guidetolerance="10"
     inkscape:pageopacity="0"
     inkscape:pageshadow="2"
     inkscape:window-width="1662"
     inkscape:window-height="1021"
     id="namedview1076"
     showgrid="false"
     inkscape:zoom="2.2499662"
     inkscape:cx="254.2968"
     inkscape:cy="145.68691"
     inkscape:window-x="0"
     inkscape:window-y="0"
     inkscape:window-maximized="0"
     inkscape:current-layer="Layer_1"
     inkscape:document-rotation="0" /><style
     type="text/css"
     id="style1003">
	.st0{fill:#CEEBEA;}
	.st1{fill:#CEECF8;}
	.st2{fill:#EDEBEC;}
	.st3{fill:#877F89;}
	.st4{fill:#706672;}
	.st5{fill:#72B3E2;}
	.st6{fill:#C6E0F5;}
	.st7{fill:#92C6EB;}
	.st8{fill:#FDD407;}
	.st9{fill:#FAC610;}
	.st10{fill:#DBD9DC;}
	.st11{fill:#C9C6CA;}
	.st12{fill:#A2D9D6;}
	.st13{fill:#62C6BE;}
	.st14{fill:#B8B3B8;}
	.st15{fill:#B0A9B0;}
	.st16{fill:#9C969E;}
	.st17{fill:none;stroke:#DBD9DC;stroke-width:14;stroke-linecap:round;stroke-miterlimit:10;}
	.st18{fill:#A7D1D6;}
	.st19{fill:#7CA1B0;}
	.st20{fill:#F6936A;}
	.st21{fill:#F15D5E;}
	.st22{fill:#C8E2E5;}
	.st23{fill:#EE2A44;}
	.st24{fill:#E5EBEE;}
</style><path
     class="st13"
     d="m 200.0404,215.3759 h -99.13554 c -9.931135,0 -18.016655,-8.08552 -18.016655,-18.01665 V 98.223692 c 0,-9.93113 8.08552,-18.016659 18.016655,-18.016659 h 99.13554 c 9.93113,0 18.01666,8.085529 18.01666,18.016659 v 99.135558 c 0,9.93113 -8.08553,18.01665 -18.01666,18.01665 z"
     id="path1041"
     style="stroke-width:0.878861;fill:#edebec;fill-opacity:1" /><path
     class="st11"
     d="M 289.59956,152.8075 H 10.297463 c -2.4608119,0 -4.4821927,-2.02139 -4.4821927,-4.4822 0,-2.46081 2.0213808,-4.48219 4.4821927,-4.48219 H 289.59956 c 2.46081,0 4.48219,2.02138 4.48219,4.48219 0,2.46081 -2.02138,4.4822 -4.48219,4.4822 z"
     id="path1039"
     style="stroke-width:0.878861;fill:#a2d9d6;fill-opacity:1" /><g
     id="g1013"
     transform="matrix(0.87886122,0,0,0.87886122,-135.5935,-256.12663)"><path
       class="st10"
       d="m 179.9,550.9 -7.2,-7.2 41.6,-41.6 c 3.8,-3.8 9.1,-6 14.5,-6 h 29.5 v 10.3 h -29.5 c -2.7,0 -5.3,1.1 -7.2,3 z"
       id="path1005"
       style="fill:#a2d9d6;fill-opacity:1" /><path
       class="st10"
       d="M 421.1,424.3 H 391.6 V 414 h 29.5 c 2.7,0 5.3,-1.1 7.2,-3 l 41.6,-41.6 7.2,7.2 -41.6,41.6 c -3.8,3.9 -9,6.1 -14.4,6.1 z"
       id="path1007"
       style="fill:#a2d9d6;fill-opacity:1" /><path
       class="st10"
       d="m 289,393.6 h -10.3 v -29.5 c 0,-2.7 -1.1,-5.3 -3,-7.2 l -41.6,-41.6 7.2,-7.2 41.6,41.6 c 3.9,3.9 6,9 6,14.5 v 29.4 z"
       id="path1009"
       style="fill:#c9c6ca;fill-opacity:1" /><path
       class="st10"
       d="m 408.4,612.4 -41.6,-41.6 c -3.9,-3.9 -6,-9 -6,-14.5 V 526.8 H 371 v 29.5 c 0,2.7 1.1,5.3 3,7.2 l 41.6,41.6 z"
       id="path1011"
       style="fill:#c9c6ca;fill-opacity:1" /></g><path
     class="st11"
     d="M 145.46632,287.97635 V 8.6742556 c 0,-2.4608114 2.02138,-4.4821922 4.48219,-4.4821922 2.46081,0 4.48219,2.0213808 4.48219,4.4821922 V 287.97635 c 0,2.46081 -2.02138,4.48219 -4.48219,4.48219 -2.46081,0 -4.48219,-2.02138 -4.48219,-4.48219 z"
     id="path1031"
     style="stroke-width:0.878861" /><rect
     x="181.49962"
     y="26.690901"
     class="st11"
     width="8.9643955"
     height="180.16656"
     id="rect1015"
     style="stroke-width:0.878861" /><rect
     x="109.34513"
     y="89.793152"
     class="st11"
     width="9.1401358"
     height="180.16652"
     id="rect1017"
     style="stroke-width:0.878861" /><rect
     x="28.314117"
     y="107.80981"
     class="st11"
     width="180.25444"
     height="8.9643793"
     id="rect1019"
     style="fill:#a2d9d6;fill-opacity:1;stroke-width:0.878861" /><rect
     x="91.416344"
     y="179.87642"
     class="st11"
     width="180.16653"
     height="9.0522919"
     id="rect1021"
     style="fill:#a2d9d6;fill-opacity:1;stroke-width:0.878861" /><rect
     x="142.67076"
     y="107.62055"
     class="st11"
     width="13.389248"
     height="8.9643793"
     id="rect958"
     style="fill:#a2d9d6;fill-opacity:1;stroke-width:0.239527" /><path
     class="st10"
     d="M 163.48297,238.40858 V 58.242028 c 0,-2.460811 2.02138,-4.482192 4.4822,-4.482192 v 0 c 2.46081,0 4.48219,2.021381 4.48219,4.482192 V 238.40858 c 0,2.46081 -2.02138,4.48219 -4.48219,4.48219 v 0 c -2.46082,0 -4.4822,-2.02138 -4.4822,-4.48219 z"
     id="path1025"
     style="stroke-width:0.878861" /><path
     class="st10"
     d="M 127.44966,238.40858 V 58.242028 c 0,-2.460811 2.02138,-4.482192 4.4822,-4.482192 v 0 c 2.46081,0 4.48219,2.021381 4.48219,4.482192 V 238.40858 c 0,2.46081 -2.02138,4.48219 -4.48219,4.48219 v 0 c -2.46082,0 -4.4822,-2.02138 -4.4822,-4.48219 z"
     id="path1027"
     style="stroke-width:0.878861" /><g
     id="g1037"
     transform="matrix(0.87886122,0,0,0.87886122,-135.5935,-256.12663)"><path
       class="st10"
       d="m 427.4,444.8 h -205 c -2.8,0 -5.1,-2.3 -5.1,-5.1 v 0 c 0,-2.8 2.3,-5.1 5.1,-5.1 h 205 c 2.8,0 5.1,2.3 5.1,5.1 v 0 c 0,2.8 -2.2,5.1 -5.1,5.1 z"
       id="path1033"
       style="fill:#62c6be;fill-opacity:1" /><path
       class="st10"
       d="m 427.4,485.8 h -205 c -2.8,0 -5.1,-2.3 -5.1,-5.1 v 0 c 0,-2.8 2.3,-5.1 5.1,-5.1 h 205 c 2.8,0 5.1,2.3 5.1,5.1 v 0 c 0,2.8 -2.2,5.1 -5.1,5.1 z"
       id="path1035"
       style="fill:#62c6be;fill-opacity:1" /></g><rect
     x="109.42618"
     y="119.66138"
     class="st11"
     width="9.1401358"
     height="24.255335"
     id="rect965"
     style="stroke-width:0.322468" /><rect
     x="142.67076"
     y="143.62054"
     class="st11"
     width="13.389248"
     height="8.9643793"
     id="rect969"
     style="fill:#a2d9d6;fill-opacity:1;stroke-width:0.239527" /><rect
     x="145.34637"
     y="121.62003"
     class="st11"
     width="8.9643955"
     height="15.287527"
     id="rect971"
     style="stroke-width:0.256007" /><rect
     x="145.34637"
     y="159.62003"
     class="st11"
     width="8.9643955"
     height="15.287527"
     id="rect973"
     style="stroke-width:0.256007" /><rect
     x="181.42618"
     y="117.66138"
     class="st11"
     width="9.1401358"
     height="24.255335"
     id="rect975"
     style="stroke-width:0.322468" /><rect
     x="106.67076"
     y="143.62054"
     class="st11"
     width="13.389248"
     height="8.9643793"
     id="rect977"
     style="fill:#a2d9d6;fill-opacity:1;stroke-width:0.239527" /><rect
     x="180.67076"
     y="143.62054"
     class="st11"
     width="13.389248"
     height="8.9643793"
     id="rect979"
     style="fill:#a2d9d6;fill-opacity:1;stroke-width:0.239527" /><rect
     x="109.42618"
     y="153.66138"
     class="st11"
     width="9.1401358"
     height="24.255335"
     id="rect981"
     style="stroke-width:0.322468" /><rect
     x="181.42618"
     y="153.66138"
     class="st11"
     width="9.1401358"
     height="24.255335"
     id="rect983"
     style="stroke-width:0.322468" /></svg>
