<?xml version="1.0" encoding="UTF-8" standalone="no"?>
<svg
   xmlns:dc="http://purl.org/dc/elements/1.1/"
   xmlns:cc="http://creativecommons.org/ns#"
   xmlns:rdf="http://www.w3.org/1999/02/22-rdf-syntax-ns#"
   xmlns:svg="http://www.w3.org/2000/svg"
   xmlns="http://www.w3.org/2000/svg"
   xmlns:sodipodi="http://sodipodi.sourceforge.net/DTD/sodipodi-0.dtd"
   xmlns:inkscape="http://www.inkscape.org/namespaces/inkscape"
   version="1.1"
   id="Layer_1"
   x="0px"
   y="0px"
   viewBox="0 0 300.00001 299.99999"
   xml:space="preserve"
   sodipodi:docname="logo FABZERO-03.svg"
   width="300"
   height="300"
   inkscape:version="1.0.1 (1.0.1+r74)"><metadata
     id="metadata1849"><rdf:RDF><cc:Work
         rdf:about=""><dc:format>image/svg+xml</dc:format><dc:type
           rdf:resource="http://purl.org/dc/dcmitype/StillImage" /><dc:title></dc:title></cc:Work></rdf:RDF></metadata><defs
     id="defs1847" /><sodipodi:namedview
     pagecolor="#ffffff"
     bordercolor="#666666"
     borderopacity="1"
     objecttolerance="10"
     gridtolerance="10"
     guidetolerance="10"
     inkscape:pageopacity="0"
     inkscape:pageshadow="2"
     inkscape:window-width="1615"
     inkscape:window-height="753"
     id="namedview1845"
     showgrid="false"
     inkscape:zoom="1.0108089"
     inkscape:cx="297.64999"
     inkscape:cy="223.08867"
     inkscape:window-x="0"
     inkscape:window-y="0"
     inkscape:window-maximized="0"
     inkscape:current-layer="Layer_1" /><style
     type="text/css"
     id="style1784">
	.st0{fill:#CEEBEA;}
	.st1{fill:#CEECF8;}
	.st2{fill:#EDEBEC;}
	.st3{fill:#877F89;}
	.st4{fill:#706672;}
	.st5{fill:#72B3E2;}
	.st6{fill:#C6E0F5;}
	.st7{fill:#92C6EB;}
	.st8{fill:#FDD407;}
	.st9{fill:#FAC610;}
	.st10{fill:#DBD9DC;}
	.st11{fill:#C9C6CA;}
	.st12{fill:#A2D9D6;}
	.st13{fill:#62C6BE;}
	.st14{fill:#B8B3B8;}
	.st15{fill:#B0A9B0;}
	.st16{fill:#9C969E;}
	.st17{fill:none;stroke:#DBD9DC;stroke-width:14;stroke-linecap:round;stroke-miterlimit:10;}
	.st18{fill:#A7D1D6;}
	.st19{fill:#7CA1B0;}
	.st20{fill:#F6936A;}
	.st21{fill:#F15D5E;}
	.st22{fill:#C8E2E5;}
	.st23{fill:#EE2A44;}
	.st24{fill:#E5EBEE;}
</style><g
     id="g2441"
     transform="matrix(0.70704688,0,0,0.70704688,-60.230933,-112.70529)"><g
       id="g1842"><path
         class="st0"
         d="m 371.9,454.5 h -161 c -10.3,0 -18.6,-8.3 -18.6,-18.6 v -6.2 h 198.2 v 6.2 c 0,10.3 -8.3,18.6 -18.6,18.6 z"
         id="path1786" /><path
         class="st11"
         d="m 223.9,500 h -22.1 v -11 h 19.8 L 246,464.6 v -30.8 h 11 v 33.1 c 0,1.5 -0.6,2.9 -1.6,3.9 l -27.6,27.6 c -1,1.1 -2.4,1.6 -3.9,1.6 z"
         id="path1788" /><path
         class="st11"
         d="m 382.4,500.4 h -22.3 c -1.5,0 -2.9,-0.6 -3.9,-1.6 l -27.9,-27.9 c -1,-1 -1.6,-2.5 -1.6,-3.9 v -33.4 h 11.1 v 31.1 l 24.6,24.6 h 20 z"
         id="path1790" /><path
         class="st12"
         d="m 291.4,200.6 c -2.8,0 -5.7,0.3 -8.6,0.8 -16.9,3.2 -30.6,16.8 -33.9,33.7 -1.4,6.9 -1.1,13.6 0.5,19.7 2.2,8.6 1.6,17.8 -3.5,25 -6.5,9.1 -10.2,20.2 -10.2,32.2 0,30.8 25,55.7 55.7,55.7 30.8,0 55.7,-25 55.7,-55.7 0,-12 -3.8,-23.1 -10.2,-32.2 -5.1,-7.2 -5.8,-16.5 -3.5,-25 1.6,-6.1 1.9,-12.8 0.5,-19.7 -3.4,-16.9 -17,-30.5 -33.9,-33.7 -3,-0.5 -5.8,-0.8 -8.6,-0.8 z"
         id="path1792" /><line
         class="st17"
         x1="312.10001"
         y1="429.29999"
         x2="312.10001"
         y2="491.10001"
         id="line1794" /><line
         class="st17"
         x1="271.10001"
         y1="429.29999"
         x2="271.10001"
         y2="491.10001"
         id="line1796" /><path
         class="st13"
         d="m 322.4,355.4 c -30.8,0 -55.7,-25 -55.7,-55.7 0,-12 3.8,-23.1 10.2,-32.2 5.1,-7.2 5.8,-16.5 3.5,-25 -1.6,-6.1 -1.9,-12.8 -0.5,-19.7 1.7,-8.5 6,-16.2 12,-22.1 -0.2,0 -0.4,0 -0.5,0 -2.8,0 -5.7,0.3 -8.6,0.8 -16.9,3.2 -30.6,16.8 -33.9,33.7 -1.4,6.9 -1.1,13.6 0.5,19.7 2.2,8.6 1.6,17.8 -3.5,25 -6.5,9.1 -10.2,20.2 -10.2,32.2 0,30.8 25,55.7 55.7,55.7 13.4,0 25.7,-4.7 35.3,-12.6 -1.5,0.1 -2.9,0.2 -4.3,0.2 z"
         id="path1798" /><path
         class="st16"
         d="m 285.2,315.8 v 21.5 l -16.3,-14.9 c 0,0 0,0 0,0 -8.3,-0.5 -10.5,6.4 -6.6,9.9 l 23,21 V 433 c 5.5,5.7 12.4,2.2 12.4,-2.7 V 316.9"
         id="path1800" /><circle
         transform="matrix(0.07088899,-0.9975,0.9975,0.07088899,-311.0946,654.305)"
         class="st12"
         cx="195.7"
         cy="494.10001"
         id="ellipse1802"
         r="12.4" /><circle
         class="st12"
         cx="388.60001"
         cy="495.60001"
         r="12.4"
         id="circle1804" /><rect
         x="285.20001"
         y="429.79999"
         class="st11"
         width="12.4"
         height="136.3"
         id="rect1806" /><circle
         class="st13"
         cx="291.39999"
         cy="572.20001"
         r="12.4"
         id="circle1808" /><path
         class="st12"
         d="M 396.7,436 H 186.1 c -3.4,0 -6.2,-2.8 -6.2,-6.2 0,-3.4 2.8,-6.2 6.2,-6.2 h 210.6 c 3.4,0 6.2,2.8 6.2,6.2 0,3.4 -2.8,6.2 -6.2,6.2 z"
         id="path1810" /><path
         class="st16"
         d="m 325.7,290.1 v -8.5 c 0,-1.1 -0.9,-2 -2,-2 h -8 c -0.6,-2.3 -1.5,-4.5 -2.7,-6.6 l 5.7,-5.7 c 0.8,-0.8 0.8,-2 0,-2.8 l -6,-6 c -0.8,-0.8 -2,-0.8 -2.8,0 l -5.7,5.7 c -2,-1.2 -4.2,-2.1 -6.6,-2.7 v -8 c 0,-1.1 -0.9,-2 -2,-2 h -8.5 c -1.1,0 -2,0.9 -2,2 v 8 c -2.3,0.6 -4.5,1.5 -6.6,2.7 l -5.7,-5.7 c -0.8,-0.8 -2,-0.8 -2.8,0 l -6,6 c -0.8,0.8 -0.8,2 0,2.8 l 5.7,5.7 c -1.2,2 -2.1,4.2 -2.7,6.6 h -8 c -1.1,0 -2,0.9 -2,2 v 8.5 c 0,1.1 0.9,2 2,2 h 8 c 0.6,2.3 1.5,4.5 2.7,6.6 l -5.7,5.7 c -0.8,0.8 -0.8,2 0,2.8 l 6,6 c 0.8,0.8 2,0.8 2.8,0 l 5.7,-5.7 c 2,1.2 4.2,2.1 6.6,2.7 v 8 c 0,1.1 0.9,2 2,2 h 8.5 c 1.1,0 2,-0.9 2,-2 v -8 c 2.3,-0.6 4.5,-1.5 6.6,-2.7 l 5.7,5.7 c 0.8,0.8 2,0.8 2.8,0 l 6,-6 c 0.8,-0.8 0.8,-2 0,-2.8 l -5.7,-5.7 c 1.2,-2 2.1,-4.2 2.7,-6.6 h 8 c 1.1,-0.1 2,-0.9 2,-2 z m -34.3,7.8 c -6.7,0 -12.1,-5.4 -12.1,-12.1 0,-6.7 5.4,-12.1 12.1,-12.1 6.7,0 12.1,5.4 12.1,12.1 0,6.7 -5.4,12.1 -12.1,12.1 z"
         id="path1812" /><g
         id="g1816"><path
           class="st2"
           d="m 291.4,189.4 c -2.5,0 -4.5,-2 -4.5,-4.5 v -20.1 c 0,-2.5 2,-4.5 4.5,-4.5 2.5,0 4.5,2 4.5,4.5 V 185 c 0,2.4 -2,4.4 -4.5,4.4 z"
           id="path1814" /></g><g
         id="g1820"><path
           class="st2"
           d="m 358.3,219.2 c -1.1,0 -2.3,-0.4 -3.2,-1.3 -1.7,-1.7 -1.7,-4.6 0,-6.3 l 14.2,-14.2 c 1.7,-1.7 4.6,-1.7 6.3,0 1.7,1.7 1.7,4.6 0,6.3 l -14.2,14.2 c -0.8,0.8 -1.9,1.3 -3.1,1.3 z"
           id="path1818" /></g><g
         id="g1824"><path
           class="st2"
           d="m 210.3,367.2 c -1.1,0 -2.3,-0.4 -3.2,-1.3 -1.7,-1.7 -1.7,-4.6 0,-6.3 l 14.2,-14.2 c 1.7,-1.7 4.6,-1.7 6.3,0 1.7,1.7 1.7,4.6 0,6.3 l -14.2,14.2 c -0.8,0.9 -2,1.3 -3.1,1.3 z"
           id="path1822" /></g><g
         id="g1828"><path
           class="st2"
           d="m 224.5,219.2 c -1.1,0 -2.3,-0.4 -3.2,-1.3 l -14.2,-14.2 c -1.7,-1.7 -1.7,-4.6 0,-6.3 1.7,-1.7 4.6,-1.7 6.3,0 l 14.2,14.2 c 1.7,1.7 1.7,4.6 0,6.3 -0.8,0.8 -2,1.3 -3.1,1.3 z"
           id="path1826" /></g><g
         id="g1832"><path
           class="st2"
           d="m 372.5,367.2 c -1.1,0 -2.3,-0.4 -3.2,-1.3 l -14.2,-14.2 c -1.7,-1.7 -1.7,-4.6 0,-6.3 1.7,-1.7 4.6,-1.7 6.3,0 l 14.2,14.2 c 1.7,1.7 1.7,4.6 0,6.3 -0.8,0.9 -1.9,1.3 -3.1,1.3 z"
           id="path1830" /></g><g
         id="g1836"><path
           class="st2"
           d="m 211.7,286.1 h -20.1 c -2.5,0 -4.5,-2 -4.5,-4.5 0,-2.5 2,-4.5 4.5,-4.5 h 20.1 c 2.5,0 4.5,2 4.5,4.5 0,2.5 -2,4.5 -4.5,4.5 z"
           id="path1834" /></g><g
         id="g1840"><path
           class="st2"
           d="M 390.1,286.1 H 370 c -2.5,0 -4.5,-2 -4.5,-4.5 0,-2.5 2,-4.5 4.5,-4.5 h 20.1 c 2.5,0 4.5,2 4.5,4.5 0,2.5 -2,4.5 -4.5,4.5 z"
           id="path1838" /></g></g></g></svg>
