<?xml version="1.0" encoding="UTF-8" standalone="no"?>
<svg
   xmlns:dc="http://purl.org/dc/elements/1.1/"
   xmlns:cc="http://creativecommons.org/ns#"
   xmlns:rdf="http://www.w3.org/1999/02/22-rdf-syntax-ns#"
   xmlns:svg="http://www.w3.org/2000/svg"
   xmlns="http://www.w3.org/2000/svg"
   xmlns:sodipodi="http://sodipodi.sourceforge.net/DTD/sodipodi-0.dtd"
   xmlns:inkscape="http://www.inkscape.org/namespaces/inkscape"
   width="54px"
   height="54px"
   viewBox="0 0 54 54"
   version="1.1"
   id="svg4868"
   sodipodi:docname="logo-mobile.svg"
   inkscape:version="0.92.1 r15371">
  <metadata
     id="metadata4872">
    <rdf:RDF>
      <cc:Work
         rdf:about="">
        <dc:format>image/svg+xml</dc:format>
        <dc:type
           rdf:resource="http://purl.org/dc/dcmitype/StillImage" />
        <dc:title>logo-mobile</dc:title>
      </cc:Work>
    </rdf:RDF>
  </metadata>
  <sodipodi:namedview
     pagecolor="#ffffff"
     bordercolor="#666666"
     borderopacity="1"
     objecttolerance="10"
     gridtolerance="10"
     guidetolerance="10"
     inkscape:pageopacity="0"
     inkscape:pageshadow="2"
     inkscape:window-width="1366"
     inkscape:window-height="736"
     id="namedview4870"
     showgrid="false"
     inkscape:zoom="14.8107"
     inkscape:cx="50.911017"
     inkscape:cy="31.347458"
     inkscape:window-x="0"
     inkscape:window-y="16"
     inkscape:window-maximized="1"
     inkscape:current-layer="svg4868" />
  <!-- Generator: Sketch 51.3 (57544) - http://www.bohemiancoding.com/sketch -->
  <title
     id="title4857">logo-mobile</title>
  <desc
     id="desc4859">Created with Sketch.</desc>
  <defs
     id="defs4861" />
  <g
     id="g4700"
     transform="matrix(1.9669508,0,0,1.9669508,178.23912,-212.15617)">
    <path
       id="path859-8-9-3"
       d="m -79.903369,130.74758 c -1.517511,-0.23585 -2.942803,-0.79197 -4.237253,-1.65327 -4.285434,-2.85142 -5.861219,-8.38028 -3.740593,-13.12435 0.152418,-0.34098 0.301839,-0.60829 0.332048,-0.59403 0.03022,0.0143 0.229098,0.12874 0.441978,0.2544 l 0.387049,0.22847 0.02421,4.65823 0.02421,4.65822 1.233743,0.70936 c 0.678564,0.39014 1.26459,0.71003 1.302286,0.71086 0.03771,7.3e-4 0.06856,-0.40505 0.06856,-0.90196 0,-0.89351 -0.0039,-0.90939 -0.350513,-1.43938 -0.93942,-1.43632 -1.145884,-2.91256 -0.566244,-4.04874 0.792881,-1.5542 3.119999,-1.06323 4.460559,0.94108 1.113866,1.66536 1.194572,3.61763 0.187566,4.53739 -0.164641,0.15037 -0.351859,0.2734 -0.416056,0.2734 -0.08925,0 -0.116707,0.30712 -0.116707,1.30491 v 1.30491 l 1.09666,0.63069 1.096663,0.6307 v 0.53189 c 0,0.61743 0.08354,0.59109 -1.228154,0.38722 z"
       style="fill:#008000;stroke-width:0.09138881"
       inkscape:connector-curvature="0" />
    <path
       id="path857-5-3-0"
       d="m -77.944097,130.34326 v -0.50999 l 2.804923,-1.64099 c 1.542694,-0.90255 3.341915,-1.95383 3.998249,-2.3362 l 1.193341,-0.69521 0.02494,-1.61236 c 0.01376,-0.88679 -0.0068,-1.61195 -0.04569,-1.61145 -0.03886,2.9e-4 -0.378317,0.17612 -0.754361,0.39026 -0.661692,0.37682 -0.691119,0.40846 -0.913889,0.98282 -0.33842,0.87254 -0.669483,1.38519 -1.206142,1.86769 -0.676985,0.60867 -1.275277,0.88969 -1.994172,0.93668 -1.19906,0.0784 -1.913149,-0.62779 -1.990769,-1.9687 -0.05321,-0.91907 0.09303,-1.59175 0.540265,-2.4853 1.033753,-2.06538 3.095076,-3.04079 4.294035,-2.03193 l 0.292963,0.24651 0.876396,-0.46166 0.876411,-0.46165 0.02518,-1.54649 0.02521,-1.54649 0.358463,-0.20562 c 0.197152,-0.1131 0.396216,-0.20563 0.442354,-0.20563 0.122384,0 0.626242,1.17127 0.876802,2.03823 0.79181,2.73981 0.393914,5.77808 -1.081528,8.25847 -1.677923,2.8208 -4.716246,4.75248 -7.934749,5.0447 l -0.708265,0.0643 z"
       style="fill:#0000ff;stroke-width:0.09138881"
       inkscape:connector-curvature="0" />
    <path
       id="path853-1-1-0"
       d="m -79.278186,117.73254 c -1.280098,-0.18769 -2.409271,-0.83704 -2.77719,-1.59705 -0.11675,-0.24118 -0.184003,-0.56575 -0.184003,-0.88809 v -0.50801 l -0.783772,-0.46842 c -0.431073,-0.25763 -0.798862,-0.46842 -0.817311,-0.46842 -0.01845,0 -0.570314,0.329 -1.226373,0.73111 -0.65606,0.40211 -1.234961,0.73111 -1.286443,0.73111 -0.133332,0 -0.821091,-0.44493 -0.821091,-0.53119 0,-0.16473 0.872472,-1.25253 1.514744,-1.88858 1.486926,-1.47251 3.4749,-2.4853 5.584012,-2.84481 1.253932,-0.21374 3.147268,-0.13854 4.329458,0.17196 2.389563,0.62761 4.395493,1.96522 5.849908,3.90086 0.587677,0.78213 0.585172,0.75609 0.09915,1.0293 l -0.42948,0.24142 -1.505505,-0.87241 c -0.828028,-0.47983 -2.08125,-1.2098 -2.784939,-1.62217 -3.237445,-1.89713 -3.689661,-2.15382 -3.794553,-2.15382 -0.130709,0 -2.739755,1.47596 -2.739755,1.5499 0,0.0275 0.253558,0.20842 0.563449,0.40213 l 0.56345,0.35221 0.834617,-0.11047 c 1.053391,-0.13942 2.054343,0.0227 2.889916,0.46805 0.676449,0.36055 1.049712,0.79289 1.236988,1.43279 0.202409,0.69159 0.05798,1.24133 -0.484684,1.84491 -0.819933,0.91196 -2.267758,1.32685 -3.830598,1.09769 z"
       style="fill:#ff0000;stroke-width:0.09138881"
       inkscape:connector-curvature="0" />
  </g>
  <path
     style="opacity:1;fill:none;fill-opacity:1;stroke:#000000;stroke-width:2.18796396;stroke-miterlimit:4;stroke-dasharray:none;stroke-dashoffset:0;stroke-opacity:1"
     d="m 52.479201,29.536566 -1.926029,2.856289 c 0,0 1.455814,2.178075 1.976379,2.917362 -0.355175,0.7312 -0.451328,2.434614 -0.977631,2.535964 -0.277556,0.05338 -1.924039,-0.706664 -3.658875,-1.689137 C 46.566949,35.31637 45.091877,34.758782 43.748903,33.994329 40.041002,41.305153 32.45293,46.31551 23.694622,46.31551 c -12.41107,0 -22.4722031,-10.061144 -22.4722031,-22.472197 0,-12.411054 10.0611631,-22.4722173 22.4722031,-22.4722173 7.912889,0 14.87055,4.0897878 18.874494,10.2708473 1.70856,2.637552 0.100691,0.111631 0.100691,0.111631 l 1.41822,2.300284 2.650798,-2.088491 c 4.07369,-3.2095275 5.219589,-2.8790191 5.495085,1.584915 l -1.838866,2.611085 2.021038,3.3438 -3.978962,3.343799 4.021038,3.3438 z"
     id="path1000-4-4"
     inkscape:connector-curvature="0"
     sodipodi:nodetypes="ccccccssscccscccccc" />
  <g
     id="g5124"
     transform="matrix(1.3526125,0,0,1.3526125,-18.838048,-18.547264)">
    <path
       d="m 47.915784,48.517445 -0.81471,-1.758059 h -4.896839 v 0.703223 l 0.171518,0.01715 c 0.48025,0.05146 0.583161,0.171518 0.583161,0.720376 v 2.958685 c 0,0.548858 -0.102911,0.668921 -0.583161,0.720376 l -0.171518,0.01715 v 0.703224 h 3.070172 V 51.89635 L 45.042858,51.8792 c -0.197246,-0.01715 -0.403068,-0.08576 -0.480251,-0.180094 -0.07718,-0.08576 -0.102911,-0.214397 -0.102911,-0.540282 V 49.94962 h 0.197246 c 0.403067,0 0.505978,0.01715 0.634617,0.111487 0.154366,0.120063 0.248701,0.394492 0.29158,0.891894 h 0.634617 v -2.778592 h -0.634617 c -0.04288,0.428795 -0.102911,0.651769 -0.214397,0.771831 -0.111487,0.128639 -0.240125,0.162942 -0.660345,0.162942 h -0.248701 v -0.806134 c 0,-0.394492 0.01715,-0.488827 0.07718,-0.574586 0.07718,-0.102911 0.291581,-0.154366 0.643193,-0.154366 0.891894,0 1.475055,0.33446 2.143975,1.243506 z"
       style="font-style:normal;font-variant:normal;font-weight:bold;font-stretch:normal;font-size:medium;line-height:1;font-family:'URW Bookman L';-inkscape-font-specification:'URW Bookman L Bold';letter-spacing:0px;word-spacing:0px;fill:#000000;fill-opacity:1;stroke:none;stroke-width:0.2143975"
       id="path2129"
       inkscape:connector-curvature="0" />
    <path
       d="M 53.02116,46.759386 H 48.879 l -0.849014,1.869546 0.591737,0.248701 c 0.463099,-0.90047 1.200626,-1.372144 2.161127,-1.372144 0.120063,0 0.231549,0.0086 0.514554,0.0343 l -3.267418,4.502348 0.137215,0.557434 h 4.493772 l 0.763254,-2.006761 -0.634616,-0.205822 c -0.162942,0.437371 -0.33446,0.694648 -0.617465,0.934774 -0.385915,0.343036 -0.986228,0.531705 -1.637997,0.531705 -0.205821,0 -0.351612,-0.01715 -0.608889,-0.06003 l 3.241691,-4.485196 z"
       style="font-style:normal;font-variant:normal;font-weight:bold;font-stretch:normal;font-size:medium;line-height:1;font-family:'URW Bookman L';-inkscape-font-specification:'URW Bookman L Bold';letter-spacing:0px;word-spacing:0px;fill:#000000;fill-opacity:1;stroke:none;stroke-width:0.2143975"
       id="path2135"
       inkscape:connector-curvature="0" />
  </g>
</svg>
