<?xml version="1.0" encoding="UTF-8" standalone="no"?>
<svg
   xmlns:dc="http://purl.org/dc/elements/1.1/"
   xmlns:cc="http://creativecommons.org/ns#"
   xmlns:rdf="http://www.w3.org/1999/02/22-rdf-syntax-ns#"
   xmlns:svg="http://www.w3.org/2000/svg"
   xmlns="http://www.w3.org/2000/svg"
   xmlns:sodipodi="http://sodipodi.sourceforge.net/DTD/sodipodi-0.dtd"
   xmlns:inkscape="http://www.inkscape.org/namespaces/inkscape"
   version="1.1"
   id="Layer_1"
   x="0px"
   y="0px"
   viewBox="0 0 300.00001 299.99999"
   xml:space="preserve"
   sodipodi:docname="logo FABZERO-01.svg"
   width="300"
   height="300"
   inkscape:version="1.0.1 (1.0.1+r74)"><metadata
     id="metadata63"><rdf:RDF><cc:Work
         rdf:about=""><dc:format>image/svg+xml</dc:format><dc:type
           rdf:resource="http://purl.org/dc/dcmitype/StillImage" /><dc:title></dc:title></cc:Work></rdf:RDF></metadata><defs
     id="defs61" /><sodipodi:namedview
     pagecolor="#ffffff"
     bordercolor="#666666"
     borderopacity="1"
     objecttolerance="10"
     gridtolerance="10"
     guidetolerance="10"
     inkscape:pageopacity="0"
     inkscape:pageshadow="2"
     inkscape:window-width="1920"
     inkscape:window-height="1051"
     id="namedview59"
     showgrid="false"
     fit-margin-top="0"
     fit-margin-left="0"
     fit-margin-right="0"
     fit-margin-bottom="0"
     inkscape:zoom="1.0108089"
     inkscape:cx="185.64999"
     inkscape:cy="142.15001"
     inkscape:window-x="0"
     inkscape:window-y="0"
     inkscape:window-maximized="1"
     inkscape:current-layer="Layer_1" /><style
     type="text/css"
     id="style2">
	.st0{fill:#CEEBEA;}
	.st1{fill:#CEECF8;}
	.st2{fill:#EDEBEC;}
	.st3{fill:#877F89;}
	.st4{fill:#706672;}
	.st5{fill:#72B3E2;}
	.st6{fill:#C6E0F5;}
	.st7{fill:#92C6EB;}
	.st8{fill:#FDD407;}
	.st9{fill:#FAC610;}
	.st10{fill:#DBD9DC;}
	.st11{fill:#C9C6CA;}
	.st12{fill:#A2D9D6;}
	.st13{fill:#62C6BE;}
	.st14{fill:#B8B3B8;}
	.st15{fill:#B0A9B0;}
	.st16{fill:#9C969E;}
	.st17{fill:none;stroke:#DBD9DC;stroke-width:14;stroke-linecap:round;stroke-miterlimit:10;}
	.st18{fill:#A7D1D6;}
	.st19{fill:#7CA1B0;}
	.st20{fill:#F6936A;}
	.st21{fill:#F15D5E;}
	.st22{fill:#C8E2E5;}
	.st23{fill:#EE2A44;}
	.st24{fill:#E5EBEE;}
</style><path
     class="st2"
     d="m 237.21448,139.44655 c 0,-52.400015 -44.1,-94.500015 -97.2,-91.200015 -46.300024,2.9 -83.600024,41.1 -85.500024,87.500015 -1.4,35.9 17.8,67.4 46.900004,83.6 10.20002,5.7 16.70002,16.3 16.70002,27.9 v 19.4 c 0,6.6 5.3,11.9 11.9,11.9 h 31.8 c 6.6,0 11.9,-5.3 11.9,-11.9 v -19.4 c 0,-11.7 6.5,-22.3 16.7,-28 27.9,-15.6 46.8,-45.5 46.8,-79.8 z"
     id="path4" /><path
     class="st10"
     d="m 157.31448,267.04655 c -6.6,0 -11.9,-5.3 -11.9,-11.9 v -23.4 c 0,-11.7 -6.5,-22.2 -16.7,-27.9 -29.000024,-16.2 -48.300024,-47.7 -46.900024,-83.6 1.1,-26.900015 14.2,-51.100015 34.000024,-67.200015 -34.800024,12 -60.300024,44.6 -61.800024,82.700015 -1.4,35.9 17.8,67.4 46.900004,83.6 10.20002,5.7 16.70002,16.3 16.70002,27.9 v 19.4 c 0,6.6 5.3,11.9 11.9,11.9 h 31.8 c 6.5,0 11.7,-5.1 11.9,-11.6 h -15.9 z"
     id="path6" /><path
     class="st3"
     d="m 129.91448,274.94655 2.7,13.1 c 0.8,3.7 4,6.4 7.8,6.4 h 10.9 c 3.8,0 7,-2.7 7.8,-6.4 l 2.7,-13.1 z"
     id="path8" /><g
     id="g16"
     transform="translate(-104.08552,-273.85345)"><path
       class="st11"
       d="m 249.9,488.8 c -2.2,0 -4,-1.8 -4,-4 v -7.9 c 0,-2.2 1.8,-4 4,-4 2.2,0 4,1.8 4,4 v 7.9 c 0,2.3 -1.8,4 -4,4 z"
       id="path10" /><path
       class="st11"
       d="m 234,488.8 c -1.5,0 -2.9,-0.8 -3.6,-2.2 l -4,-7.9 c -1,-2 -0.2,-4.4 1.8,-5.3 2,-1 4.3,-0.2 5.3,1.8 l 4,7.9 c 1,2 0.2,4.4 -1.8,5.3 -0.5,0.3 -1.1,0.4 -1.7,0.4 z"
       id="path12" /><path
       class="st11"
       d="m 265.8,488.8 c -0.6,0 -1.2,-0.1 -1.8,-0.4 -2,-1 -2.8,-3.4 -1.8,-5.3 l 4,-7.9 c 1,-2 3.4,-2.8 5.3,-1.8 2,1 2.8,3.4 1.8,5.3 l -4,7.9 c -0.6,1.4 -2,2.2 -3.5,2.2 z"
       id="path14" /></g><path
     class="st12"
     d="m 140.01448,48.246535 c -46.300024,2.9 -83.600024,41.1 -85.500024,87.500015 -0.8,19.1 4.4,36.8 13.6,51.8 H 223.51448 c 8.7,-14 13.7,-30.4 13.7,-48.1 0,-52.400015 -44.1,-94.500015 -97.2,-91.200015 z"
     id="path18" /><path
     class="st13"
     d="m 81.914456,120.24655 c 1.1,-26.900015 14.2,-51.100015 34.000024,-67.200015 -34.800024,12 -60.300024,44.6 -61.800024,82.700015 -0.8,19.1 4.4,36.8 13.6,51.8 h 39.900024 c -16.700024,-17.3 -26.700024,-41.1 -25.700024,-67.3 z"
     id="path20" /><path
     class="st14"
     d="m 118.01448,247.14655 c 0,0 0,0.1 0,0.1 v 19.4 c 0,6.6 5.3,11.9 11.9,11.9 h 31.8 c 6.6,0 11.9,-5.3 11.9,-11.9 v -19.4 c 0,0 0,-0.1 0,-0.1 z"
     id="path22" /><path
     class="st15"
     d="m 117.61448,266.64655 c 0,6.6 5.3,11.9 11.9,11.9 h 31.8 c 6.6,0 11.9,-5.3 11.9,-11.9 v -3.6 h -27.8 v -15.9 h -27.8 c 0,0 0,0.1 0,0.1 z"
     id="path24" /><path
     class="st16"
     d="m 173.61448,266.64655 h -55.6 c -2.2,0 -4,-1.8 -4,-4 0,-2.2 1.8,-4 4,-4 h 55.6 c 2.2,0 4,1.8 4,4 0,2.2 -1.8,4 -4,4 z"
     id="path26" /><path
     class="st16"
     d="m 191.81448,138.04655 v -11.4 c 0,-1.4 -1.2,-2.6 -2.6,-2.6 h -10.8 c -0.8,-3.1 -2,-6.1 -3.7,-8.8 l 7.6,-7.6 c 1,-1 1,-2.7 0,-3.70001 l -8.1,-8.100005 c -1,-1 -2.7,-1 -3.7,0 l -7.6,7.600005 c -2.7,-1.6 -5.7,-2.90001 -8.8,-3.700005 v -10.8 c 0,-1.4 -1.2,-2.6 -2.6,-2.6 h -11.4 c -1.4,0 -2.6,1.2 -2.6,2.6 v 10.8 c -3.1,0.799995 -6.1,2.000005 -8.8,3.700005 l -7.6,-7.600005 c -1,-1 -2.7,-1 -3.7,0 l -8.1,8.100005 c -1,1.00001 -1,2.70001 0,3.70001 l 7.6,7.6 c -1.6,2.7 -2.9,5.7 -3.7,8.8 h -10.80002 c -1.4,0 -2.600004,1.2 -2.600004,2.6 v 11.4 c 0,1.4 1.200004,2.6 2.600004,2.6 h 10.80002 c 0.8,3.1 2,6.1 3.7,8.8 l -7.6,7.6 c -1,1 -1,2.7 0,3.7 l 8.1,8.1 c 1,1 2.7,1 3.7,0 l 7.6,-7.6 c 2.7,1.6 5.7,2.9 8.8,3.7 v 10.8 c 0,1.4 1.2,2.6 2.6,2.6 h 11.4 c 1.4,0 2.6,-1.2 2.6,-2.6 v -10.8 c 3.1,-0.8 6.1,-2 8.8,-3.7 l 7.6,7.6 c 1,1 2.7,1 3.7,0 l 8.1,-8.1 c 1,-1 1,-2.7 0,-3.7 l -7.6,-7.6 c 1.6,-2.7 2.9,-5.7 3.7,-8.8 h 10.8 c 1.5,0 2.6,-1.2 2.6,-2.6 z m -46,10.5 c -9,0 -16.3,-7.3 -16.3,-16.3 0,-9 7.3,-16.3 16.3,-16.3 9,0 16.3,7.3 16.3,16.3 0,9 -7.3,16.3 -16.3,16.3 z"
     id="path28" /><g
     id="g32"
     transform="translate(-104.08552,-273.85345)"><path
       class="st2"
       d="m 249.9,312.3 c -2.9,0 -5.2,-2.3 -5.2,-5.2 V 284 c 0,-2.9 2.3,-5.2 5.2,-5.2 2.9,0 5.2,2.3 5.2,5.2 v 23.2 c 0,2.8 -2.3,5.1 -5.2,5.1 z"
       id="path30" /></g><g
     id="g36"
     transform="translate(-104.08552,-273.85345)"><path
       class="st2"
       d="m 326.7,344.3 c -1.3,0 -2.6,-0.5 -3.7,-1.5 -2,-2 -2,-5.3 0,-7.3 l 16.4,-16.4 c 2,-2 5.3,-2 7.3,0 2,2 2,5.3 0,7.3 l -16.4,16.4 c -1,1 -2.3,1.5 -3.6,1.5 z"
       id="path34" /></g><g
     id="g40"
     transform="translate(-104.08552,-273.85345)"><path
       class="st2"
       d="m 155.9,515 c -1.3,0 -2.6,-0.5 -3.6,-1.5 -2,-2 -2,-5.3 0,-7.3 l 16.4,-16.4 c 2,-2 5.3,-2 7.3,0 2,2 2,5.3 0,7.3 l -16.4,16.4 c -1,1 -2.3,1.5 -3.7,1.5 z"
       id="path38" /></g><g
     id="g44"
     transform="translate(-104.08552,-273.85345)"><path
       class="st2"
       d="m 172.3,344.3 c -1.3,0 -2.6,-0.5 -3.6,-1.5 l -16.4,-16.4 c -2,-2 -2,-5.3 0,-7.3 2,-2 5.3,-2 7.3,0 l 16.4,16.4 c 2,2 2,5.3 0,7.3 -1,1 -2.3,1.5 -3.7,1.5 z"
       id="path42" /></g><g
     id="g48"
     transform="translate(-104.08552,-273.85345)"><path
       class="st2"
       d="m 343.1,515 c -1.3,0 -2.6,-0.5 -3.7,-1.5 L 323,497.1 c -2,-2 -2,-5.3 0,-7.3 2,-2 5.3,-2 7.3,0 l 16.4,16.4 c 2,2 2,5.3 0,7.3 -1,1 -2.3,1.5 -3.6,1.5 z"
       id="path46" /></g><g
     id="g52"
     transform="translate(-104.08552,-273.85345)"><path
       class="st2"
       d="m 140.4,421.5 h -23.2 c -2.9,0 -5.2,-2.3 -5.2,-5.2 0,-2.9 2.3,-5.2 5.2,-5.2 h 23.2 c 2.9,0 5.2,2.3 5.2,5.2 -0.1,2.9 -2.4,5.2 -5.2,5.2 z"
       id="path50" /></g><g
     id="g56"
     transform="translate(-104.08552,-273.85345)"><path
       class="st2"
       d="m 381.8,421.5 h -23.2 c -2.9,0 -5.2,-2.3 -5.2,-5.2 0,-2.9 2.3,-5.2 5.2,-5.2 h 23.2 c 2.9,0 5.2,2.3 5.2,5.2 0,2.9 -2.3,5.2 -5.2,5.2 z"
       id="path54" /></g></svg>
