<?xml version="1.0" encoding="UTF-8" standalone="no"?>
<svg
   xmlns:dc="http://purl.org/dc/elements/1.1/"
   xmlns:cc="http://creativecommons.org/ns#"
   xmlns:rdf="http://www.w3.org/1999/02/22-rdf-syntax-ns#"
   xmlns:svg="http://www.w3.org/2000/svg"
   xmlns="http://www.w3.org/2000/svg"
   xmlns:sodipodi="http://sodipodi.sourceforge.net/DTD/sodipodi-0.dtd"
   xmlns:inkscape="http://www.inkscape.org/namespaces/inkscape"
   version="1.1"
   id="Layer_1"
   x="0px"
   y="0px"
   viewBox="0 0 300.00001 299.99999"
   xml:space="preserve"
   sodipodi:docname="logo FABZERO-02.svg"
   width="300"
   height="300"
   inkscape:version="1.0.1 (1.0.1+r74)"><metadata
     id="metadata1080"><rdf:RDF><cc:Work
         rdf:about=""><dc:format>image/svg+xml</dc:format><dc:type
           rdf:resource="http://purl.org/dc/dcmitype/StillImage" /><dc:title></dc:title></cc:Work></rdf:RDF></metadata><defs
     id="defs1078" /><sodipodi:namedview
     pagecolor="#ffffff"
     bordercolor="#666666"
     borderopacity="1"
     objecttolerance="10"
     gridtolerance="10"
     guidetolerance="10"
     inkscape:pageopacity="0"
     inkscape:pageshadow="2"
     inkscape:window-width="1662"
     inkscape:window-height="1051"
     id="namedview1076"
     showgrid="false"
     inkscape:zoom="1.0108089"
     inkscape:cx="297.64999"
     inkscape:cy="420.95001"
     inkscape:window-x="0"
     inkscape:window-y="0"
     inkscape:window-maximized="0"
     inkscape:current-layer="Layer_1" /><style
     type="text/css"
     id="style1003">
	.st0{fill:#CEEBEA;}
	.st1{fill:#CEECF8;}
	.st2{fill:#EDEBEC;}
	.st3{fill:#877F89;}
	.st4{fill:#706672;}
	.st5{fill:#72B3E2;}
	.st6{fill:#C6E0F5;}
	.st7{fill:#92C6EB;}
	.st8{fill:#FDD407;}
	.st9{fill:#FAC610;}
	.st10{fill:#DBD9DC;}
	.st11{fill:#C9C6CA;}
	.st12{fill:#A2D9D6;}
	.st13{fill:#62C6BE;}
	.st14{fill:#B8B3B8;}
	.st15{fill:#B0A9B0;}
	.st16{fill:#9C969E;}
	.st17{fill:none;stroke:#DBD9DC;stroke-width:14;stroke-linecap:round;stroke-miterlimit:10;}
	.st18{fill:#A7D1D6;}
	.st19{fill:#7CA1B0;}
	.st20{fill:#F6936A;}
	.st21{fill:#F15D5E;}
	.st22{fill:#C8E2E5;}
	.st23{fill:#EE2A44;}
	.st24{fill:#E5EBEE;}
</style><g
     id="g1679"
     transform="matrix(0.87886122,0,0,0.87886122,-135.5935,-256.12663)"><g
       id="g1073"><g
         id="g1013"><path
           class="st10"
           d="m 179.9,550.9 -7.2,-7.2 41.6,-41.6 c 3.8,-3.8 9.1,-6 14.5,-6 h 29.5 v 10.3 h -29.5 c -2.7,0 -5.3,1.1 -7.2,3 z"
           id="path1005" /><path
           class="st10"
           d="M 421.1,424.3 H 391.6 V 414 h 29.5 c 2.7,0 5.3,-1.1 7.2,-3 l 41.6,-41.6 7.2,7.2 -41.6,41.6 c -3.8,3.9 -9,6.1 -14.4,6.1 z"
           id="path1007" /><path
           class="st10"
           d="m 289,393.6 h -10.3 v -29.5 c 0,-2.7 -1.1,-5.3 -3,-7.2 l -41.6,-41.6 7.2,-7.2 41.6,41.6 c 3.9,3.9 6,9 6,14.5 v 29.4 z"
           id="path1009" /><path
           class="st10"
           d="m 408.4,612.4 -41.6,-41.6 c -3.9,-3.9 -6,-9 -6,-14.5 V 526.8 H 371 v 29.5 c 0,2.7 1.1,5.3 3,7.2 l 41.6,41.6 z"
           id="path1011" /></g><g
         id="g1023"><rect
           x="360.79999"
           y="321.79999"
           class="st11"
           width="10.3"
           height="71.800003"
           id="rect1015" /><rect
           x="278.79999"
           y="526.79999"
           class="st11"
           width="10.3"
           height="71.800003"
           id="rect1017" /><rect
           x="186.5"
           y="414.10001"
           class="st11"
           width="71.800003"
           height="10.3"
           id="rect1019" /><rect
           x="391.5"
           y="496.10001"
           class="st11"
           width="71.800003"
           height="10.3"
           id="rect1021" /></g><g
         id="g1029"><path
           class="st10"
           d="m 340.3,562.7 v -205 c 0,-2.8 2.3,-5.1 5.1,-5.1 v 0 c 2.8,0 5.1,2.3 5.1,5.1 v 205 c 0,2.8 -2.3,5.1 -5.1,5.1 v 0 c -2.8,0 -5.1,-2.3 -5.1,-5.1 z"
           id="path1025" /><path
           class="st10"
           d="m 299.3,562.7 v -205 c 0,-2.8 2.3,-5.1 5.1,-5.1 v 0 c 2.8,0 5.1,2.3 5.1,5.1 v 205 c 0,2.8 -2.3,5.1 -5.1,5.1 v 0 c -2.8,0 -5.1,-2.3 -5.1,-5.1 z"
           id="path1027" /></g><path
         class="st11"
         d="M 319.8,619.1 V 301.3 c 0,-2.8 2.3,-5.1 5.1,-5.1 2.8,0 5.1,2.3 5.1,5.1 v 317.8 c 0,2.8 -2.3,5.1 -5.1,5.1 -2.8,0 -5.1,-2.3 -5.1,-5.1 z"
         id="path1031" /><g
         id="g1037"><path
           class="st10"
           d="m 427.4,444.8 h -205 c -2.8,0 -5.1,-2.3 -5.1,-5.1 v 0 c 0,-2.8 2.3,-5.1 5.1,-5.1 h 205 c 2.8,0 5.1,2.3 5.1,5.1 v 0 c 0,2.8 -2.2,5.1 -5.1,5.1 z"
           id="path1033" /><path
           class="st10"
           d="m 427.4,485.8 h -205 c -2.8,0 -5.1,-2.3 -5.1,-5.1 v 0 c 0,-2.8 2.3,-5.1 5.1,-5.1 h 205 c 2.8,0 5.1,2.3 5.1,5.1 v 0 c 0,2.8 -2.2,5.1 -5.1,5.1 z"
           id="path1035" /></g><path
         class="st11"
         d="M 483.8,465.3 H 166 c -2.8,0 -5.1,-2.3 -5.1,-5.1 0,-2.8 2.3,-5.1 5.1,-5.1 h 317.8 c 2.8,0 5.1,2.3 5.1,5.1 0,2.8 -2.3,5.1 -5.1,5.1 z"
         id="path1039" /><path
         class="st13"
         d="M 381.3,537.1 H 268.5 c -11.3,0 -20.5,-9.2 -20.5,-20.5 V 403.8 c 0,-11.3 9.2,-20.5 20.5,-20.5 h 112.8 c 11.3,0 20.5,9.2 20.5,20.5 v 112.8 c 0,11.3 -9.2,20.5 -20.5,20.5 z"
         id="path1041" /><path
         class="st12"
         d="M 381.5,526.8 H 268.8 c -5.7,0 -10.3,-4.6 -10.3,-10.3 V 403.8 c 0,-5.7 4.6,-10.3 10.3,-10.3 h 112.8 c 5.7,0 10.3,4.6 10.3,10.3 v 112.8 c -0.1,5.6 -4.7,10.2 -10.4,10.2 z"
         id="path1043" /><g
         id="g1049"><circle
           class="st13"
           cx="186.5"
           cy="419.20001"
           r="10.3"
           id="circle1045" /><circle
           class="st13"
           cx="463.29999"
           cy="501.20001"
           r="10.3"
           id="circle1047" /></g><g
         id="g1055"><circle
           class="st12"
           cx="176.3"
           cy="547.29999"
           r="10.3"
           id="circle1051" /><circle
           class="st12"
           cx="473.5"
           cy="373.10001"
           r="10.3"
           id="circle1053" /></g><g
         id="g1061"><circle
           class="st13"
           cx="365.89999"
           cy="321.79999"
           r="10.3"
           id="circle1057" /><circle
           class="st13"
           cx="283.89999"
           cy="598.59998"
           r="10.3"
           id="circle1059" /></g><g
         id="g1067"><circle
           class="st12"
           cx="237.8"
           cy="311.60001"
           r="10.3"
           id="circle1063" /><circle
           class="st12"
           cx="412"
           cy="608.79999"
           r="10.3"
           id="circle1065" /></g><g
         id="g1071"><path
           id="XMLID_323_"
           class="st14"
           d="m 364,508.6 -10.9,-10.9 9.7,-9.7 10.9,10.9 c 2.9,-6.7 1.6,-14.8 -3.9,-20.3 -4.2,-4.2 -9.4,-5.4 -14.4,-4.2 -1.7,0.4 -5.4,1.9 -6.7,0.7 l -38.5,-38.5 c -1.2,-1.2 0.3,-4.9 0.6,-6.6 1.1,-4.9 -0.2,-10 -4.3,-14.1 -5.5,-5.5 -13.6,-6.8 -20.3,-3.9 l 10.9,10.9 -9.7,9.7 -10.9,-10.9 c -2.9,6.7 -1.6,14.8 3.9,20.3 4.2,4.2 9.4,5.4 14.4,4.2 1.7,-0.4 3.4,0.1 4.7,1.4 l 38.5,38.5 c 1.2,1.2 1.7,2.9 1.4,4.6 -1.1,4.9 0.2,10 4.3,14.1 5.5,5.4 13.6,6.7 20.3,3.8 z" /><path
           id="XMLID_2573_"
           class="st16"
           d="m 357.9,493 -65.4,-65.5 4.7,-4.7 -10.9,-10.9 c 6.7,-2.9 14.8,-1.6 20.3,3.9 4.1,4.1 5.4,9.2 4.3,14.1 -0.4,1.7 0.2,3.4 1.4,4.6 l 38.5,38.5 c 1.2,1.2 3,1.7 4.7,1.4 5,-1.2 10.2,0 14.4,4.2 5.5,5.5 6.8,13.6 3.9,20.3 L 362.9,488 Z" /></g></g></g></svg>
