<?xml version="1.0" encoding="UTF-8" standalone="no"?>
<svg
   xmlns:dc="http://purl.org/dc/elements/1.1/"
   xmlns:cc="http://creativecommons.org/ns#"
   xmlns:rdf="http://www.w3.org/1999/02/22-rdf-syntax-ns#"
   xmlns:svg="http://www.w3.org/2000/svg"
   xmlns="http://www.w3.org/2000/svg"
   xmlns:sodipodi="http://sodipodi.sourceforge.net/DTD/sodipodi-0.dtd"
   xmlns:inkscape="http://www.inkscape.org/namespaces/inkscape"
   width="112.8604"
   height="51.421726"
   viewBox="0 0 29.860982 13.605332"
   version="1.1"
   id="svg1554"
   inkscape:version="1.0.1 (1.0.1+r74)"
   sodipodi:docname="logo_small.svg"
   inkscape:export-filename="/home/amy/Documents/Ingegno/FabZero/logo.png"
   inkscape:export-xdpi="96"
   inkscape:export-ydpi="96">
  <defs
     id="defs1548" />
  <sodipodi:namedview
     id="base"
     pagecolor="#ffffff"
     bordercolor="#666666"
     borderopacity="1.0"
     inkscape:pageopacity="0.0"
     inkscape:pageshadow="2"
     inkscape:zoom="1.5318615"
     inkscape:cx="83.453212"
     inkscape:cy="13.087809"
     inkscape:document-units="mm"
     inkscape:current-layer="layer1"
     showgrid="false"
     fit-margin-top="0"
     fit-margin-left="0"
     fit-margin-right="0"
     fit-margin-bottom="0"
     inkscape:window-width="1920"
     inkscape:window-height="1051"
     inkscape:window-x="0"
     inkscape:window-y="0"
     inkscape:window-maximized="1"
     inkscape:document-rotation="0"
     units="px" />
  <metadata
     id="metadata1551">
    <rdf:RDF>
      <cc:Work
         rdf:about="">
        <dc:format>image/svg+xml</dc:format>
        <dc:type
           rdf:resource="http://purl.org/dc/dcmitype/StillImage" />
        <dc:title></dc:title>
      </cc:Work>
    </rdf:RDF>
  </metadata>
  <g
     inkscape:label="Layer 1"
     inkscape:groupmode="layer"
     id="layer1"
     transform="translate(90.995293,-107.5648)">
    <g
       id="g4700"
       transform="matrix(0.55696851,0,0,0.55696851,-40.560866,47.411472)">
      <path
         id="path859-8-9-3"
         d="m -79.903369,130.74758 c -1.517511,-0.23585 -2.942803,-0.79197 -4.237253,-1.65327 -4.285434,-2.85142 -5.861219,-8.38028 -3.740593,-13.12435 0.152418,-0.34098 0.301839,-0.60829 0.332048,-0.59403 0.03022,0.0143 0.229098,0.12874 0.441978,0.2544 l 0.387049,0.22847 0.02421,4.65823 0.02421,4.65822 1.233743,0.70936 c 0.678564,0.39014 1.26459,0.71003 1.302286,0.71086 0.03771,7.3e-4 0.06856,-0.40505 0.06856,-0.90196 0,-0.89351 -0.0039,-0.90939 -0.350513,-1.43938 -0.93942,-1.43632 -1.145884,-2.91256 -0.566244,-4.04874 0.792881,-1.5542 3.119999,-1.06323 4.460559,0.94108 1.113866,1.66536 1.194572,3.61763 0.187566,4.53739 -0.164641,0.15037 -0.351859,0.2734 -0.416056,0.2734 -0.08925,0 -0.116707,0.30712 -0.116707,1.30491 v 1.30491 l 1.09666,0.63069 1.096663,0.6307 v 0.53189 c 0,0.61743 0.08354,0.59109 -1.228154,0.38722 z"
         style="fill:#008000;stroke-width:0.0913888"
         inkscape:connector-curvature="0" />
      <path
         id="path857-5-3-0"
         d="m -77.944097,130.34326 v -0.50999 l 2.804923,-1.64099 c 1.542694,-0.90255 3.341915,-1.95383 3.998249,-2.3362 l 1.193341,-0.69521 0.02494,-1.61236 c 0.01376,-0.88679 -0.0068,-1.61195 -0.04569,-1.61145 -0.03886,2.9e-4 -0.378317,0.17612 -0.754361,0.39026 -0.661692,0.37682 -0.691119,0.40846 -0.913889,0.98282 -0.33842,0.87254 -0.669483,1.38519 -1.206142,1.86769 -0.676985,0.60867 -1.275277,0.88969 -1.994172,0.93668 -1.19906,0.0784 -1.913149,-0.62779 -1.990769,-1.9687 -0.05321,-0.91907 0.09303,-1.59175 0.540265,-2.4853 1.033753,-2.06538 3.095076,-3.04079 4.294035,-2.03193 l 0.292963,0.24651 0.876396,-0.46166 0.876411,-0.46165 0.02518,-1.54649 0.02521,-1.54649 0.358463,-0.20562 c 0.197152,-0.1131 0.396216,-0.20563 0.442354,-0.20563 0.122384,0 0.626242,1.17127 0.876802,2.03823 0.79181,2.73981 0.393914,5.77808 -1.081528,8.25847 -1.677923,2.8208 -4.716246,4.75248 -7.934749,5.0447 l -0.708265,0.0643 z"
         style="fill:#0000ff;stroke-width:0.0913888"
         inkscape:connector-curvature="0" />
      <path
         id="path853-1-1-0"
         d="m -79.278186,117.73254 c -1.280098,-0.18769 -2.409271,-0.83704 -2.77719,-1.59705 -0.11675,-0.24118 -0.184003,-0.56575 -0.184003,-0.88809 v -0.50801 l -0.783772,-0.46842 c -0.431073,-0.25763 -0.798862,-0.46842 -0.817311,-0.46842 -0.01845,0 -0.570314,0.329 -1.226373,0.73111 -0.65606,0.40211 -1.234961,0.73111 -1.286443,0.73111 -0.133332,0 -0.821091,-0.44493 -0.821091,-0.53119 0,-0.16473 0.872472,-1.25253 1.514744,-1.88858 1.486926,-1.47251 3.4749,-2.4853 5.584012,-2.84481 1.253932,-0.21374 3.147268,-0.13854 4.329458,0.17196 2.389563,0.62761 4.395493,1.96522 5.849908,3.90086 0.587677,0.78213 0.585172,0.75609 0.09915,1.0293 l -0.42948,0.24142 -1.505505,-0.87241 c -0.828028,-0.47983 -2.08125,-1.2098 -2.784939,-1.62217 -3.237445,-1.89713 -3.689661,-2.15382 -3.794553,-2.15382 -0.130709,0 -2.739755,1.47596 -2.739755,1.5499 0,0.0275 0.253558,0.20842 0.563449,0.40213 l 0.56345,0.35221 0.834617,-0.11047 c 1.053391,-0.13942 2.054343,0.0227 2.889916,0.46805 0.676449,0.36055 1.049712,0.79289 1.236988,1.43279 0.202409,0.69159 0.05798,1.24133 -0.484684,1.84491 -0.819933,0.91196 -2.267758,1.32685 -3.830598,1.09769 z"
         style="fill:#ff0000;stroke-width:0.0913888"
         inkscape:connector-curvature="0" />
    </g>
    <path
       style="opacity:1;fill:none;fill-opacity:1;stroke:#7f7f7f;stroke-width:0.631582;stroke-miterlimit:4;stroke-dasharray:none;stroke-dashoffset:0;stroke-opacity:1"
       d="m -78.403718,117.29768 c -1.07033,2.11036 -3.260719,3.55666 -5.788911,3.55666 -3.582605,0 -6.486873,-2.90427 -6.486873,-6.48687 0,-3.5826 2.904276,-6.48688 6.486873,-6.48688 2.284152,0 4.292564,1.18057 5.448352,2.9648 0.493196,0.76137 0.02906,0.0322 0.02906,0.0322 l 0.409386,0.664 0.765185,-0.60287 c 1.17592,-0.92647 1.506697,-0.83106 1.586223,0.45751 l 0.04651,0.75372 6.326049,0.0465 c 7.00946,0.0516 6.388604,-0.004 7.364231,0.66299 0.404679,0.2768 0.811492,0.83155 0.759636,1.03587 -0.01663,0.0656 -0.600823,0.6521 -1.298181,1.30337 l -1.267928,1.18413 h -0.736245 -0.736252 l -0.551306,-0.46616 -0.551308,-0.46615 -0.795439,0.79176 -0.795443,0.79176 -0.556337,-5.9e-4 -0.556338,-5.9e-4 -0.790757,-0.73611 -0.790757,-0.73612 -0.860196,0.85091 -0.860202,0.85091 -0.630612,-0.62579 -0.63062,-0.62577 h -1.008853 -1.00885 l 0.06033,0.95354 c 0.06334,1.00106 -0.02416,1.38661 -0.328002,1.44512 -0.08012,0.0154 -0.555397,-0.20398 -1.056179,-0.48759 -0.500773,-0.2836 -0.948034,-0.51564 -0.99391,-0.51564 -0.04587,0 -0.202348,-0.10845 -0.202348,-0.10845 z"
       id="path1000-4-4"
       inkscape:connector-curvature="0"
       sodipodi:nodetypes="cssscccsccsscccccccccccccccccccccccc" />
    <g
       aria-label="FabZero"
       transform="matrix(0.06742823,0,0,0.06742823,-66.118779,175.66852)"
       style="font-style:normal;font-variant:normal;font-weight:normal;font-stretch:normal;font-size:40px;line-height:1;font-family:sans-serif;-inkscape-font-specification:sans-serif;letter-spacing:0px;word-spacing:0px;fill:#7f7f7f;fill-opacity:1;stroke:none"
       id="flowRoot899-4-8-5">
      <path
         d="m -103.88031,-920.54299 -3.8,-8.2 h -22.84 v 3.28 l 0.8,0.08 c 2.24,0.24 2.72,0.8 2.72,3.36 v 13.8 c 0,2.56 -0.48,3.12 -2.72,3.36 l -0.8,0.08 v 3.28 h 14.32 v -3.28 l -1.08,-0.08 c -0.92,-0.08 -1.88,-0.4 -2.24,-0.84 -0.36,-0.4 -0.48,-1 -0.48,-2.52 v -5.64 h 0.92 c 1.88,0 2.36,0.08 2.96,0.52 0.72,0.56 1.16,1.84 1.36,4.16 h 2.96 v -12.96 h -2.96 c -0.2,2 -0.48,3.04 -1,3.6 -0.52,0.6 -1.12,0.76 -3.08,0.76 h -1.16 v -3.76 c 0,-1.84 0.08,-2.28 0.36,-2.68 0.36,-0.48 1.36,-0.72 3,-0.72 4.16,0 6.88,1.56 10,5.8 z"
         style="font-style:normal;font-variant:normal;font-weight:bold;font-stretch:normal;font-family:'URW Bookman L';-inkscape-font-specification:'URW Bookman L Bold';fill:#7f7f7f;fill-opacity:1"
         id="path2129"
         inkscape:connector-curvature="0" />
      <path
         d="m -82.852812,-905.90299 c -0.08,0.08 -0.16,0.16 -0.28,0.24 -0.32,0.32 -0.52,0.44 -0.72,0.44 -0.28,0 -0.6,-0.2 -0.680001,-0.44 -0.119999,-0.28 -0.119999,-0.28 -0.16,-1.8 v -7.88 c 0,-2.12 -0.439999,-3.4 -1.519999,-4.44 -1.4,-1.36 -4.08,-2.16 -7.2,-2.16 -5.16,0 -8.879998,2.32 -8.879998,5.52 0,1.68 1.28,3 2.959997,3 0.960001,0 1.960001,-0.4 2.52,-1.08 0.400001,-0.48 0.56,-1.04 0.56,-2 0,-0.56 0.120001,-0.84 0.36,-1.04 0.480001,-0.44 1.36,-0.72 2.2,-0.72 1.72,0 2.520001,0.72 2.520001,2.16 v 2.04 c -2.2,0.2 -4.12,0.56 -5.84,1.08 -3.999998,1.2 -5.999998,3.32 -5.999998,6.36 0,3.28 2.56,5.48 6.359998,5.48 2.24,0 4.36,-0.68 6.36,-2.04 0.959999,1.24 2.759999,2.04 4.599999,2.04 1.800001,0 3.280001,-0.6 5.08,-2.04 z m -8.32,-0.96 c -1.04,0.96 -2.04,1.4 -3.160001,1.4 -1.119999,0 -1.879999,-0.8 -1.879999,-2 0,-1.68 1.56,-2.76 5.04,-3.4 z"
         style="font-style:normal;font-variant:normal;font-weight:bold;font-stretch:normal;font-family:'URW Bookman L';-inkscape-font-specification:'URW Bookman L Bold';fill:#7f7f7f;fill-opacity:1"
         id="path2131"
         inkscape:connector-curvature="0" />
      <path
         d="m -72.289687,-930.46299 h -2.6 c -2.160001,0.96 -5.12,1.72 -6.84,1.72 v 3.24 l 0.599999,0.08 c 1.960001,0.24 2.36,0.8 2.36,3.24 v 20.68 h 4.72 l 0.72,-1.28 c 2.64,1.32 3.72,1.64 5.72,1.64 5.48,0 9.400001,-4.28 9.400001,-10.28 0,-6.16 -3.8,-10.52 -9.200001,-10.52 -1.519999,0 -2.92,0.32 -4.879999,1.16 z m 0,13.92 c 1,-1.04 2.08,-1.52 3.439999,-1.52 2.480001,0 3.840001,2.16 3.840001,6.12 0,4.36 -1.400001,6.72 -4.040001,6.72 -1.319999,0 -2.399999,-0.48 -3.239999,-1.4 z"
         style="font-style:normal;font-variant:normal;font-weight:bold;font-stretch:normal;font-family:'URW Bookman L';-inkscape-font-specification:'URW Bookman L Bold';fill:#7f7f7f;fill-opacity:1"
         id="path2133"
         inkscape:connector-curvature="0" />
      <path
         d="m -33.425313,-928.74299 h -19.319999 l -3.96,8.72 2.76,1.16 c 2.159999,-4.2 5.6,-6.4 10.079999,-6.4 0.560001,0 1.08,0.04 2.400001,0.16 l -15.24,21 0.64,2.6 h 20.96 l 3.559999,-9.36 -2.96,-0.96 c -0.759999,2.04 -1.559999,3.24 -2.879999,4.36 -1.8,1.6 -4.6,2.48 -7.64,2.48 -0.96,0 -1.64,-0.08 -2.840001,-0.28 l 15.120001,-20.92 z"
         style="font-style:normal;font-variant:normal;font-weight:bold;font-stretch:normal;font-family:'URW Bookman L';-inkscape-font-specification:'URW Bookman L Bold';fill:#7f7f7f;fill-opacity:1"
         id="path2135"
         inkscape:connector-curvature="0" />
      <path
         d="m -9.8803125,-911.66299 c 0,-2.84 -0.2800005,-4.48 -1.0400005,-5.84 -1.56,-2.76 -4.799999,-4.44 -8.64,-4.44 -6.159999,0 -10.52,4.28 -10.52,10.32 0,6.08 4.560001,10.48 10.88,10.48 3.040001,0 5.800001,-1.08 7.56,-3 0.760001,-0.8 1.240001,-1.44 2.2400005,-3.08 l -3.3599995,-1.64 c -1.560001,2.32 -3.200001,3.4 -5.24,3.4 -3.12,0 -4.880001,-2.28 -4.84,-6.2 z m -12.7199995,-3.08 c 0.12,-2.2 1.2,-3.52 3,-3.52 1.8,0 2.56,1 2.64,3.52 z"
         style="font-style:normal;font-variant:normal;font-weight:bold;font-stretch:normal;font-family:'URW Bookman L';-inkscape-font-specification:'URW Bookman L Bold';fill:#7f7f7f;fill-opacity:1"
         id="path2137"
         inkscape:connector-curvature="0" />
      <path
         d="m 1.4828125,-921.58299 h -2.48 l -6.24,1.16 v 3.24 l 0.72,0.08 c 1.76,0.2 2.2,0.84 2.2,3.28 v 5.76 c 0,2.28 -0.24,2.68 -1.76,3.04 l -1.16,0.28 v 3.24 h 12.32 v -3.24 l -1.16,-0.28 c -1.52,-0.36 -1.76,-0.76 -1.76,-3.04 v -7.76 c 0.56,-0.48 0.96,-0.64 1.6,-0.64 0.48,0 0.48,0 1.4,0.6 0.72,0.48 1.28,0.64 2.04,0.64 1.8,0 3.1600005,-1.28 3.1600005,-3.04 0,-2.08 -1.5600005,-3.68 -3.6000005,-3.68 -1.64,0 -2.64,0.44 -5.28,2.32 z"
         style="font-style:normal;font-variant:normal;font-weight:bold;font-stretch:normal;font-family:'URW Bookman L';-inkscape-font-specification:'URW Bookman L Bold';fill:#7f7f7f;fill-opacity:1"
         id="path2139"
         inkscape:connector-curvature="0" />
      <path
         d="m 22.440312,-921.94299 c -6.479999,0 -10.879999,4.08 -10.879999,10.12 0,6.56 4.28,10.68 11.079999,10.68 6.720001,0 11.08,-4.04 11.08,-10.28 0,-6.44 -4.4,-10.52 -11.28,-10.52 z m 0.24,4.08 c 2.52,0 3.76,2.2 3.76,6.6 0,4.08 -1.32,6.24 -3.76,6.24 -2.52,0 -3.84,-2.16 -3.84,-6.32 0,-4.32 1.28,-6.52 3.84,-6.52 z"
         style="font-style:normal;font-variant:normal;font-weight:bold;font-stretch:normal;font-family:'URW Bookman L';-inkscape-font-specification:'URW Bookman L Bold';fill:#7f7f7f;fill-opacity:1"
         id="path2141"
         inkscape:connector-curvature="0" />
    </g>
  </g>
</svg>
