<?xml version="1.0" encoding="UTF-8" standalone="no"?>
<!-- Created with Inkscape (http://www.inkscape.org/) -->

<svg
   xmlns:dc="http://purl.org/dc/elements/1.1/"
   xmlns:cc="http://creativecommons.org/ns#"
   xmlns:rdf="http://www.w3.org/1999/02/22-rdf-syntax-ns#"
   xmlns:svg="http://www.w3.org/2000/svg"
   xmlns="http://www.w3.org/2000/svg"
   xmlns:sodipodi="http://sodipodi.sourceforge.net/DTD/sodipodi-0.dtd"
   xmlns:inkscape="http://www.inkscape.org/namespaces/inkscape"
   width="420.04166mm"
   height="205.35118mm"
   viewBox="0 0 420.04166 205.35118"
   version="1.1"
   id="svg1554"
   inkscape:version="0.92.3 (2405546, 2018-03-11)"
   sodipodi:docname="logo.svg"
   inkscape:export-filename="/home/amy/Documents/Ingegno/FabZero/logo.png"
   inkscape:export-xdpi="96"
   inkscape:export-ydpi="96">
  <defs
     id="defs1548" />
  <sodipodi:namedview
     id="base"
     pagecolor="#ffffff"
     bordercolor="#666666"
     borderopacity="1.0"
     inkscape:pageopacity="0.0"
     inkscape:pageshadow="2"
     inkscape:zoom="0.24748737"
     inkscape:cx="389.78042"
     inkscape:cy="517.30355"
     inkscape:document-units="mm"
     inkscape:current-layer="layer1"
     showgrid="false"
     fit-margin-top="0"
     fit-margin-left="0"
     fit-margin-right="0"
     fit-margin-bottom="0"
     inkscape:window-width="1920"
     inkscape:window-height="1015"
     inkscape:window-x="0"
     inkscape:window-y="0"
     inkscape:window-maximized="1" />
  <metadata
     id="metadata1551">
    <rdf:RDF>
      <cc:Work
         rdf:about="">
        <dc:format>image/svg+xml</dc:format>
        <dc:type
           rdf:resource="http://purl.org/dc/dcmitype/StillImage" />
        <dc:title></dc:title>
      </cc:Work>
    </rdf:RDF>
  </metadata>
  <g
     inkscape:label="Layer 1"
     inkscape:groupmode="layer"
     id="layer1"
     transform="translate(92.848206,-108.14584)">
    <path
       inkscape:connector-curvature="0"
       style="fill:#008000;stroke-width:0.63106918"
       d="m 10.493911,282.8913 c -10.4789052,-1.62868 -20.3210062,-5.46881 -29.259604,-11.41636 -29.592302,-19.69004 -40.473601,-57.8686 -25.830001,-90.62792 1.052499,-2.35454 2.0843,-4.20043 2.2929,-4.10194 0.208701,0.0985 1.582,0.88896 3.052001,1.75668 l 2.672699,1.57768 0.167201,32.16656 0.1672,32.16656 8.519399,4.89835 c 4.685702,2.69406 8.732401,4.90299 8.9927,4.90873 0.260401,0.005 0.473401,-2.79705 0.473401,-6.22836 0,-6.16997 -0.027,-6.27961 -2.420401,-9.93935 -6.486998,-9.91831 -7.9127,-20.11221 -3.9101,-27.9579 5.4751,-10.73222 21.5446008,-7.34193 30.8016018,6.49845 7.6916032,11.49988 8.2489032,24.98096 1.295203,31.33218 -1.136903,1.03835 -2.429705,1.8879 -2.873004,1.8879 -0.616299,0 -0.8059,2.12076 -0.8059,9.01082 v 9.01083 l 7.5727942,4.35515 7.57281,4.35516 v 3.67288 c 0,4.26356 0.5769,4.08169 -8.4808,2.6739 z"
       id="path859-8-9-3" />
    <path
       inkscape:connector-curvature="0"
       style="fill:#0000ff;stroke-width:0.63106918"
       d="m 24.023311,280.09929 v -3.52164 l 19.3689,-11.33158 c 10.6528,-6.23236 23.077,-13.49182 27.6092,-16.13219 l 8.2404,-4.80061 0.1722,-11.13387 c 0.095,-6.12362 -0.047,-11.13104 -0.3155,-11.1276 -0.2683,0.002 -2.6124,1.21616 -5.2091,2.69488 -4.5692,2.60202 -4.7724,2.82055 -6.3107,6.78666 -2.3369,6.0252 -4.623,9.56516 -8.3288,12.89699 -4.6748,4.20308 -8.8062,6.14363 -13.7704,6.46812 -8.2799,0.54124 -13.21091,-4.33514 -13.7469,-13.59454 -0.3674,-6.3465 0.6424,-10.99156 3.7307,-17.16181 7.1384,-14.26212 21.3725,-20.99762 29.6517,-14.03109 l 2.023,1.70222 6.0518,-3.18791 6.0519,-3.18788 0.1739,-10.679 0.1741,-10.679 2.4753,-1.4199 c 1.3614,-0.78095 2.736,-1.41993 3.0546,-1.41993 0.8451,0 4.3244,8.088 6.0546,14.07464 5.4677,18.91928 2.7201,39.8995 -7.4683,57.02742 -11.5866,19.47852 -32.5672,32.81738 -54.792,34.83524 l -4.8908,0.44404 z"
       id="path857-5-3-0" />
    <path
       inkscape:connector-curvature="0"
       style="fill:#ff0000;stroke-width:0.63106918"
       d="M 14.811001,193.01824 C 5.9715068,191.72213 -1.8257932,187.2382 -4.3663942,181.9901 c -0.806198,-1.66545 -1.2706,-3.9067 -1.2706,-6.13258 v -3.50793 l -5.4121998,-3.23461 c -2.9767,-1.77903 -5.516399,-3.23461 -5.643798,-3.23461 -0.127403,0 -3.938202,2.27185 -8.468501,5.04856 -4.530301,2.77671 -8.527801,5.04856 -8.8833,5.04856 -0.9207,0 -5.669899,-3.07242 -5.669899,-3.66806 0,-1.13753 6.0247,-8.6491 10.459799,-13.04127 10.267699,-10.16813 23.9953008,-17.16175 38.5594038,-19.6443 8.6588002,-1.47595 21.7329002,-0.95668 29.8963002,1.18742 16.5007,4.33385 30.3523,13.57046 40.3955,26.9367 4.0581,5.40085 4.0408,5.22108 0.6847,7.10766 l -2.9657,1.66705 -10.396,-6.02425 c -5.7178,-3.31335 -14.3717,-8.35406 -19.2309,-11.20157 -22.3556,-13.10035 -25.4783,-14.87284 -26.20261,-14.87284 -0.90259,0 -18.9188942,10.19195 -18.9188942,10.70256 0,0.18962 1.750899,1.43918 3.890801,2.77684 l 3.8908032,2.43213 5.7633,-0.76282 c 7.274,-0.96274 14.1859,0.1567 19.9558,3.23199 4.6711,2.4897 7.2486,5.47514 8.5418,9.89388 1.3977,4.77568 0.4004,8.5718 -3.3469,12.73974 -5.6619,6.29735 -15.6596,9.16229 -26.45151,7.57989 z"
       id="path853-1-1-0" />
    <path
       style="opacity:1;fill:none;fill-opacity:1;stroke:#000000;stroke-width:3.98900008;stroke-miterlimit:4;stroke-dasharray:none;stroke-dashoffset:0;stroke-opacity:1"
       d="m 89.615211,245.35748 c -12.6151,24.87301 -38.4314,41.9194 -68.2291,41.9194 -42.225204,0 -76.455405,-34.23027 -76.455405,-76.45542 0,-42.22516 34.230299,-76.45541 76.455405,-76.45541 26.9214,0 50.5929,13.91431 64.2152,34.94364 5.8129,8.97359 0.3426,0.37956 0.3426,0.37956 l 4.8251,7.82606 9.0186,-7.10548 c 13.859599,-10.91954 17.758199,-9.79512 18.695499,5.39217 l 0.5482,8.8835 74.5599,0.54822 c 82.6147,0.60749 75.29719,-0.0513 86.79609,7.81409 4.76962,3.26247 9.5644,9.80079 8.95321,12.20899 -0.196,0.77297 -7.08141,7.68575 -15.30059,15.36171 l -14.94401,13.95627 h -8.67751 -8.6776 l -6.49779,-5.49411 -6.4978,-5.49413 -9.37519,9.33175 -9.37522,9.33177 -6.55709,-0.008 -6.55709,-0.008 -9.32,-8.67599 -9.32,-8.676 -10.13841,10.02901 -10.1385,10.02897 -7.4325,-7.37565 -7.4326,-7.3756 h -11.8905 -11.8905 l 0.7111,11.23881 c 0.7465,11.79863 -0.2847,16.34271 -3.8659,17.03234 -0.9443,0.18192 -6.546,-2.40419 -12.4483,-5.74676 -5.902199,-3.34261 -11.173699,-6.07744 -11.714399,-6.07744 -0.5407,0 -2.3849,-1.27828 -2.3849,-1.27828 z"
       id="path1000-4-4"
       inkscape:connector-curvature="0"
       sodipodi:nodetypes="cssscccsccsscccccccccccccccccccccccc" />
    <g
       aria-label="FabZero"
       transform="matrix(0.71553298,0,0,0.71553298,240.73192,862.76992)"
       style="font-style:normal;font-variant:normal;font-weight:normal;font-stretch:normal;font-size:40px;line-height:1;font-family:sans-serif;-inkscape-font-specification:sans-serif;letter-spacing:0px;word-spacing:0px;fill:#000000;fill-opacity:1;stroke:none"
       id="flowRoot899-4-8-5">
      <path
         d="m -103.88031,-920.54299 -3.8,-8.2 h -22.84 v 3.28 l 0.8,0.08 c 2.24,0.24 2.72,0.8 2.72,3.36 v 13.8 c 0,2.56 -0.48,3.12 -2.72,3.36 l -0.8,0.08 v 3.28 h 14.32 v -3.28 l -1.08,-0.08 c -0.92,-0.08 -1.88,-0.4 -2.24,-0.84 -0.36,-0.4 -0.48,-1 -0.48,-2.52 v -5.64 h 0.92 c 1.88,0 2.36,0.08 2.96,0.52 0.72,0.56 1.16,1.84 1.36,4.16 h 2.96 v -12.96 h -2.96 c -0.2,2 -0.48,3.04 -1,3.6 -0.52,0.6 -1.12,0.76 -3.08,0.76 h -1.16 v -3.76 c 0,-1.84 0.08,-2.28 0.36,-2.68 0.36,-0.48 1.36,-0.72 3,-0.72 4.16,0 6.88,1.56 10,5.8 z"
         style="font-style:normal;font-variant:normal;font-weight:bold;font-stretch:normal;font-family:'URW Bookman L';-inkscape-font-specification:'URW Bookman L Bold'"
         id="path2129"
         inkscape:connector-curvature="0" />
      <path
         d="m -82.852812,-905.90299 c -0.08,0.08 -0.16,0.16 -0.28,0.24 -0.32,0.32 -0.52,0.44 -0.72,0.44 -0.28,0 -0.6,-0.2 -0.680001,-0.44 -0.119999,-0.28 -0.119999,-0.28 -0.16,-1.8 v -7.88 c 0,-2.12 -0.439999,-3.4 -1.519999,-4.44 -1.4,-1.36 -4.08,-2.16 -7.2,-2.16 -5.16,0 -8.879998,2.32 -8.879998,5.52 0,1.68 1.28,3 2.959997,3 0.960001,0 1.960001,-0.4 2.52,-1.08 0.400001,-0.48 0.56,-1.04 0.56,-2 0,-0.56 0.120001,-0.84 0.36,-1.04 0.480001,-0.44 1.36,-0.72 2.2,-0.72 1.72,0 2.520001,0.72 2.520001,2.16 v 2.04 c -2.2,0.2 -4.12,0.56 -5.84,1.08 -3.999998,1.2 -5.999998,3.32 -5.999998,6.36 0,3.28 2.56,5.48 6.359998,5.48 2.24,0 4.36,-0.68 6.36,-2.04 0.959999,1.24 2.759999,2.04 4.599999,2.04 1.800001,0 3.280001,-0.6 5.08,-2.04 z m -8.32,-0.96 c -1.04,0.96 -2.04,1.4 -3.160001,1.4 -1.119999,0 -1.879999,-0.8 -1.879999,-2 0,-1.68 1.56,-2.76 5.04,-3.4 z"
         style="font-style:normal;font-variant:normal;font-weight:bold;font-stretch:normal;font-family:'URW Bookman L';-inkscape-font-specification:'URW Bookman L Bold'"
         id="path2131"
         inkscape:connector-curvature="0" />
      <path
         d="m -72.289687,-930.46299 h -2.6 c -2.160001,0.96 -5.12,1.72 -6.84,1.72 v 3.24 l 0.599999,0.08 c 1.960001,0.24 2.36,0.8 2.36,3.24 v 20.68 h 4.72 l 0.72,-1.28 c 2.64,1.32 3.72,1.64 5.72,1.64 5.48,0 9.400001,-4.28 9.400001,-10.28 0,-6.16 -3.8,-10.52 -9.200001,-10.52 -1.519999,0 -2.92,0.32 -4.879999,1.16 z m 0,13.92 c 1,-1.04 2.08,-1.52 3.439999,-1.52 2.480001,0 3.840001,2.16 3.840001,6.12 0,4.36 -1.400001,6.72 -4.040001,6.72 -1.319999,0 -2.399999,-0.48 -3.239999,-1.4 z"
         style="font-style:normal;font-variant:normal;font-weight:bold;font-stretch:normal;font-family:'URW Bookman L';-inkscape-font-specification:'URW Bookman L Bold'"
         id="path2133"
         inkscape:connector-curvature="0" />
      <path
         d="m -33.425313,-928.74299 h -19.319999 l -3.96,8.72 2.76,1.16 c 2.159999,-4.2 5.6,-6.4 10.079999,-6.4 0.560001,0 1.08,0.04 2.400001,0.16 l -15.24,21 0.64,2.6 h 20.96 l 3.559999,-9.36 -2.96,-0.96 c -0.759999,2.04 -1.559999,3.24 -2.879999,4.36 -1.8,1.6 -4.6,2.48 -7.64,2.48 -0.96,0 -1.64,-0.08 -2.840001,-0.28 l 15.120001,-20.92 z"
         style="font-style:normal;font-variant:normal;font-weight:bold;font-stretch:normal;font-family:'URW Bookman L';-inkscape-font-specification:'URW Bookman L Bold'"
         id="path2135"
         inkscape:connector-curvature="0" />
      <path
         d="m -9.8803125,-911.66299 c 0,-2.84 -0.2800005,-4.48 -1.0400005,-5.84 -1.56,-2.76 -4.799999,-4.44 -8.64,-4.44 -6.159999,0 -10.52,4.28 -10.52,10.32 0,6.08 4.560001,10.48 10.88,10.48 3.040001,0 5.800001,-1.08 7.56,-3 0.760001,-0.8 1.240001,-1.44 2.2400005,-3.08 l -3.3599995,-1.64 c -1.560001,2.32 -3.200001,3.4 -5.24,3.4 -3.12,0 -4.880001,-2.28 -4.84,-6.2 z m -12.7199995,-3.08 c 0.12,-2.2 1.2,-3.52 3,-3.52 1.8,0 2.56,1 2.64,3.52 z"
         style="font-style:normal;font-variant:normal;font-weight:bold;font-stretch:normal;font-family:'URW Bookman L';-inkscape-font-specification:'URW Bookman L Bold'"
         id="path2137"
         inkscape:connector-curvature="0" />
      <path
         d="m 1.4828125,-921.58299 h -2.48 l -6.24,1.16 v 3.24 l 0.72,0.08 c 1.76,0.2 2.2,0.84 2.2,3.28 v 5.76 c 0,2.28 -0.24,2.68 -1.76,3.04 l -1.16,0.28 v 3.24 h 12.32 v -3.24 l -1.16,-0.28 c -1.52,-0.36 -1.76,-0.76 -1.76,-3.04 v -7.76 c 0.56,-0.48 0.96,-0.64 1.6,-0.64 0.48,0 0.48,0 1.4,0.6 0.72,0.48 1.28,0.64 2.04,0.64 1.8,0 3.1600005,-1.28 3.1600005,-3.04 0,-2.08 -1.5600005,-3.68 -3.6000005,-3.68 -1.64,0 -2.64,0.44 -5.28,2.32 z"
         style="font-style:normal;font-variant:normal;font-weight:bold;font-stretch:normal;font-family:'URW Bookman L';-inkscape-font-specification:'URW Bookman L Bold'"
         id="path2139"
         inkscape:connector-curvature="0" />
      <path
         d="m 22.440312,-921.94299 c -6.479999,0 -10.879999,4.08 -10.879999,10.12 0,6.56 4.28,10.68 11.079999,10.68 6.720001,0 11.08,-4.04 11.08,-10.28 0,-6.44 -4.4,-10.52 -11.28,-10.52 z m 0.24,4.08 c 2.52,0 3.76,2.2 3.76,6.6 0,4.08 -1.32,6.24 -3.76,6.24 -2.52,0 -3.84,-2.16 -3.84,-6.32 0,-4.32 1.28,-6.52 3.84,-6.52 z"
         style="font-style:normal;font-variant:normal;font-weight:bold;font-stretch:normal;font-family:'URW Bookman L';-inkscape-font-specification:'URW Bookman L Bold'"
         id="path2141"
         inkscape:connector-curvature="0" />
    </g>
    <g
       aria-label="Inclusieve KET's"
       transform="matrix(0.47270607,0,0,0.47270607,226.61923,614.76903)"
       style="font-style:normal;font-weight:normal;font-size:40px;line-height:1;font-family:sans-serif;letter-spacing:0px;word-spacing:0px;fill:#000000;fill-opacity:1;stroke:none"
       id="flowRoot907-1-7-9">
      <path
         d="m -206.18555,-747.05273 h 3.94532 v 29.16015 h -3.94532 z"
         style="font-style:normal;font-variant:normal;font-weight:normal;font-stretch:normal;font-family:Gubbi;-inkscape-font-specification:Gubbi"
         id="path2144"
         inkscape:connector-curvature="0" />
      <path
         d="m -176.36133,-731.0957 v 13.20312 h -3.59375 v -13.08594 q 0,-3.10546 -1.21094,-4.64843 -1.21093,-1.54297 -3.63281,-1.54297 -2.91015,0 -4.58984,1.85547 -1.67969,1.85547 -1.67969,5.05859 v 12.36328 h -3.61328 v -21.875 h 3.61328 v 3.39844 q 1.28906,-1.97266 3.02734,-2.94922 1.75782,-0.97656 4.04297,-0.97656 3.76953,0 5.70313,2.34375 1.93359,2.32422 1.93359,6.85547 z"
         style="font-style:normal;font-variant:normal;font-weight:normal;font-stretch:normal;font-family:Gubbi;-inkscape-font-specification:Gubbi"
         id="path2146"
         inkscape:connector-curvature="0" />
      <path
         d="m -153.41211,-738.92773 v 3.35937 q -1.52344,-0.83984 -3.06641,-1.25 -1.52343,-0.42969 -3.08593,-0.42969 -3.4961,0 -5.42969,2.22657 -1.93359,2.20703 -1.93359,6.21093 0,4.00391 1.93359,6.23047 1.93359,2.20703 5.42969,2.20703 1.5625,0 3.08593,-0.41015 1.54297,-0.42969 3.06641,-1.26953 v 3.32031 q -1.50391,0.70312 -3.125,1.05469 -1.60156,0.35156 -3.41797,0.35156 -4.9414,0 -7.85156,-3.10547 -2.91016,-3.10547 -2.91016,-8.37891 0,-5.35156 2.92969,-8.41797 2.94922,-3.0664 8.06641,-3.0664 1.66015,0 3.24218,0.35156 1.58204,0.33203 3.06641,1.01563 z"
         style="font-style:normal;font-variant:normal;font-weight:normal;font-stretch:normal;font-family:Gubbi;-inkscape-font-specification:Gubbi"
         id="path2148"
         inkscape:connector-curvature="0" />
      <path
         d="m -147.12305,-748.2832 h 3.59375 v 30.39062 h -3.59375 z"
         style="font-style:normal;font-variant:normal;font-weight:normal;font-stretch:normal;font-family:Gubbi;-inkscape-font-specification:Gubbi"
         id="path2150"
         inkscape:connector-curvature="0" />
      <path
         d="m -136.40039,-726.52539 v -13.24219 h 3.59375 v 13.10547 q 0,3.10547 1.21094,4.66797 1.21093,1.54297 3.63281,1.54297 2.91016,0 4.58984,-1.85547 1.69922,-1.85547 1.69922,-5.05859 v -12.40235 h 3.59375 v 21.875 h -3.59375 v -3.35937 q -1.30859,1.99218 -3.04687,2.96875 -1.71875,0.95703 -4.00391,0.95703 -3.76953,0 -5.72266,-2.34375 -1.95312,-2.34375 -1.95312,-6.85547 z m 9.04297,-13.76953 z"
         style="font-style:normal;font-variant:normal;font-weight:normal;font-stretch:normal;font-family:Gubbi;-inkscape-font-specification:Gubbi"
         id="path2152"
         inkscape:connector-curvature="0" />
      <path
         d="m -96.693359,-739.12305 v 3.39844 q -1.523438,-0.78125 -3.164063,-1.17187 -1.640628,-0.39063 -3.398438,-0.39063 -2.67578,0 -4.02344,0.82031 -1.32812,0.82032 -1.32812,2.46094 0,1.25 0.95703,1.97266 0.95703,0.70312 3.84766,1.34765 l 1.23046,0.27344 q 3.828129,0.82031 5.429692,2.32422 1.621094,1.48437 1.621094,4.16016 0,3.04687 -2.421875,4.82421 -2.402341,1.77735 -6.621091,1.77735 -1.75782,0 -3.67188,-0.35156 -1.89453,-0.33204 -4.0039,-1.01563 v -3.71094 q 1.99218,1.03516 3.92578,1.5625 1.93359,0.50782 3.82812,0.50782 2.53906,0 3.90625,-0.85938 1.367189,-0.87891 1.367189,-2.46094 0,-1.46484 -0.996089,-2.24609 -0.97657,-0.78125 -4.31641,-1.50391 l -1.25,-0.29297 q -3.33984,-0.70312 -4.82422,-2.14843 -1.48437,-1.46485 -1.48437,-4.00391 0,-3.08594 2.1875,-4.76562 2.1875,-1.67969 6.21093,-1.67969 1.99219,0 3.750003,0.29297 1.757813,0.29297 3.242188,0.8789 z"
         style="font-style:normal;font-variant:normal;font-weight:normal;font-stretch:normal;font-family:Gubbi;-inkscape-font-specification:Gubbi"
         id="path2154"
         inkscape:connector-curvature="0" />
      <path
         d="m -89.779297,-739.76758 h 3.59375 v 21.875 h -3.59375 z m 0,-8.51562 h 3.59375 v 4.55078 h -3.59375 z"
         style="font-style:normal;font-variant:normal;font-weight:normal;font-stretch:normal;font-family:Gubbi;-inkscape-font-specification:Gubbi"
         id="path2156"
         inkscape:connector-curvature="0" />
      <path
         d="m -59.974609,-729.72852 v 1.75782 h -16.523438 q 0.234375,3.71093 2.226563,5.66406 2.011718,1.93359 5.585937,1.93359 2.070313,0 4.003906,-0.50781 1.953125,-0.50781 3.867188,-1.52344 v 3.39844 q -1.933594,0.82031 -3.964844,1.25 -2.03125,0.42969 -4.121094,0.42969 -5.234375,0 -8.300781,-3.04688 -3.046875,-3.04687 -3.046875,-8.24218 0,-5.3711 2.890625,-8.51563 2.910156,-3.16406 7.832031,-3.16406 4.414063,0 6.972657,2.85156 2.578125,2.83203 2.578125,7.71484 z m -3.59375,-1.05468 q -0.03906,-2.94922 -1.660157,-4.70703 -1.601562,-1.75782 -4.257812,-1.75782 -3.007813,0 -4.824219,1.69922 -1.796875,1.69922 -2.070312,4.78516 z"
         style="font-style:normal;font-variant:normal;font-weight:normal;font-stretch:normal;font-family:Gubbi;-inkscape-font-specification:Gubbi"
         id="path2158"
         inkscape:connector-curvature="0" />
      <path
         d="m -56.654297,-739.76758 h 3.808594 l 6.835937,18.35938 6.835938,-18.35938 h 3.808594 l -8.203125,21.875 h -4.882813 z"
         style="font-style:normal;font-variant:normal;font-weight:normal;font-stretch:normal;font-family:Gubbi;-inkscape-font-specification:Gubbi"
         id="path2160"
         inkscape:connector-curvature="0" />
      <path
         d="m -11.693359,-729.72852 v 1.75782 h -16.523438 q 0.234375,3.71093 2.226563,5.66406 2.011718,1.93359 5.585937,1.93359 2.070313,0 4.003906,-0.50781 1.953125,-0.50781 3.867188,-1.52344 v 3.39844 q -1.933594,0.82031 -3.964844,1.25 -2.03125,0.42969 -4.121094,0.42969 -5.234375,0 -8.300781,-3.04688 -3.046875,-3.04687 -3.046875,-8.24218 0,-5.3711 2.890625,-8.51563 2.910156,-3.16406 7.832031,-3.16406 4.414063,0 6.972657,2.85156 2.578125,2.83203 2.578125,7.71484 z m -3.59375,-1.05468 q -0.03906,-2.94922 -1.660157,-4.70703 -1.601562,-1.75782 -4.257812,-1.75782 -3.007813,0 -4.824219,1.69922 -1.796875,1.69922 -2.070312,4.78516 z"
         style="font-style:normal;font-variant:normal;font-weight:normal;font-stretch:normal;font-family:Gubbi;-inkscape-font-specification:Gubbi"
         id="path2162"
         inkscape:connector-curvature="0" />
      <path
         d="m 7.0957031,-747.05273 h 3.9453129 v 12.32421 l 13.085937,-12.32421 h 5.078125 l -14.472656,13.59375 15.507812,15.5664 h -5.195312 l -14.003906,-14.04297 v 14.04297 H 7.0957031 Z"
         style="font-style:normal;font-variant:normal;font-weight:normal;font-stretch:normal;font-family:Gubbi;-inkscape-font-specification:Gubbi"
         id="path2164"
         inkscape:connector-curvature="0" />
      <path
         d="m 33.345703,-747.05273 h 18.4375 v 3.32031 H 37.291016 v 8.63281 h 13.886718 v 3.32031 H 37.291016 v 10.56641 h 14.84375 v 3.32031 H 33.345703 Z"
         style="font-style:normal;font-variant:normal;font-weight:normal;font-stretch:normal;font-family:Gubbi;-inkscape-font-specification:Gubbi"
         id="path2166"
         inkscape:connector-curvature="0" />
      <path
         d="m 54.615234,-747.05273 h 24.667969 v 3.32031 H 68.931641 v 25.83984 h -3.964844 v -25.83984 H 54.615234 Z"
         style="font-style:normal;font-variant:normal;font-weight:normal;font-stretch:normal;font-family:Gubbi;-inkscape-font-specification:Gubbi"
         id="path2168"
         inkscape:connector-curvature="0" />
      <path
         d="m 90.220703,-740.72461 q 0,5.41016 -5,8.14453 l -0.722656,-0.625 q 3.535156,-2.46094 3.535156,-5.76172 -0.3125,0.0391 -0.703125,0.0391 -2.792969,0 -2.792969,-2.44141 0,-1.28906 0.878907,-2.08984 0.800781,-0.76172 1.894531,-0.76172 1.171875,0 1.992187,0.85937 0.917969,0.95703 0.917969,2.63672 z"
         style="font-style:normal;font-variant:normal;font-weight:normal;font-stretch:normal;font-family:Gubbi;-inkscape-font-specification:Gubbi"
         id="path2170"
         inkscape:connector-curvature="0" />
      <path
         d="m 108.93164,-739.12305 v 3.39844 q -1.52344,-0.78125 -3.16406,-1.17187 -1.64063,-0.39063 -3.39844,-0.39063 -2.675781,0 -4.023437,0.82031 -1.328125,0.82032 -1.328125,2.46094 0,1.25 0.957031,1.97266 0.957032,0.70312 3.847661,1.34765 l 1.23046,0.27344 q 3.82813,0.82031 5.42969,2.32422 1.6211,1.48437 1.6211,4.16016 0,3.04687 -2.42188,4.82421 -2.40234,1.77735 -6.62109,1.77735 -1.757816,0 -3.671878,-0.35156 -1.894531,-0.33204 -4.003906,-1.01563 v -3.71094 q 1.992187,1.03516 3.925781,1.5625 1.933594,0.50782 3.828123,0.50782 2.53906,0 3.90625,-0.85938 1.36719,-0.87891 1.36719,-2.46094 0,-1.46484 -0.99609,-2.24609 -0.97657,-0.78125 -4.31641,-1.50391 l -1.250001,-0.29297 q -3.339843,-0.70312 -4.824218,-2.14843 -1.484375,-1.46485 -1.484375,-4.00391 0,-3.08594 2.1875,-4.76562 2.1875,-1.67969 6.210934,-1.67969 1.99219,0 3.75,0.29297 1.75782,0.29297 3.24219,0.8789 z"
         style="font-style:normal;font-variant:normal;font-weight:normal;font-stretch:normal;font-family:Gubbi;-inkscape-font-specification:Gubbi"
         id="path2172"
         inkscape:connector-curvature="0" />
    </g>
  </g>
</svg>
