<?xml version="1.0" encoding="UTF-8" standalone="no"?>
<svg
   xmlns:dc="http://purl.org/dc/elements/1.1/"
   xmlns:cc="http://creativecommons.org/ns#"
   xmlns:rdf="http://www.w3.org/1999/02/22-rdf-syntax-ns#"
   xmlns:svg="http://www.w3.org/2000/svg"
   xmlns="http://www.w3.org/2000/svg"
   xmlns:sodipodi="http://sodipodi.sourceforge.net/DTD/sodipodi-0.dtd"
   xmlns:inkscape="http://www.inkscape.org/namespaces/inkscape"
   version="1.1"
   id="svg1554"
   x="0px"
   y="0px"
   viewBox="0 0 114.59688 51.585673"
   xml:space="preserve"
   sodipodi:docname="logo_fabzero-14.svg"
   width="114.59688"
   height="51.58567"
   inkscape:version="1.0.2 (1.0.2+r75+1)"><metadata
     id="metadata23"><rdf:RDF><cc:Work
         rdf:about=""><dc:format>image/svg+xml</dc:format><dc:type
           rdf:resource="http://purl.org/dc/dcmitype/StillImage" /><dc:title></dc:title></cc:Work></rdf:RDF></metadata><defs
     id="defs21" /><sodipodi:namedview
     pagecolor="#ffffff"
     bordercolor="#666666"
     borderopacity="1"
     objecttolerance="10"
     gridtolerance="10"
     guidetolerance="10"
     inkscape:pageopacity="0"
     inkscape:pageshadow="2"
     inkscape:window-width="1539"
     inkscape:window-height="941"
     id="namedview19"
     showgrid="false"
     inkscape:pagecheckerboard="true"
     fit-margin-top="0"
     fit-margin-left="0"
     fit-margin-right="0"
     fit-margin-bottom="0"
     inkscape:zoom="7.9033818"
     inkscape:cx="73.004399"
     inkscape:cy="25.079327"
     inkscape:window-x="0"
     inkscape:window-y="0"
     inkscape:window-maximized="0"
     inkscape:current-layer="svg1554" /><style
     type="text/css"
     id="style2">
	.st0{fill:#FFFFFF;stroke:#FFFFFF;stroke-miterlimit:10;}
	.st1{fill:none;stroke:#FFFFFF;stroke-width:11.3074;stroke-miterlimit:11.3386;}
	.st2{fill:#FFFFFF;stroke:#FFFFFF;stroke-width:0.7155;stroke-miterlimit:7.1553;}
	.st3{fill:#FFFFFF;stroke:#FFFFFF;stroke-width:0.4727;stroke-miterlimit:4.7271;}
	.st4{fill:#3C858A;}
	.st5{fill:none;stroke:#3C858A;stroke-width:11.307;stroke-miterlimit:11.3386;}
	.st6{fill:#FDCB45;}
	.st7{fill:none;stroke:#FDCB45;stroke-width:11.307;stroke-miterlimit:10;}
</style><path
     id="path859-8-9-3_16_"
     class="st0"
     d="M 22.208463,49.491458 C 18.763288,48.957862 15.526913,47.693472 12.592135,45.733086 2.8598078,39.260335 -0.71296544,26.709229 4.1009985,15.93291 c 0.3479973,-0.777194 0.6843948,-1.38039 0.7539943,-1.34559 0.069599,0.0348 0.5219961,0.289998 1.0091924,0.579995 l 0.8815934,0.521997 0.058,10.57912 0.058,10.579121 2.7955791,1.612388 c 1.5427883,0.881593 2.8767783,1.612388 2.9579783,1.612388 0.0812,0 0.150798,-0.916393 0.150798,-2.053185 0,-2.029985 -0.0116,-2.064784 -0.800394,-3.271175 -2.1343836,-3.259576 -2.5983801,-6.611951 -1.28759,-9.198731 1.797987,-3.526374 7.087547,-2.412782 10.126724,2.134384 2.528781,3.781571 2.71438,8.212738 0.429197,10.300722 -0.371197,0.336398 -0.800394,0.626396 -0.939593,0.626396 -0.197199,0 -0.266798,0.695994 -0.266798,2.957977 v 2.957978 l 2.493981,1.42679 2.493982,1.426789 v 1.206391 c -0.0116,1.426789 0.173998,1.36879 -2.80718,0.904793 z"
     style="stroke-width:0.115999;fill:#3c858a;fill-opacity:1" /><path
     id="path857-5-3-0_16_"
     class="st0"
     d="m 26.662829,48.575065 v -1.159991 l 6.368352,-3.723572 c 3.503174,-2.053185 7.586344,-4.431167 9.082732,-5.301161 l 2.71438,-1.577588 0.058,-3.665572 c 0.0348,-2.018385 -0.0116,-3.665573 -0.1044,-3.653973 -0.0928,0 -0.858393,0.394397 -1.716787,0.881593 -1.507988,0.858394 -1.565988,0.927993 -2.076384,2.227184 -0.765594,1.983585 -1.519589,3.143576 -2.73758,4.245568 -1.542788,1.38039 -2.899978,2.018385 -4.523966,2.122784 -2.725979,0.173999 -4.338367,-1.426789 -4.523966,-4.465967 -0.115999,-2.087984 0.208799,-3.619172 1.229591,-5.637557 2.343182,-4.686365 7.029547,-6.901949 9.755527,-4.616766 l 0.661195,0.556796 1.995185,-1.043992 1.995185,-1.043992 0.058,-3.514774 0.058,-3.514773 0.811994,-0.463997 c 0.452397,-0.255198 0.904793,-0.463996 1.009192,-0.463996 0.278398,0 1.42679,2.65638 1.995185,4.628365 1.797987,6.217553 0.893194,13.119501 -2.459181,18.757059 -3.804772,6.403152 -10.70672,10.787919 -18.014665,11.449114 l -1.612388,0.150799 z"
     style="stroke-width:0.115999;fill:#3c858a;fill-opacity:1" /><path
     id="path853-1-1-0_16_"
     class="st0"
     d="m 23.635252,19.94648 c -2.911578,-0.429197 -5.475159,-1.902386 -6.310353,-3.630773 -0.266798,-0.545196 -0.417597,-1.28759 -0.417597,-2.018385 v -1.148391 l -1.774786,-1.067192 c -0.974393,-0.579996 -1.809587,-1.067192 -1.855986,-1.067192 -0.0464,0 -1.299191,0.742394 -2.783979,1.658787 -1.4847893,0.916393 -2.8071794,1.658788 -2.9231786,1.658788 -0.3015977,0 -1.867586,-1.009193 -1.867586,-1.206391 0,-0.371197 1.9835852,-2.841979 3.4335743,-4.291968 3.3755743,-3.340775 7.8879413,-5.6375578 12.6787053,-6.4611516 2.841978,-0.4871963 7.145546,-0.3131976 9.825126,0.3943971 5.428759,1.4267893 9.975925,4.4659665 13.2819,8.8623335 1.33399,1.774787 1.33399,1.716787 0.220399,2.331583 L 44.167098,14.50612 40.745124,12.522535 C 38.865938,11.432143 36.023959,9.7733559 34.423171,8.833763 27.068826,4.5301952 26.048034,3.9385997 25.804436,3.9385997 c -0.301598,0 -6.217554,3.3523748 -6.217554,3.5147736 0,0.058 0.579996,0.4755964 1.275991,0.9163931 l 1.27599,0.800394 1.890786,-0.255198 c 2.389582,-0.3131977 4.663165,0.0464 6.565551,1.0671919 1.531188,0.8235937 2.377982,1.7979867 2.807179,3.2479757 0.463996,1.565988 0.127599,2.818779 -1.101992,4.187569 -1.832786,2.099584 -5.115562,3.050777 -8.665135,2.528781 z"
     style="stroke-width:0.115999;fill:#3c858a;fill-opacity:1" /><path
     id="path1000-4-4_12_"
     class="st1"
     d="M 48.227068,37.149151 C 44.074299,45.327089 35.594762,50.929847 25.792836,50.929847 11.90774,50.929847 0.65582429,39.677932 0.65582429,25.792836 0.65582429,11.90774 11.90774,0.6558243 25.792836,0.6558243 c 8.850733,0 16.634275,4.5703657 21.111841,11.4955137 1.913986,2.946378 0.116,0.127599 0.116,0.127599 l 1.589188,2.575181 2.969577,-2.331583 c 4.558766,-3.5959727 5.834757,-3.2247755 6.147954,1.774787 l 0.185599,2.923178 24.522216,0.185599 c 27.166999,0.197198 24.754219,-0.0116 28.535789,2.57518 1.56599,1.067192 3.14357,3.224776 2.94637,4.01357 -0.0696,0.255198 -2.33158,2.528781 -5.03436,5.045962 l -4.91836,4.593566 h -2.86518 -2.853578 l -2.134384,-1.832786 -2.134384,-1.809587 -3.085576,3.073977 -3.085577,3.073977 h -2.157584 -2.157584 l -3.062377,-2.853578 -3.062377,-2.853579 -3.329175,3.294375 -3.329175,3.294376 -2.447582,-2.424382 -2.447581,-2.424382 h -3.909171 -3.909171 l 0.231999,3.700372 c 0.243598,3.874371 -0.0928,5.37076 -1.275991,5.602758 -0.313198,0.058 -2.157584,-0.788794 -4.094769,-1.890786 -1.937186,-1.101991 -3.677173,-1.995185 -3.851171,-1.995185 -0.173999,0 -0.777194,-0.440796 -0.777194,-0.440796 z"
     style="stroke-width:1.312;stroke-miterlimit:11.33860016;stroke-dasharray:none;stroke:#3c858a;stroke-opacity:1" /><path
     id="path2129_3_"
     class="st2"
     d="m 73.481488,23.580764 -0.896413,-1.925627 h -5.370178 v 0.771911 l 0.190903,0.0166 c 0.522907,0.0581 0.639109,0.190903 0.639109,0.788511 v 3.245347 c 0,0.605909 -0.116202,0.730411 -0.639109,0.788512 l -0.190903,0.0166 v 0.771911 h 3.369849 v -0.771911 l -0.257304,-0.0166 c -0.215803,-0.0166 -0.439906,-0.0913 -0.522908,-0.199203 -0.083,-0.0913 -0.116201,-0.232403 -0.116201,-0.589309 v -1.328019 h 0.215803 c 0.439906,0 0.556108,0.0166 0.69721,0.124502 0.166002,0.132802 0.273904,0.431606 0.323705,0.979414 h 0.69721 v -3.046144 h -0.69721 c -0.0498,0.473107 -0.116202,0.71381 -0.232404,0.846612 -0.124501,0.141102 -0.265604,0.182603 -0.72211,0.182603 h -0.273904 v -0.888113 c 0,-0.431606 0.0166,-0.539508 0.083,-0.630809 0.083,-0.116202 0.323705,-0.166002 0.70551,-0.166002 0.979414,0 1.618524,0.365205 2.348934,1.361219 z"
     style="fill:#3c858a;fill-opacity:1;stroke:#3c858a;stroke-opacity:1" /><path
     id="path2131_3_"
     class="st2"
     d="m 78.428359,27.025314 c -0.0166,0.0166 -0.0415,0.0415 -0.0664,0.0581 -0.0747,0.0747 -0.124502,0.0996 -0.166002,0.0996 -0.0664,0 -0.141102,-0.0498 -0.157702,-0.0996 -0.0249,-0.0664 -0.0249,-0.0664 -0.0415,-0.423306 v -1.850927 c 0,-0.498007 -0.0996,-0.796811 -0.356905,-1.045815 -0.332005,-0.323705 -0.962814,-0.506307 -1.693225,-0.506307 -1.211817,0 -2.09163,0.547808 -2.09163,1.294819 0,0.398405 0.298804,0.70551 0.69721,0.70551 0.224103,0 0.464807,-0.0913 0.589309,-0.257304 0.0913,-0.116202 0.132802,-0.240703 0.132802,-0.473107 0,-0.132802 0.0249,-0.199203 0.083,-0.240703 0.116201,-0.0996 0.323704,-0.166003 0.514607,-0.166003 0.406706,0 0.589309,0.166003 0.589309,0.506308 v 0.481407 c -0.514608,0.0498 -0.971114,0.132801 -1.37782,0.257303 -0.937914,0.282204 -1.411021,0.780212 -1.411021,1.494022 0,0.771911 0.605909,1.286518 1.494022,1.286518 0.522908,0 1.029215,-0.157702 1.494022,-0.481406 0.224103,0.290504 0.647409,0.481406 1.079015,0.481406 0.423306,0 0.771911,-0.141102 1.195217,-0.481406 z m -1.958828,-0.224103 c -0.240704,0.224103 -0.481407,0.332005 -0.747011,0.332005 -0.265604,0 -0.439906,-0.190903 -0.439906,-0.473107 0,-0.398406 0.365205,-0.647409 1.186917,-0.796812 z"
     style="fill:#3c858a;fill-opacity:1;stroke:#3c858a;stroke-opacity:1" /><path
     id="path2133_3_"
     class="st2"
     d="m 80.918395,21.248431 h -0.614209 c -0.506307,0.224103 -1.203517,0.406706 -1.610223,0.406706 v 0.763611 l 0.141102,0.0166 c 0.464807,0.0581 0.556108,0.190903 0.556108,0.763611 v 4.86387 h 1.112216 l 0.166003,-0.298804 c 0.622509,0.307104 0.871512,0.381805 1.344619,0.381805 1.286519,0 2.207832,-1.004314 2.207832,-2.415334 0,-1.452521 -0.896413,-2.473436 -2.166331,-2.473436 -0.356906,0 -0.68891,0.0747 -1.145417,0.273904 z m 0,3.278547 c 0.232404,-0.240703 0.489707,-0.356905 0.813412,-0.356905 0.581008,0 0.904713,0.506307 0.904713,1.435921 0,1.029215 -0.332005,1.577023 -0.954514,1.577023 -0.307104,0 -0.564408,-0.116202 -0.763611,-0.332005 z"
     style="fill:#3c858a;fill-opacity:1;stroke:#3c858a;stroke-opacity:1" /><path
     id="path2135_3_"
     class="st2"
     d="m 90.056827,21.655137 h -4.548465 l -0.929614,2.050129 0.647409,0.273904 c 0.506308,-0.987714 1.31972,-1.502321 2.373835,-1.502321 0.132802,0 0.257303,0.0083 0.564408,0.0415 l -3.585652,4.938572 0.149402,0.614208 h 4.930272 l 0.838312,-2.199531 -0.69721,-0.224104 c -0.182603,0.481407 -0.365206,0.763611 -0.68061,1.029215 -0.423306,0.373506 -1.079016,0.581009 -1.801126,0.581009 -0.224104,0 -0.381806,-0.0166 -0.67231,-0.0664 l 3.560751,-4.921971 z"
     style="fill:#3c858a;fill-opacity:1;stroke:#3c858a;stroke-opacity:1" /><path
     id="path2137_3_"
     class="st2"
     d="m 95.601307,25.672395 c 0,-0.67231 -0.0664,-1.054116 -0.240703,-1.37782 -0.365205,-0.64741 -1.128816,-1.045815 -2.033529,-1.045815 -1.452521,0 -2.473436,1.004314 -2.473436,2.431935 0,1.42762 1.070715,2.465135 2.556437,2.465135 0.71381,0 1.361219,-0.257303 1.776225,-0.70551 0.182603,-0.190902 0.290505,-0.340305 0.522908,-0.72211 l -0.788511,-0.381806 c -0.365206,0.547808 -0.755311,0.796812 -1.236718,0.796812 -0.730411,0 -1.145417,-0.539508 -1.137117,-1.460821 z m -2.996343,-0.722111 c 0.0249,-0.514607 0.282204,-0.830012 0.70551,-0.830012 0.423306,0 0.605909,0.232404 0.622509,0.830012 z"
     style="fill:#3c858a;fill-opacity:1;stroke:#3c858a;stroke-opacity:1" /><path
     id="path2139_3_"
     class="st2"
     d="m 98.273946,23.340061 h -0.581008 l -1.469122,0.273904 v 0.763611 l 0.166003,0.0166 c 0.415006,0.0498 0.514607,0.199203 0.514607,0.771911 v 1.35292 c 0,0.539508 -0.0581,0.630809 -0.415006,0.71381 l -0.273904,0.0664 v 0.763611 h 2.896742 v -0.763611 l -0.273904,-0.0664 c -0.356905,-0.083 -0.415006,-0.182602 -0.415006,-0.71381 v -1.826026 c 0.132802,-0.116202 0.224103,-0.149403 0.373506,-0.149403 0.116201,0 0.116201,0 0.332004,0.141102 0.166003,0.116202 0.298805,0.149403 0.481407,0.149403 0.423305,0 0.747015,-0.298805 0.747015,-0.713811 0,-0.489707 -0.365209,-0.863212 -0.846616,-0.863212 -0.381806,0 -0.622509,0.0996 -1.245018,0.547808 z"
     style="fill:#3c858a;fill-opacity:1;stroke:#3c858a;stroke-opacity:1" /><path
     id="path2141_3_"
     class="st2"
     d="m 103.20422,23.25706 c -1.52722,0 -2.55644,0.962814 -2.55644,2.382134 0,1.543823 1.00431,2.514937 2.60624,2.514937 1.57702,0 2.60624,-0.954514 2.60624,-2.415335 0,-1.527222 -1.03752,-2.481736 -2.65604,-2.481736 z m 0.0581,0.954514 c 0.58931,0 0.88811,0.514607 0.88811,1.552122 0,0.962814 -0.3071,1.469121 -0.88811,1.469121 -0.58931,0 -0.90471,-0.506307 -0.90471,-1.485721 0,-1.012615 0.2988,-1.535522 0.90471,-1.535522 z"
     style="fill:#3c858a;fill-opacity:1;stroke:#3c858a;stroke-opacity:1" /></svg>
