<?xml version="1.0" encoding="UTF-8" standalone="no"?>
<svg
   xmlns:dc="http://purl.org/dc/elements/1.1/"
   xmlns:cc="http://creativecommons.org/ns#"
   xmlns:rdf="http://www.w3.org/1999/02/22-rdf-syntax-ns#"
   xmlns:svg="http://www.w3.org/2000/svg"
   xmlns="http://www.w3.org/2000/svg"
   xmlns:sodipodi="http://sodipodi.sourceforge.net/DTD/sodipodi-0.dtd"
   xmlns:inkscape="http://www.inkscape.org/namespaces/inkscape"
   version="1.1"
   id="svg1554"
   x="0px"
   y="0px"
   viewBox="0 0 114.59688 51.585673"
   xml:space="preserve"
   sodipodi:docname="logo_fabzero-13.svg"
   width="114.59688"
   height="51.58567"
   inkscape:version="1.0.2 (1.0.2+r75+1)"><metadata
     id="metadata23"><rdf:RDF><cc:Work
         rdf:about=""><dc:format>image/svg+xml</dc:format><dc:type
           rdf:resource="http://purl.org/dc/dcmitype/StillImage" /><dc:title></dc:title></cc:Work></rdf:RDF></metadata><defs
     id="defs21" /><sodipodi:namedview
     pagecolor="#ffffff"
     bordercolor="#666666"
     borderopacity="1"
     objecttolerance="10"
     gridtolerance="10"
     guidetolerance="10"
     inkscape:pageopacity="0"
     inkscape:pageshadow="2"
     inkscape:window-width="1539"
     inkscape:window-height="941"
     id="namedview19"
     showgrid="false"
     inkscape:pagecheckerboard="true"
     fit-margin-top="0"
     fit-margin-left="0"
     fit-margin-right="0"
     fit-margin-bottom="0"
     inkscape:zoom="4.9349151"
     inkscape:cx="72.469304"
     inkscape:cy="44.247745"
     inkscape:window-x="0"
     inkscape:window-y="0"
     inkscape:window-maximized="0"
     inkscape:current-layer="svg1554" /><style
     type="text/css"
     id="style2">
	.st0{fill:#FFFFFF;stroke:#FFFFFF;stroke-miterlimit:10;}
	.st1{fill:none;stroke:#FFFFFF;stroke-width:11.3074;stroke-miterlimit:11.3386;}
	.st2{fill:#FFFFFF;stroke:#FFFFFF;stroke-width:0.7155;stroke-miterlimit:7.1553;}
	.st3{fill:#FFFFFF;stroke:#FFFFFF;stroke-width:0.4727;stroke-miterlimit:4.7271;}
	.st4{fill:#3C858A;}
	.st5{fill:none;stroke:#3C858A;stroke-width:11.307;stroke-miterlimit:11.3386;}
	.st6{fill:#FDCB45;}
	.st7{fill:none;stroke:#FDCB45;stroke-width:11.307;stroke-miterlimit:10;}
</style><g
     id="g16"
     transform="matrix(0.11599913,0,0,0.11599913,-13.971666,-8.2645088)"><path
       id="path859-8-9-3_16_"
       class="st0"
       d="m 311.9,497.9 c -29.7,-4.6 -57.6,-15.5 -82.9,-32.4 -83.9,-55.8 -114.7,-164 -73.2,-256.9 3,-6.7 5.9,-11.9 6.5,-11.6 0.6,0.3 4.5,2.5 8.7,5 l 7.6,4.5 0.5,91.2 0.5,91.2 24.1,13.9 c 13.3,7.6 24.8,13.9 25.5,13.9 0.7,0 1.3,-7.9 1.3,-17.7 0,-17.5 -0.1,-17.8 -6.9,-28.2 -18.4,-28.1 -22.4,-57 -11.1,-79.3 15.5,-30.4 61.1,-20.8 87.3,18.4 21.8,32.6 23.4,70.8 3.7,88.8 -3.2,2.9 -6.9,5.4 -8.1,5.4 -1.7,0 -2.3,6 -2.3,25.5 v 25.5 l 21.5,12.3 21.5,12.3 v 10.4 c -0.1,12.3 1.5,11.8 -24.2,7.8 z" /><path
       id="path857-5-3-0_16_"
       class="st0"
       d="m 350.3,490 v -10 l 54.9,-32.1 c 30.2,-17.7 65.4,-38.2 78.3,-45.7 l 23.4,-13.6 0.5,-31.6 c 0.3,-17.4 -0.1,-31.6 -0.9,-31.5 -0.8,0 -7.4,3.4 -14.8,7.6 -13,7.4 -13.5,8 -17.9,19.2 -6.6,17.1 -13.1,27.1 -23.6,36.6 -13.3,11.9 -25,17.4 -39,18.3 -23.5,1.5 -37.4,-12.3 -39,-38.5 -1,-18 1.8,-31.2 10.6,-48.6 20.2,-40.4 60.6,-59.5 84.1,-39.8 l 5.7,4.8 17.2,-9 17.2,-9 0.5,-30.3 0.5,-30.3 7,-4 c 3.9,-2.2 7.8,-4 8.7,-4 2.4,0 12.3,22.9 17.2,39.9 15.5,53.6 7.7,113.1 -21.2,161.7 -32.8,55.2 -92.3,93 -155.3,98.7 l -13.9,1.3 z" /><path
       id="path853-1-1-0_16_"
       class="st0"
       d="m 324.2,243.2 c -25.1,-3.7 -47.2,-16.4 -54.4,-31.3 -2.3,-4.7 -3.6,-11.1 -3.6,-17.4 v -9.9 l -15.3,-9.2 c -8.4,-5 -15.6,-9.2 -16,-9.2 -0.4,0 -11.2,6.4 -24,14.3 -12.8,7.9 -24.2,14.3 -25.2,14.3 -2.6,0 -16.1,-8.7 -16.1,-10.4 0,-3.2 17.1,-24.5 29.6,-37 29.1,-28.8 68,-48.6 109.3,-55.7 24.5,-4.2 61.6,-2.7 84.7,3.4 46.8,12.3 86,38.5 114.5,76.4 11.5,15.3 11.5,14.8 1.9,20.1 l -8.4,4.7 -29.5,-17.1 C 455.5,169.8 431,155.5 417.2,147.4 353.8,110.3 345,105.2 342.9,105.2 c -2.6,0 -53.6,28.9 -53.6,30.3 0,0.5 5,4.1 11,7.9 l 11,6.9 16.3,-2.2 c 20.6,-2.7 40.2,0.4 56.6,9.2 13.2,7.1 20.5,15.5 24.2,28 4,13.5 1.1,24.3 -9.5,36.1 -15.8,18.1 -44.1,26.3 -74.7,21.8 z" /><path
       id="path1000-4-4_12_"
       class="st1"
       d="M 536.2,391.5 C 500.4,462 427.3,510.3 342.8,510.3 c -119.7,0 -216.7,-97 -216.7,-216.7 0,-119.7 97,-216.7 216.7,-216.7 76.3,0 143.4,39.4 182,99.1 16.5,25.4 1,1.1 1,1.1 l 13.7,22.2 25.6,-20.1 c 39.3,-31 50.3,-27.8 53,15.3 l 1.6,25.2 211.4,1.6 c 234.2,1.7 213.4,-0.1 246,22.2 13.5,9.2 27.1,27.8 25.4,34.6 -0.6,2.2 -20.1,21.8 -43.4,43.5 l -42.4,39.6 H 992 967.4 L 949,345.4 930.6,329.8 904,356.3 877.4,382.8 H 858.8 840.2 L 813.8,358.2 787.4,333.6 758.7,362 730,390.4 708.9,369.5 687.8,348.6 h -33.7 -33.7 l 2,31.9 c 2.1,33.4 -0.8,46.3 -11,48.3 -2.7,0.5 -18.6,-6.8 -35.3,-16.3 -16.7,-9.5 -31.7,-17.2 -33.2,-17.2 -1.5,0 -6.7,-3.8 -6.7,-3.8 z" /><g
       id="flowRoot899-4-8-5_13_"
       transform="matrix(0.71553298,0,0,0.71553298,240.73192,862.76992)"><path
         id="path2129_3_"
         class="st2"
         d="m 717.2,-822.1 -10.8,-23.2 h -64.7 v 9.3 l 2.3,0.2 c 6.3,0.7 7.7,2.3 7.7,9.5 v 39.1 c 0,7.3 -1.4,8.8 -7.7,9.5 l -2.3,0.2 v 9.3 h 40.6 v -9.3 l -3.1,-0.2 c -2.6,-0.2 -5.3,-1.1 -6.3,-2.4 -1,-1.1 -1.4,-2.8 -1.4,-7.1 v -16 h 2.6 c 5.3,0 6.7,0.2 8.4,1.5 2,1.6 3.3,5.2 3.9,11.8 h 8.4 v -36.7 h -8.4 c -0.6,5.7 -1.4,8.6 -2.8,10.2 -1.5,1.7 -3.2,2.2 -8.7,2.2 h -3.3 v -10.7 c 0,-5.2 0.2,-6.5 1,-7.6 1,-1.4 3.9,-2 8.5,-2 11.8,0 19.5,4.4 28.3,16.4 z" /><path
         id="path2131_3_"
         class="st2"
         d="m 776.8,-780.6 c -0.2,0.2 -0.5,0.5 -0.8,0.7 -0.9,0.9 -1.5,1.2 -2,1.2 -0.8,0 -1.7,-0.6 -1.9,-1.2 -0.3,-0.8 -0.3,-0.8 -0.5,-5.1 v -22.3 c 0,-6 -1.2,-9.6 -4.3,-12.6 -4,-3.9 -11.6,-6.1 -20.4,-6.1 -14.6,0 -25.2,6.6 -25.2,15.6 0,4.8 3.6,8.5 8.4,8.5 2.7,0 5.6,-1.1 7.1,-3.1 1.1,-1.4 1.6,-2.9 1.6,-5.7 0,-1.6 0.3,-2.4 1,-2.9 1.4,-1.2 3.9,-2 6.2,-2 4.9,0 7.1,2 7.1,6.1 v 5.8 c -6.2,0.6 -11.7,1.6 -16.6,3.1 -11.3,3.4 -17,9.4 -17,18 0,9.3 7.3,15.5 18,15.5 6.3,0 12.4,-1.9 18,-5.8 2.7,3.5 7.8,5.8 13,5.8 5.1,0 9.3,-1.7 14.4,-5.8 z m -23.6,-2.7 c -2.9,2.7 -5.8,4 -9,4 -3.2,0 -5.3,-2.3 -5.3,-5.7 0,-4.8 4.4,-7.8 14.3,-9.6 z" /><path
         id="path2133_3_"
         class="st2"
         d="m 806.8,-850.2 h -7.4 c -6.1,2.7 -14.5,4.9 -19.4,4.9 v 9.2 l 1.7,0.2 c 5.6,0.7 6.7,2.3 6.7,9.2 v 58.6 h 13.4 l 2,-3.6 c 7.5,3.7 10.5,4.6 16.2,4.6 15.5,0 26.6,-12.1 26.6,-29.1 0,-17.5 -10.8,-29.8 -26.1,-29.8 -4.3,0 -8.3,0.9 -13.8,3.3 z m 0,39.5 c 2.8,-2.9 5.9,-4.3 9.8,-4.3 7,0 10.9,6.1 10.9,17.3 0,12.4 -4,19 -11.5,19 -3.7,0 -6.8,-1.4 -9.2,-4 z" /><path
         id="path2135_3_"
         class="st2"
         d="m 916.9,-845.3 h -54.8 l -11.2,24.7 7.8,3.3 c 6.1,-11.9 15.9,-18.1 28.6,-18.1 1.6,0 3.1,0.1 6.8,0.5 l -43.2,59.5 1.8,7.4 h 59.4 l 10.1,-26.5 -8.4,-2.7 c -2.2,5.8 -4.4,9.2 -8.2,12.4 -5.1,4.5 -13,7 -21.7,7 -2.7,0 -4.6,-0.2 -8.1,-0.8 l 42.9,-59.3 z" /><path
         id="path2137_3_"
         class="st2"
         d="m 983.7,-796.9 c 0,-8.1 -0.8,-12.7 -2.9,-16.6 -4.4,-7.8 -13.6,-12.6 -24.5,-12.6 -17.5,0 -29.8,12.1 -29.8,29.3 0,17.2 12.9,29.7 30.8,29.7 8.6,0 16.4,-3.1 21.4,-8.5 2.2,-2.3 3.5,-4.1 6.3,-8.7 l -9.5,-4.6 c -4.4,6.6 -9.1,9.6 -14.9,9.6 -8.8,0 -13.8,-6.5 -13.7,-17.6 z m -36.1,-8.7 c 0.3,-6.2 3.4,-10 8.5,-10 5.1,0 7.3,2.8 7.5,10 z" /><path
         id="path2139_3_"
         class="st2"
         d="m 1015.9,-825 h -7 l -17.7,3.3 v 9.2 l 2,0.2 c 5,0.6 6.2,2.4 6.2,9.3 v 16.3 c 0,6.5 -0.7,7.6 -5,8.6 l -3.3,0.8 v 9.2 h 34.9 v -9.2 l -3.3,-0.8 c -4.3,-1 -5,-2.2 -5,-8.6 v -22 c 1.6,-1.4 2.7,-1.8 4.5,-1.8 1.4,0 1.4,0 4,1.7 2,1.4 3.6,1.8 5.8,1.8 5.1,0 9,-3.6 9,-8.6 0,-5.9 -4.4,-10.4 -10.2,-10.4 -4.6,0 -7.5,1.2 -15,6.6 z" /><path
         id="path2141_3_"
         class="st2"
         d="m 1075.3,-826 c -18.4,0 -30.8,11.6 -30.8,28.7 0,18.6 12.1,30.3 31.4,30.3 19,0 31.4,-11.5 31.4,-29.1 0,-18.4 -12.5,-29.9 -32,-29.9 z m 0.7,11.5 c 7.1,0 10.7,6.2 10.7,18.7 0,11.6 -3.7,17.7 -10.7,17.7 -7.1,0 -10.9,-6.1 -10.9,-17.9 0,-12.2 3.6,-18.5 10.9,-18.5 z" /></g></g></svg>
