<?xml version="1.0" encoding="UTF-8" standalone="no"?>
<svg
   xmlns:dc="http://purl.org/dc/elements/1.1/"
   xmlns:cc="http://creativecommons.org/ns#"
   xmlns:rdf="http://www.w3.org/1999/02/22-rdf-syntax-ns#"
   xmlns:svg="http://www.w3.org/2000/svg"
   xmlns="http://www.w3.org/2000/svg"
   xmlns:sodipodi="http://sodipodi.sourceforge.net/DTD/sodipodi-0.dtd"
   xmlns:inkscape="http://www.inkscape.org/namespaces/inkscape"
   id="95c6c890-4df0-4047-9b20-53c1698e0703"
   data-name="Layer 1"
   width="1139.67"
   height="860.42999"
   viewBox="0 0 1139.67 860.43"
   version="1.1"
   sodipodi:docname="undraw_spin_kets.svg"
   inkscape:version="0.92.1 r15371">
  <metadata
     id="metadata6514">
    <rdf:RDF>
      <cc:Work
         rdf:about="">
        <dc:format>image/svg+xml</dc:format>
        <dc:type
           rdf:resource="http://purl.org/dc/dcmitype/StillImage" />
        <dc:title>freelancer</dc:title>
      </cc:Work>
    </rdf:RDF>
  </metadata>
  <sodipodi:namedview
     pagecolor="#ffffff"
     bordercolor="#666666"
     borderopacity="1"
     objecttolerance="10"
     gridtolerance="10"
     guidetolerance="10"
     inkscape:pageopacity="0"
     inkscape:pageshadow="2"
     inkscape:window-width="919"
     inkscape:window-height="607"
     id="namedview6512"
     showgrid="false"
     inkscape:zoom="0.32424678"
     inkscape:cx="939.65142"
     inkscape:cy="529.35485"
     inkscape:window-x="224"
     inkscape:window-y="81"
     inkscape:window-maximized="0"
     inkscape:current-layer="95c6c890-4df0-4047-9b20-53c1698e0703" />
  <defs
     id="defs6227">
    <linearGradient
       id="27534bda-5ea1-4910-bcb7-b6f2fadd52ae"
       x1="685.65997"
       y1="732.28003"
       x2="685.65997"
       y2="530.48999"
       gradientUnits="userSpaceOnUse">
      <stop
         offset="0"
         stop-color="gray"
         stop-opacity="0.25"
         id="stop6220" />
      <stop
         offset="0.54"
         stop-color="gray"
         stop-opacity="0.12"
         id="stop6222" />
      <stop
         offset="1"
         stop-color="gray"
         stop-opacity="0.1"
         id="stop6224" />
    </linearGradient>
    <linearGradient
       gradientUnits="userSpaceOnUse"
       gradientTransform="translate(-314.2653,460.01429)"
       y2="284.16"
       x2="1755.38"
       y1="741.53003"
       x1="1755.38"
       id="a2e0af23-4ced-4921-9ce0-827007506601">
      <stop
         id="stop7022"
         stop-opacity="0.25"
         stop-color="gray"
         offset="0" />
      <stop
         id="stop7024"
         stop-opacity="0.12"
         stop-color="gray"
         offset="0.54" />
      <stop
         id="stop7026"
         stop-opacity="0.1"
         stop-color="gray"
         offset="1" />
    </linearGradient>
  </defs>
  <title
     id="title6229">freelancer</title>
  <ellipse
     cx="509"
     cy="739.92999"
     rx="509"
     ry="120.5"
     id="ellipse6231"
     style="opacity:0.1;fill:#4285f4" />
  <path
     d="m 124.53,411.42 c 0,0 47.41,47.41 20.65,117.79 -26.76,70.38 45.88,187.34 45.88,187.34 0,0 -0.78,-0.11 -2.22,-0.37 C 91.47,698.97 43.08,587.61 97.23,504.87 c 20.13,-30.76 36.61,-66.84 27.3,-93.45 z"
     id="path6233"
     inkscape:connector-curvature="0"
     style="fill:#4285f4" />
  <path
     d="m 124.53,411.42 c 0,0 26.76,58.11 0,105.52 -26.76,47.41 -4.59,180.47 66.53,199.59"
     stroke-miterlimit="10"
     id="path6235"
     inkscape:connector-curvature="0"
     style="fill:none;stroke:#535461;stroke-width:2;stroke-miterlimit:10" />
  <path
     d="m 40.09,603.21 c 0,0 54.1,-8.62 59,39.87 4.9,48.49 104,55.2 104,55.2 0,0 -0.65,0.44 -1.86,1.24 -81.76,53.69 -159.98,34.18 -148.19,-37.14 4.38,-26.52 4.03,-53.17 -12.95,-59.17 z"
     id="path6237"
     inkscape:connector-curvature="0"
     style="fill:#4285f4" />
  <path
     d="m 40.09,603.21 c 0,0 54.1,-8.62 59,39.87 4.9,48.49 104,55.2 104,55.2 0,0 -0.65,0.44 -1.86,1.24 -81.76,53.69 -159.98,34.18 -148.19,-37.14 4.38,-26.52 4.03,-53.17 -12.95,-59.17 z"
     id="path6239"
     inkscape:connector-curvature="0"
     style="opacity:0.2;fill:#f5f5f5" />
  <path
     d="m 40.09,603.21 c 0,0 42,9.22 38.54,47.4 -3.46,38.18 62.36,84 124.51,47.67"
     stroke-miterlimit="10"
     id="path6241"
     inkscape:connector-curvature="0"
     style="fill:none;stroke:#535461;stroke-width:2;stroke-miterlimit:10" />
  <path
     d="m 1138.43,410.84 c -6.95,34.06 -42.63,51.14 -62.62,76.55 -37.67,47.89 -23,117.84 0.9,173.86 8,18.76 17.08,38.61 13.69,58.72 -4.13,24.6 -26.08,42.58 -49.13,52.12 -42,17.37 -92.3,13.23 -130.91,-10.79 C 877,740.55 853.1,706.79 819.17,686.98 762.38,653.83 690.1,666.35 628.43,689.19 c -43.62,16.15 -91.32,37.17 -134.67,20.28 -30.5,-11.88 -51.59,-40.8 -63.08,-71.45 -5.54,-14.8 -9.57,-30.82 -20.16,-42.55 -6.3,-7 -14.52,-11.93 -22.93,-16.1 -76.88,-38.12 -174,-17.7 -248.63,-60 -50.42,-28.55 -82.71,-82.4 -97,-138.56 -14.29,-56.16 -12.63,-115 -9,-172.88 2.58,-41.1 7.21,-85.00007 33.47,-116.700072 27.78,-33.529999 75.41,-46.019995 118.55,-39.629997 43.14,6.389998 82.15,29.109997 116.52,55.879999 43,33.47004 82.78,75.13007 135.51,88.69007 35.91,9.23 73.68,4.18 110.72,2.43 61.92,-2.92 123.86,3.58 185.43,10.7 30,3.47 60.1,7.11 89.84,12.39 q 10,1.77 20,3.81 5,1 10,2.14 c 2.6,0.57 5.19,1.17 7.78,1.78 q 6.13,1.44 12.22,3 c 11.66,3 23.21,6.45 34.64,10.35 39.74,13.57 71.6,38.2 109.13,55.41 24.46,11.22 51.13,14.32 74.29,28.6 28.53,17.62 54.68,48.24 47.37,84.06 z"
     id="path6243"
     inkscape:connector-curvature="0"
     style="opacity:0.1;fill:#4285f4" />
  <path
     d="m 606.14,693.98 c 0,0 41.1,-3.26 52.93,10.88 11.83,14.14 54.06,46.56 36.63,53.78 -17.43,7.22 -111,-21.61 -111,-21.61 z"
     id="path6245"
     inkscape:connector-curvature="0"
     style="fill:#ffb9b9" />
  <path
     d="m 437.17,201.77 a 21.43,21.43 0 0 0 -17.48,-19.49 c -6.26,-1 -13.25,0.77 -18.63,-2.6 -2.43,-1.53 -4.17,-3.92 -6.13,-6 -7.68,-8.21 -19.21,-12 -30.45,-12.33 -11.24,-0.33 -22.32,2.39 -33.12,5.5 -21.56,6.21 -44.34,15.32 -55.81,34.6 -17.44,29.35 -1.35,68.91 -15.14,100.14 -6,13.64 -17.44,24.78 -21.16,39.22 -5,19.29 4.86,38.86 12.45,57.28 a 273.18,273.18 0 0 1 15.44,51.2 c 3.05,15.48 4.75,31.57 1.31,47 -1.51,6.75 -4,13.62 -2.66,20.4 2,10.26 11.92,16.73 20.94,22 l 2.35,1.38 c 13,7.6 26.37,15.36 41.26,17.24 9.25,1.16 19,-0.12 27,-4.85 8,-4.73 14.09,-13.17 14.77,-22.46 0.76,-10.51 -5.09,-20.35 -6.35,-30.82 a 9.37,9.37 0 0 1 0.35,-4.72 c 0.83,-2 2.76,-3.29 4.54,-4.53 25.64,-17.88 39.39,-51.34 33.72,-82.08 -3.86,-20.94 -15.86,-41.76 -10.05,-62.25 3.21,-11.32 11.48,-20.49 16.12,-31.3 a 52.54,52.54 0 0 0 1.72,-36.42 c -2.65,-8.26 -7.45,-16.51 -5.8,-25 2.91,-15.08 23,-19.89 30.59,-33.25 5.63,-9.94 2.3,-24 -7.2,-30.32"
     id="path6247"
     inkscape:connector-curvature="0"
     style="fill:#b96b6b" />
  <path
     d="m 437.17,201.77 a 21.43,21.43 0 0 0 -17.48,-19.49 c -6.26,-1 -13.25,0.77 -18.63,-2.6 -2.43,-1.53 -4.17,-3.92 -6.13,-6 -7.68,-8.21 -19.21,-12 -30.45,-12.33 -11.24,-0.33 -22.32,2.39 -33.12,5.5 -21.56,6.21 -44.34,15.32 -55.81,34.6 -17.44,29.35 -1.35,68.91 -15.14,100.14 -6,13.64 -17.44,24.78 -21.16,39.22 -5,19.29 4.86,38.86 12.45,57.28 a 273.18,273.18 0 0 1 15.44,51.2 c 3.05,15.48 4.75,31.57 1.31,47 -1.51,6.75 -4,13.62 -2.66,20.4 2,10.26 11.92,16.73 20.94,22 l 2.35,1.38 c 13,7.6 26.37,15.36 41.26,17.24 9.25,1.16 19,-0.12 27,-4.85 8,-4.73 14.09,-13.17 14.77,-22.46 0.76,-10.51 -5.09,-20.35 -6.35,-30.82 a 9.37,9.37 0 0 1 0.35,-4.72 c 0.83,-2 2.76,-3.29 4.54,-4.53 25.64,-17.88 39.39,-51.34 33.72,-82.08 -3.86,-20.94 -15.86,-41.76 -10.05,-62.25 3.21,-11.32 11.48,-20.49 16.12,-31.3 a 52.54,52.54 0 0 0 1.72,-36.42 c -2.65,-8.26 -7.45,-16.51 -5.8,-25 2.91,-15.08 23,-19.89 30.59,-33.25 5.63,-9.94 2.3,-24 -7.2,-30.32"
     id="path6249"
     inkscape:connector-curvature="0"
     style="opacity:0.1" />
  <polygon
     points="383.5,606.93 478.5,560.93 478.5,675.93 263.5,675.93 263.5,560.93 "
     id="polygon6251"
     style="fill:#777b9b"
     transform="translate(0,49.999932)" />
  <polygon
     points="383.5,606.93 478.5,560.93 478.5,675.93 263.5,675.93 263.5,560.93 "
     id="polygon6253"
     style="opacity:0.1"
     transform="translate(0,49.999932)" />
  <path
     d="m 452.5,736.98 c 0,0 -39,9.32 -43,26.4 -4,17.08 23,15.53 23,15.53 0,0 38,-7.77 43,-38.83 5,-31.06 -23,-3.1 -23,-3.1 z"
     id="path6255"
     inkscape:connector-curvature="0"
     style="fill:#ffb9b9" />
  <path
     d="m 452.5,736.98 c 0,0 -39,9.32 -43,26.4 -4,17.08 23,15.53 23,15.53 0,0 38,-7.77 43,-38.83 5,-31.06 -23,-3.1 -23,-3.1 z"
     id="path6257"
     inkscape:connector-curvature="0"
     style="opacity:0.1" />
  <path
     d="m 347.77,789.04 c 0,0 -36.77,2.39 -37.27,32.22 -0.07,4 38.3,5.16 83.85,-19.33 45.55,-24.49 48.65,-27.07 48.65,-27.07 0,0 -17.6,-28.36 -30,-32.22 -12.4,-3.86 -65.23,46.4 -65.23,46.4 z"
     id="path6259"
     inkscape:connector-curvature="0"
     style="fill:#cbcdda" />
  <path
     d="m 132.5,674.92 c 0,0 -42,35 36,84 78,49 153,40 153,40 0,0 81.36,-9.63 93.68,-47.82 12.32,-38.19 -60.68,-70.18 -60.68,-70.18 0,0 -80,0 -116,-23 -36,-23 -106,17 -106,17 z"
     id="path6261"
     inkscape:connector-curvature="0"
     style="fill:#777b9b" />
  <path
     d="m 359.5,614.92 c 0,0 36,21 85,0 37.7,-16.16 120.4,-9.82 156.53,-6 16.94,1.77 31.45,13.44 36.08,29.83 3.78,13.37 1,29.8 -21.62,45.2 -50,34 -85,44 -98,58 -13,14 -50,21 -50,21 0,0 -47,-7 -47,-17 0,-10 43,-59 43,-59 0,0 -63,58 -128,-20 -65,-78 24.01,-52.03 24.01,-52.03 z"
     id="path6263"
     inkscape:connector-curvature="0"
     style="fill:#777b9b" />
  <path
     d="m 341.5,473.92 -127,-87 c 0,0 60.92,-41.31 66.15,-78.23 a 30,30 0 0 0 -4.15,-20.77 c -25,-40 88,0 88,0 a 236.25,236.25 0 0 0 4.25,31 c 4.91,24.35 15.27,56.78 36.75,73 37,28 -64,82 -64,82 z"
     id="path6265"
     inkscape:connector-curvature="0"
     style="fill:#ffb9b9" />
  <path
     d="m 368.75,318.88 a 74.06,74.06 0 0 1 -88.1,-10.19 30,30 0 0 0 -4.15,-20.77 c -25,-40 88,0 88,0 a 236.25,236.25 0 0 0 4.25,30.96 z"
     id="path6267"
     inkscape:connector-curvature="0"
     style="opacity:0.1" />
  <circle
     cx="331.5"
     cy="252.92999"
     r="74"
     id="circle6269"
     style="fill:#ffb9b9" />
  <path
     d="m 377.5,350.92 c 0,0 -15,88 -40,83 -25,-5 -103,-93 -103,-93 0,0 -81,27 -68,93 13,66 26,122 -1,143 -27,21 -44,119 -44,119 0,0 86,-36 131,-22 45,14 91,7 102,-6 11,-13 27,-41 27,-41 0,0 -23,-34 -12,-51 11,-17 25,-18 33,-66 8,-48 71,-65 59,-92 -12,-27 -35,-67 -84,-67 z"
     id="path6271"
     inkscape:connector-curvature="0"
     style="opacity:0.1" />
  <path
     d="m 377.5,346.92 c 0,0 -15,88 -40,83 -25,-5 -103,-93 -103,-93 0,0 -81,27 -68,93 13,66 26,122 -1,143 -27,21 -44,119 -44,119 0,0 86,-36 131,-22 45,14 91,7 102,-6 11,-13 27,-41 27,-41 0,0 -23,-34 -12,-51 11,-17 25,-18 33,-66 8,-48 71,-65 59,-92 -12,-27 -35,-67 -84,-67 z"
     id="path6273"
     inkscape:connector-curvature="0"
     style="fill:#cbcdda" />
  <path
     d="m 437.5,707.92 c 0,0 40,-10 54,2 14,12 61,37 45,47 -16,10 -113,-3 -113,-3 z"
     id="path6275"
     inkscape:connector-curvature="0"
     style="fill:#ffb9b9" />
  <g
     id="g6283"
     style="opacity:0.05"
     transform="translate(0,49.999932)">
    <path
       d="m 357.66,424.71 a 10.68,10.68 0 0 0 6.87,-1 c -27.78,-10.72 -99.87,-92 -99.87,-92 0,0 -2.84,0.95 -7.38,2.92 13.78,15.31 78.11,85.63 100.38,90.08 z"
       transform="translate(-30.16,-44.79)"
       id="path6277"
       inkscape:connector-curvature="0" />
    <path
       d="m 481.66,408.71 c 27.58,-10.61 -51,44 -59,92 -8,48 -22,49 -33,66 -11,17 12,51 12,51 0,0 -16,28 -27,41 -6.3,7.45 -24.09,12.91 -46.59,13.6 27.14,0.86 49.38,-5.09 56.59,-13.6 11,-13 27,-41 27,-41 0,0 -23,-34 -12,-51 11,-17 25,-18 33,-66 8,-48 42.5,-89.5 49,-92 z"
       transform="translate(-30.16,-44.79)"
       id="path6279"
       inkscape:connector-curvature="0" />
    <path
       d="m 152.43,682.54 c -0.51,2.67 -0.77,4.18 -0.77,4.18 0,0 55.92,-23.41 101.18,-25.13 -34.93,-1.45 -80.07,13.41 -100.41,20.95 z"
       transform="translate(-30.16,-44.79)"
       id="path6281"
       inkscape:connector-curvature="0" />
  </g>
  <path
     d="m 454.5,408.92 c 0,0 9,1 18,48 9,47 44,92 44,92 a 217.87,217.87 0 0 1 32,61 c 12,36 65.5,83.5 84.5,85.5 0,0 -36.5,36.5 -32.5,46.5 4,10 -4,0 -4,0 0,0 -50,-19 -61,-50 -11,-31 -59,-81 -59,-81 0,0 -64,-124 -67,-144 -3,-20 45,-58 45,-58 z"
     id="path6285"
     inkscape:connector-curvature="0"
     style="fill:#cbcdda" />
  <path
     d="m 179,577.42 c 0,0 77,9 94,33 17,24 95.75,-13.94 95.75,-13.94"
     id="path6287"
     inkscape:connector-curvature="0"
     style="opacity:0.1" />
  <path
     d="m 254.5,440.92 c 0,0 33,121 45,136 12,15 105,138 149,130 0,0 -13,56 -22,58 0,0 -91,-90 -122,-89 0,0 -57,-47 -63,-70 -6,-23 -54,-98 -54,-98 0,0 -24,-53 -14,-76 10,-23 63,-13 81,9 z"
     id="path6289"
     inkscape:connector-curvature="0"
     style="opacity:0.1" />
  <g
     id="g8028"
     transform="translate(-774,45.999933)">
    <ellipse
       id="ellipse7051"
       ry="35.258114"
       rx="352.58115"
       cy="416.66055"
       cx="1556.8301"
       style="opacity:0.1;fill:#6c63ff;stroke-width:0.69133562" />
    <g
       transform="matrix(0.6913356,0,0,0.6913356,1175.0746,5.8205506)"
       id="g7057"
       style="opacity:0.1">
      <path
         id="path7053"
         transform="translate(-56.56,-127.37)"
         d="m 147.41,238.36 a 18.18,18.18 0 0 1 4.51,-16.85 l 6.18,6.57 -2.87,-9.31 a 18.18,18.18 0 1 1 -7.82,19.59 z"
         inkscape:connector-curvature="0"
         style="fill:#6c63ff" />
      <path
         id="path7055"
         transform="translate(-56.56,-127.37)"
         d="m 151.13,242.32 c 4.15,-0.74 8.44,-0.64 12.55,-1.58 4.11,-0.94 8.27,-3.21 9.9,-7.1 0.88,-2.1 0.94,-4.44 1.56,-6.63 a 12.89,12.89 0 0 1 3.18,-5.43 18.19,18.19 0 1 1 -29.21,21.17 c 0.67,-0.16 1.34,-0.31 2.02,-0.43 z"
         inkscape:connector-curvature="0"
         style="opacity:0.1" />
    </g>
    <g
       transform="matrix(0.6913356,0,0,0.6913356,1175.0746,5.8205506)"
       id="g7063"
       style="opacity:0.1">
      <path
         id="path7059"
         transform="translate(-56.56,-127.37)"
         d="m 995.57,130.09 a 14.71,14.71 0 0 1 14,-1.67 l -3.09,6.61 6.13,-4.94 a 14.68,14.68 0 1 1 -17,0 z"
         inkscape:connector-curvature="0"
         style="fill:#6c63ff" />
      <path
         id="path7061"
         transform="translate(-56.56,-127.37)"
         d="m 993.72,134.07 c 1.8,2.89 3,6.13 4.94,8.94 1.94,2.81 4.89,5.24 8.3,5.29 1.83,0 3.61,-0.62 5.43,-0.81 a 10.56,10.56 0 0 1 5,0.75 14.69,14.69 0 1 1 -24.63,-15.56 c 0.35,0.45 0.67,0.91 0.96,1.39 z"
         inkscape:connector-curvature="0"
         style="opacity:0.1" />
    </g>
    <g
       transform="matrix(0.6913356,0,0,0.6913356,1175.0746,5.8205506)"
       id="g7069"
       style="opacity:0.1">
      <path
         id="path7065"
         transform="translate(-56.56,-127.37)"
         d="m 1057.23,202.2 a 17,17 0 0 1 16.2,-1.93 l -3.57,7.65 7.1,-5.73 a 17,17 0 1 1 -19.73,0 z"
         inkscape:connector-curvature="0"
         style="fill:#6c63ff" />
      <path
         id="path7067"
         transform="translate(-56.56,-127.37)"
         d="m 1055.08,206.8 c 2.09,3.35 3.48,7.11 5.73,10.36 2.25,3.25 5.65,6.06 9.6,6.13 2.13,0 4.18,-0.73 6.3,-0.95 a 12.15,12.15 0 0 1 5.81,0.88 17,17 0 1 1 -28.52,-18 c 0.38,0.5 0.74,1.03 1.08,1.58 z"
         inkscape:connector-curvature="0"
         style="opacity:0.1" />
    </g>
    <path
       id="path7091"
       d="m 1854.9617,54.200216 -0.1521,344.485624 c -24.1968,0 0,0 -24.4318,0.12444 h -90.9176 l -0.2765,-0.11061 a 56.039664,56.039664 0 0 0 -42.3305,0 l -0.2281,0.0968 h -91.1112 q -4.6042,-1.8666 -8.9873,-4.0927 a 54.428852,54.428852 0 0 0 -48.9051,0 q -4.4176,2.21918 -8.9874,4.0927 h -91.1802 l -0.2282,-0.0968 a 56.039664,56.039664 0 0 0 -42.3304,0 l -0.2766,0.11061 h -90.9037 a 122.3664,122.3664 0 0 1 -41.3488,-27.77787 V 54.200216 Z"
       inkscape:connector-curvature="0"
       style="fill:#ffffff;stroke-width:0.69133562" />
    <path
       id="path7093"
       d="M 1854.9617,40.726085 V 55.582887 H 1272.3593 V 40.726085 a 5.0951434,5.0951434 0 0 1 5.1021,-5.102057 h 572.3844 a 5.0951434,5.0951434 0 0 1 5.1159,5.102057 z"
       inkscape:connector-curvature="0"
       style="fill:#ededf4;stroke-width:0.69133562" />
    <circle
       id="circle7095"
       r="2.3851078"
       cy="45.454823"
       cx="1281.5956"
       style="opacity:0.8;fill:#fa5959;stroke-width:0.69133562" />
    <circle
       id="circle7097"
       r="2.3851078"
       cy="45.454823"
       cx="1288.1494"
       style="opacity:0.8;fill:#fed253;stroke-width:0.69133562" />
    <circle
       id="circle7099"
       r="2.3851078"
       cy="45.454823"
       cx="1294.6964"
       style="opacity:0.8;fill:#8ccf4d;stroke-width:0.69133562" />
    <path
       id="path7101"
       d="M 1348.7381,55.582887 V 399.50161 c 0,0 -31.1101,-0.12444 -76.3719,-0.81577 V 55.582887 Z"
       inkscape:connector-curvature="0"
       style="fill:#ededf4;stroke-width:0.69133562" />
    <path
       id="path7103"
       d="M 1855.812,55.582887 V 400.06851 c -0.2904,0.21431 -27.8193,-0.31801 -29.0361,0.12444 h -47.3565 V 55.582887 Z"
       inkscape:connector-curvature="0"
       style="fill:#ededf4;stroke-width:0.69133562" />
    <rect
       id="rect7105"
       height="6.9133558"
       width="55.306847"
       y="72.375435"
       x="1282.8953"
       style="fill:#ffffff;stroke-width:0.69133562" />
    <rect
       id="rect7107"
       height="6.9133558"
       width="55.306847"
       y="88.276154"
       x="1282.8953"
       style="fill:#ffffff;stroke-width:0.69133562" />
    <rect
       id="rect7133"
       height="6.9133558"
       width="55.306847"
       y="357.20569"
       x="1283.2202"
       style="fill:#ffffff;stroke-width:0.69133562" />
    <rect
       id="rect7135"
       height="6.9133558"
       width="6.9133558"
       y="58.548721"
       x="1783.5881"
       style="fill:#ffffff;stroke-width:0.69133562" />
    <rect
       id="rect7137"
       height="6.9133558"
       width="6.9133558"
       y="58.548721"
       x="1791.8842"
       style="fill:#ffffff;stroke-width:0.69133562" />
    <rect
       id="rect7139"
       height="6.9133558"
       width="6.9133558"
       y="58.548721"
       x="1800.1802"
       style="fill:#ffffff;stroke-width:0.69133562" />
    <rect
       id="rect7141"
       height="6.9133558"
       width="6.9133558"
       y="58.548721"
       x="1808.4762"
       style="fill:#ffffff;stroke-width:0.69133562" />
    <rect
       id="rect7143"
       height="6.9133558"
       width="6.9133558"
       y="58.548721"
       x="1816.7722"
       style="fill:#ffffff;stroke-width:0.69133562" />
    <rect
       id="rect7145"
       height="6.9133558"
       width="6.9133558"
       y="87.584816"
       x="1783.5881"
       style="fill:#ffffff;stroke-width:0.69133562" />
    <rect
       id="rect7147"
       height="6.9133558"
       width="6.9133558"
       y="87.584816"
       x="1791.8842"
       style="fill:#ffffff;stroke-width:0.69133562" />
    <rect
       id="rect7149"
       height="6.9133558"
       width="6.9133558"
       y="87.584816"
       x="1800.1802"
       style="fill:#ffffff;stroke-width:0.69133562" />
    <rect
       id="rect7151"
       height="6.9133558"
       width="6.9133558"
       y="87.584816"
       x="1808.4762"
       style="fill:#ffffff;stroke-width:0.69133562" />
    <rect
       id="rect7153"
       height="6.9133558"
       width="6.9133558"
       y="87.584816"
       x="1816.7722"
       style="fill:#ffffff;stroke-width:0.69133562" />
    <rect
       id="rect7155"
       height="6.9133558"
       width="6.9133558"
       y="116.62091"
       x="1783.5881"
       style="fill:#ffffff;stroke-width:0.69133562" />
    <rect
       id="rect7157"
       height="6.9133558"
       width="6.9133558"
       y="116.62091"
       x="1791.8842"
       style="fill:#ffffff;stroke-width:0.69133562" />
    <rect
       id="rect7159"
       height="6.9133558"
       width="6.9133558"
       y="116.62091"
       x="1800.1802"
       style="fill:#ffffff;stroke-width:0.69133562" />
    <rect
       id="rect7161"
       height="6.9133558"
       width="6.9133558"
       y="116.62091"
       x="1808.4762"
       style="fill:#ffffff;stroke-width:0.69133562" />
    <rect
       id="rect7163"
       height="6.9133558"
       width="6.9133558"
       y="116.62091"
       x="1816.7722"
       style="fill:#ffffff;stroke-width:0.69133562" />
    <rect
       id="rect7165"
       height="6.9133558"
       width="6.9133558"
       y="145.65701"
       x="1783.5881"
       style="fill:#ffffff;stroke-width:0.69133562" />
    <rect
       id="rect7167"
       height="6.9133558"
       width="6.9133558"
       y="145.65701"
       x="1791.8842"
       style="fill:#ffffff;stroke-width:0.69133562" />
    <rect
       id="rect7169"
       height="6.9133558"
       width="6.9133558"
       y="145.65701"
       x="1800.1802"
       style="fill:#ffffff;stroke-width:0.69133562" />
    <rect
       id="rect7171"
       height="6.9133558"
       width="6.9133558"
       y="145.65701"
       x="1808.4762"
       style="fill:#ffffff;stroke-width:0.69133562" />
    <rect
       id="rect7173"
       height="6.9133558"
       width="6.9133558"
       y="145.65701"
       x="1816.7722"
       style="fill:#ffffff;stroke-width:0.69133562" />
    <rect
       id="rect7175"
       height="6.9133558"
       width="6.9133558"
       y="174.6931"
       x="1783.5881"
       style="fill:#ffffff;stroke-width:0.69133562" />
    <rect
       id="rect7177"
       height="6.9133558"
       width="6.9133558"
       y="174.6931"
       x="1791.8842"
       style="fill:#ffffff;stroke-width:0.69133562" />
    <rect
       id="rect7179"
       height="6.9133558"
       width="6.9133558"
       y="174.6931"
       x="1800.1802"
       style="fill:#ffffff;stroke-width:0.69133562" />
    <rect
       id="rect7181"
       height="6.9133558"
       width="6.9133558"
       y="174.6931"
       x="1808.4762"
       style="fill:#ffffff;stroke-width:0.69133562" />
    <rect
       id="rect7183"
       height="6.9133558"
       width="6.9133558"
       y="174.6931"
       x="1816.7722"
       style="fill:#ffffff;stroke-width:0.69133562" />
    <rect
       id="rect7185"
       height="6.9133558"
       width="6.9133558"
       y="203.7292"
       x="1783.5881"
       style="fill:#ffffff;stroke-width:0.69133562" />
    <rect
       id="rect7187"
       height="6.9133558"
       width="6.9133558"
       y="203.7292"
       x="1791.8842"
       style="fill:#ffffff;stroke-width:0.69133562" />
    <rect
       id="rect7189"
       height="6.9133558"
       width="6.9133558"
       y="203.7292"
       x="1800.1802"
       style="fill:#ffffff;stroke-width:0.69133562" />
    <rect
       id="rect7191"
       height="6.9133558"
       width="6.9133558"
       y="203.7292"
       x="1808.4762"
       style="fill:#ffffff;stroke-width:0.69133562" />
    <rect
       id="rect7193"
       height="6.9133558"
       width="6.9133558"
       y="203.7292"
       x="1816.7722"
       style="fill:#ffffff;stroke-width:0.69133562" />
    <rect
       id="rect7195"
       height="6.9133558"
       width="6.9133558"
       y="232.76529"
       x="1783.5881"
       style="fill:#ffffff;stroke-width:0.69133562" />
    <rect
       id="rect7197"
       height="6.9133558"
       width="6.9133558"
       y="232.76529"
       x="1791.8842"
       style="fill:#ffffff;stroke-width:0.69133562" />
    <rect
       id="rect7199"
       height="6.9133558"
       width="6.9133558"
       y="232.76529"
       x="1800.1802"
       style="fill:#ffffff;stroke-width:0.69133562" />
    <rect
       id="rect7201"
       height="6.9133558"
       width="6.9133558"
       y="232.76529"
       x="1808.4762"
       style="fill:#ffffff;stroke-width:0.69133562" />
    <rect
       id="rect7203"
       height="6.9133558"
       width="6.9133558"
       y="232.76529"
       x="1816.7722"
       style="fill:#ffffff;stroke-width:0.69133562" />
    <rect
       id="rect7205"
       height="6.9133558"
       width="6.9133558"
       y="261.80139"
       x="1783.5881"
       style="fill:#ffffff;stroke-width:0.69133562" />
    <rect
       id="rect7207"
       height="6.9133558"
       width="6.9133558"
       y="261.80139"
       x="1791.8842"
       style="fill:#ffffff;stroke-width:0.69133562" />
    <rect
       id="rect7209"
       height="6.9133558"
       width="6.9133558"
       y="261.80139"
       x="1800.1802"
       style="fill:#ffffff;stroke-width:0.69133562" />
    <rect
       id="rect7211"
       height="6.9133558"
       width="6.9133558"
       y="261.80139"
       x="1808.4762"
       style="fill:#ffffff;stroke-width:0.69133562" />
    <rect
       id="rect7213"
       height="6.9133558"
       width="6.9133558"
       y="261.80139"
       x="1816.7722"
       style="fill:#ffffff;stroke-width:0.69133562" />
    <rect
       id="rect7215"
       height="6.9133558"
       width="6.9133558"
       y="290.83749"
       x="1783.5881"
       style="fill:#ffffff;stroke-width:0.69133562" />
    <rect
       id="rect7217"
       height="6.9133558"
       width="6.9133558"
       y="290.83749"
       x="1791.8842"
       style="fill:#ffffff;stroke-width:0.69133562" />
    <rect
       id="rect7219"
       height="6.9133558"
       width="6.9133558"
       y="290.83749"
       x="1800.1802"
       style="fill:#ffffff;stroke-width:0.69133562" />
    <rect
       id="rect7221"
       height="6.9133558"
       width="6.9133558"
       y="290.83749"
       x="1808.4762"
       style="fill:#ffffff;stroke-width:0.69133562" />
    <rect
       id="rect7223"
       height="6.9133558"
       width="6.9133558"
       y="290.83749"
       x="1816.7722"
       style="fill:#ffffff;stroke-width:0.69133562" />
    <rect
       id="rect7225"
       height="6.9133558"
       width="6.9133558"
       y="319.87357"
       x="1783.5881"
       style="fill:#ffffff;stroke-width:0.69133562" />
    <rect
       id="rect7227"
       height="6.9133558"
       width="6.9133558"
       y="319.87357"
       x="1791.8842"
       style="fill:#ffffff;stroke-width:0.69133562" />
    <rect
       id="rect7229"
       height="6.9133558"
       width="6.9133558"
       y="319.87357"
       x="1800.1802"
       style="fill:#ffffff;stroke-width:0.69133562" />
    <rect
       id="rect7231"
       height="6.9133558"
       width="6.9133558"
       y="319.87357"
       x="1808.4762"
       style="fill:#ffffff;stroke-width:0.69133562" />
    <rect
       id="rect7233"
       height="6.9133558"
       width="6.9133558"
       y="319.87357"
       x="1816.7722"
       style="fill:#ffffff;stroke-width:0.69133562" />
    <rect
       id="rect7235"
       height="6.9133558"
       width="6.9133558"
       y="348.90967"
       x="1783.5881"
       style="fill:#ffffff;stroke-width:0.69133562" />
    <rect
       id="rect7237"
       height="6.9133558"
       width="6.9133558"
       y="348.90967"
       x="1791.8842"
       style="fill:#ffffff;stroke-width:0.69133562" />
    <rect
       id="rect7239"
       height="6.9133558"
       width="6.9133558"
       y="348.90967"
       x="1800.1802"
       style="fill:#ffffff;stroke-width:0.69133562" />
    <rect
       id="rect7241"
       height="6.9133558"
       width="6.9133558"
       y="348.90967"
       x="1808.4762"
       style="fill:#ffffff;stroke-width:0.69133562" />
    <rect
       id="rect7243"
       height="6.9133558"
       width="6.9133558"
       y="348.90967"
       x="1816.7722"
       style="fill:#ffffff;stroke-width:0.69133562" />
    <rect
       id="rect7245"
       height="6.9133558"
       width="6.9133558"
       y="377.94577"
       x="1783.5881"
       style="fill:#ffffff;stroke-width:0.69133562" />
    <rect
       id="rect7247"
       height="6.9133558"
       width="6.9133558"
       y="377.94577"
       x="1791.8842"
       style="fill:#ffffff;stroke-width:0.69133562" />
    <rect
       id="rect7249"
       height="6.9133558"
       width="6.9133558"
       y="377.94577"
       x="1800.1802"
       style="fill:#ffffff;stroke-width:0.69133562" />
    <rect
       id="rect7251"
       height="6.9133558"
       width="6.9133558"
       y="377.94577"
       x="1808.4762"
       style="fill:#ffffff;stroke-width:0.69133562" />
    <rect
       id="rect7253"
       height="6.9133558"
       width="6.9133558"
       y="377.94577"
       x="1816.7722"
       style="fill:#ffffff;stroke-width:0.69133562" />
    <path
       id="path7255"
       d="m 1584.8223,132.38336 -21.8255,3.2631 -45.0405,6.7267 -99.2274,14.82915 -0.3526,0.0484 -32.4928,213.96838 -0.1313,0.85034 369.8645,-161.50983 0.9817,-0.42863 z m 149.4875,68.69802 -11.3932,4.31393 -16.7995,-8.16467 11.3033,-3.79543 z m -180.6944,-59.81436 0.3733,-0.0553 4.148,2.56486 -2.8275,0.45628 -5.033,0.80886 v 0 l -3.8507,-2.66164 5.904,-0.89873 z m -3.5327,4.78404 3.6571,2.53029 1.8459,1.27897 -1.8459,0.36641 -1.3826,0.27653 -3.6572,0.72591 -5.2956,-4.09962 6.2635,-1.00935 v 0 z m 5.7657,-0.9333 v 0 l 3.5604,-0.58072 5.5929,3.45668 -8.1232,1.61772 -1.7906,-1.23749 -3.6571,-2.53029 z m 15.8108,-2.55794 7.0793,-1.1407 5.2749,2.76534 -7.6047,1.51402 -2.8345,-1.61772 -2.5164,-1.43798 z m 6.6922,5.35785 v 0 l 3.2562,1.85969 -0.7467,0.1521 -8.2061,1.63155 -5.0952,-3.13175 8.6694,-1.72143 z m -23.4294,8.16467 7.4733,-1.49328 1.1062,0.77429 v 0 l 0.2558,0.17284 1.597,1.10614 -7.6047,1.63846 -2.1363,-1.68686 -0.159,-0.13135 z m 8.7731,-1.74908 8.773,-1.74907 2.074,1.27205 0.3872,0.23506 0.5945,0.3664 -8.8491,1.915 -1.4656,-1.01626 v 0 l -0.2627,-0.18666 z m -28.1305,53.01853 -17.2004,4.53516 -4.9845,-8.81453 16.2533,-3.9337 z m -6.4985,-9.06341 -16.1773,3.92679 -4.148,-7.3489 14.9605,-3.53964 0.318,-0.076 3.9614,5.53068 v 0.0484 z m 52.2165,-30.64691 1.5901,1.10614 -3.9406,0.85034 -4.6527,0.99553 -0.4978,0.11061 -1.2651,-0.9817 -1.4656,-1.1407 -6.2221,-4.83935 8.1232,-1.85278 5.8211,4.03049 v 0 z m -28.5936,-1.10613 1.0647,-0.24197 9.9137,-2.26067 6.1667,4.77713 1.4656,1.14071 1.3136,1.01626 -11.6698,2.52337 -1.6523,-1.38267 -1.1199,-0.94021 -4.8394,-4.06506 z m 20.8991,5.19193 1.0715,0.8296 0.3734,0.29036 5.2956,4.09962 -11.9601,2.83448 -6.5331,-5.53069 z m -13.8267,2.0187 -3.7816,0.81577 h -0.069 l -19.8206,4.28628 -0.8227,0.17975 -6.0699,-7.15532 6.6714,-1.52094 15.5965,-3.55346 z m -23.6437,6.08375 19.0532,-4.14801 v 0 l 1.6385,-0.35258 3.8645,-0.83652 6.5608,5.53069 -4.3831,1.037 -1.6108,0.38023 -19.9243,4.71491 -5.1988,-6.12523 -0.159,-0.18666 z m 10.6051,14.17929 -10.1627,2.46116 -6.4985,1.57624 -5.0537,-7.03088 11.331,-2.68238 4.632,-1.09231 z m -10.1419,3.45668 10.8332,-2.62016 6.5124,7.68074 -17.0898,4.50751 -0.2904,0.076 -5.8902,-8.20615 z m 5.4339,-10.45299 20.0487,-4.74256 1.6108,-0.38024 4.4591,-1.05774 7.3835,6.22202 -3.2147,0.78121 -6.222,1.5002 v 0 l -18.3481,4.4522 z m 27.287,-6.45708 11.9947,-2.83447 2.5233,1.95648 5.268,4.08579 -5.268,1.27897 -7.1415,1.72834 z m 14.518,-2.074 -1.3342,-1.03701 1.3342,-0.31801 8.2961,-1.95648 8.4204,5.82796 -10.2456,2.48189 z m 0,-2.33672 -2.3021,0.54616 -5.7381,-4.44529 -1.0024,-0.76047 2.5441,-0.55307 6.4709,-1.38267 h 0.1175 l 7.1069,4.92231 z m -19.9312,-13.13537 -5.1366,-3.96827 7.6877,-1.65229 5.4615,3.7816 z m -1.2029,0.27653 -8.939,2.03944 -1.3826,0.3111 -0.5946,0.13827 -4.9223,-4.14802 5.5307,-1.18909 1.3827,-0.29728 3.8161,-0.82269 z m -12.0845,2.76534 -14.7877,3.35989 -7.342,1.67304 -3.9683,-4.66652 11.1444,-2.39893 9.969,-2.15006 z m -23.146,5.27489 -8.4066,1.915 -5.8487,1.33428 -3.5396,-4.92922 9.1947,-1.97722 4.6112,-1.02318 z m -8.372,2.88979 9.0634,-2.07401 6.0353,7.12767 -14.8429,3.21471 -0.4148,0.0899 -5.1505,-7.17606 z m 15.7901,5.87635 1.2582,1.47946 4.1135,4.83935 -3.9545,0.97478 -11.9117,2.76534 -4.8393,-6.76126 z m 13.5502,14.48348 16.993,-4.14801 v 0 l 7.3627,-1.79056 3.6226,-0.878 7.3835,6.22202 0.553,0.4632 -0.553,0.14518 -28.8702,7.60469 z m 35.3687,-1.8113 -6.222,-5.25415 6.222,-1.50711 6.222,-1.51403 8.1854,6.35338 -12.7275,3.35989 z m 7.418,-8.56565 10.3286,-2.50263 8.6278,5.97314 -10.8055,2.8483 z m 11.573,-2.79991 11.8633,-2.87595 9.0703,5.57216 -12.3403,3.29076 z m -1.0509,-0.73281 -8.4066,-5.82105 11.0614,-2.62016 9.0979,5.5929 z m -9.4782,-6.55386 -7.0792,-4.90157 10.5981,-2.28832 7.4872,4.56281 z m -8.1508,-5.6413 -0.3249,-0.22814 -9.5681,-6.623 9.4436,-2.15697 0.1245,0.076 10.8194,6.65756 z m -10.9577,-7.60469 -5.4408,-3.76778 8.9874,-1.93574 5.8141,3.5742 z m -18.9149,-4.14802 v 0 l 2.3021,1.77673 -2.8345,0.60838 -1.3826,0.29727 -6.4433,1.38268 -2.8345,-2.38511 3.4567,-0.69134 v 0 l 1.2721,-0.24888 h 0.055 l 4.4591,-0.89182 1.3827,-0.26962 v 0 l 0.3733,0.29727 v 0 z m -18.6661,3.18015 6.2981,-1.25824 2.8552,2.40585 -9.0703,1.95648 -11.8357,2.59251 -2.3989,-2.82756 z m -12.7966,5.87635 -3.9752,0.85725 -9.7686,2.07401 -2.2191,-3.09718 11.8702,-2.37128 1.6799,-0.33184 z m -14.76,3.18014 -12.4441,2.67547 -1.915,-3.37372 12.1122,-2.41967 z m 0.6083,0.84343 3.5466,4.94305 -13.1354,2.99348 -2.9589,-5.23341 z m 4.1481,5.77957 5.1435,7.16223 -14.2968,3.09719 -4.0927,-7.23829 z m 5.7519,8.01258 0.9056,1.23749 v 0 l 3.9476,5.53068 -0.3665,0.083 -14.8015,3.50507 -4.0996,-7.25211 z m -6.623,18.80433 -17.719,4.3485 -3.2423,-7.66692 16.7994,-3.97518 z m 0.4839,0.86416 4.9984,8.82836 -18.8182,5.02601 -4.0028,-9.4713 z m 5.4823,9.6787 5.9524,10.53596 -20.1179,5.72426 -4.7702,-11.21347 z m 0.954,-0.24888 17.2834,-4.56281 7.0724,9.8377 -18.4103,5.24033 z m 18.2997,-4.83935 17.4701,-4.56281 7.7982,9.18785 -18.2582,5.19193 z m 18.514,-4.83935 v 0 l 28.1857,-7.43877 1.4449,-0.38023 9.5335,8.09554 -31.4004,8.93205 z m 30.7368,-8.13702 12.8035,-3.33915 9.8861,7.66 -13.1354,3.74013 z m 13.9511,-3.6779 10.8816,-2.86904 10.4668,7.25211 -11.483,3.2631 z m 12.0915,-3.11793 12.444,-3.27693 11.0614,6.79583 -13.0455,3.71248 z m 13.723,-3.62951 11.1305,-2.93126 11.331,6.46399 -11.4278,3.24928 z m -1.12,-0.69133 -9.0357,-5.53069 10.847,-2.65473 9.2432,5.27489 z m -10.1764,-6.2635 -9.0911,-5.58599 10.37,-2.45425 9.5059,5.42007 z m -10.2387,-6.29807 -7.4595,-4.54899 10.1488,-2.19845 7.6047,4.33468 z m -8.6141,-5.29563 -10.9646,-6.74052 9.3123,-2.1224 11.7527,6.69212 z m -12.126,-7.45951 h -0.042 l -5.7726,-3.54655 5.7519,-1.23749 3.3322,-0.69134 5.9662,3.40828 z m -0.042,-5.77265 -3.0972,0.69133 h -0.069 l -3.7816,0.84343 -0.4355,-0.26962 -0.401,-0.24888 -2.1777,-1.34119 7.978,-1.59007 1.0439,-0.2074 3.0073,1.71451 z m -12.5132,-0.82269 -8.6693,1.72833 -4.6527,-3.22853 8.2269,-1.63155 z m -9.969,1.98413 -7.3766,1.47254 -0.2143,-0.16592 -1.3826,-1.07157 -2.6686,-2.074 2.6686,-0.53233 1.3826,-0.27654 2.9313,-0.58072 z m -8.9874,1.44489 0.3595,0.27653 -0.3595,0.0691 -10.2179,2.03944 -3.9959,-3.36681 10.3009,-2.074 z m -11.407,2.62016 -5.5307,1.11305 v 0 l -14.6356,2.91744 -2.1777,-2.56486 -0.9056,-1.00935 0.8157,-0.159 13.1354,-2.61325 v 0 l 5.3026,-1.05775 z m -22.3371,3.0004 1.0578,1.2444 -1.0025,0.20049 -12.444,2.48881 -2.6271,-3.66408 13.0594,-2.59251 z m -13.4257,4.14801 -11.9947,2.39202 -2.1293,-3.76086 11.4969,-2.28832 z m -12.9833,2.59251 -13.4119,2.67547 -1.6315,-3.87148 12.9072,-2.55794 z m 0.4978,0.87108 1.915,3.38755 -13.889,2.99348 -1.5555,-3.68482 z m 2.4058,4.25863 2.9728,5.24724 -14.6218,3.33224 -2.3505,-5.56526 z m 3.4567,6.11141 4.0858,7.22445 -15.7486,3.40829 -3.0696,-7.27285 z m 4.5766,8.09554 4.0928,7.25902 -16.682,3.94753 -3.2907,-7.78444 z m -9.8861,20.00034 -17.8226,4.32084 -2.2814,-8.00566 16.8548,-3.98901 z m 0.3734,0.89182 4.0097,9.48512 -19.0808,5.03293 -2.8829,-10.16955 z m 4.383,10.37003 4.7495,11.22729 -20.5465,5.84179 -3.3944,-12.0085 z m 5.1228,12.1122 5.5307,13.13538 -22.1711,6.81657 -3.9821,-14.05485 z m 0.9264,-0.2627 20.2285,-5.75883 6.9618,12.29886 -21.6389,6.59534 z m 21.148,-6.02154 18.5278,-5.27489 8.2545,11.50383 -19.8275,6.04918 z m 19.5026,-5.53068 18.3411,-5.21267 9.1878,10.8194 -19.2882,5.88327 z M 1564.0546,213 l 31.6009,-8.98736 11.2964,9.51278 -33.7095,10.29399 z m 32.707,-9.30537 13.2045,-3.75396 11.7528,9.09107 -13.6539,4.14801 z m 14.3383,-4.07888 11.573,-3.24237 12.444,8.61404 -12.2919,3.74704 z m 12.7552,-3.6226 13.1354,-3.73321 13.1353,8.09554 -13.882,4.23097 z m 14.3728,-4.09271 11.49,-3.2631 13.5502,7.73604 -11.884,3.6226 z m 12.7898,-3.6226 10.7571,-3.06261 13.9443,7.35581 -11.1858,3.41519 z m -1.1546,-0.69133 -11.2895,-6.42251 10.37,-2.73078 11.6352,6.13215 z m -12.4924,-7.11385 -9.2086,-5.24723 10.0658,-2.44042 9.4368,4.97762 z m -10.4115,-5.93857 -9.5059,-5.42007 9.5404,-2.25375 9.9622,5.25415 z m -10.7157,-6.11141 -7.5632,-4.31393 9.2915,-2.00487 7.743,4.07888 z m -8.78,-4.99835 -11.7527,-6.69904 8.4066,-1.92192 12.5547,6.623 z m -12.9764,-7.39729 -5.9454,-3.39446 8.137,-1.75599 6.1529,3.24927 z m -7.1898,-4.09962 -2.9797,-1.70069 8.0679,-1.61081 2.9796,1.56933 z m -4.2379,-2.41968 -5.3855,-3.07644 7.6807,-1.52094 5.6966,3.0004 z m -8.0887,-3.51198 -8.6002,1.71451 -5.5307,-3.40137 8.704,-1.38267 z m -27.5359,5.48229 -10.2386,2.03252 -5.3648,-4.51442 10.2594,-1.6592 z m -11.4277,2.27449 -5.2404,1.04392 -12.2919,2.44041 -1.4864,0.29728 -4.5904,-5.40625 5.8625,-0.94713 7.2797,-1.17527 5.0468,-0.81577 z m -20.0902,3.98901 -12.9557,2.57868 -4.2863,-5.96623 12.6307,-2.074 z m -13.9858,2.76534 -11.3793,2.26067 -3.6987,-6.49164 10.7641,-1.74217 z m -12.368,2.46116 -12.7966,2.54411 -3.0349,-7.16224 12.1122,-1.95648 z m -13.7575,2.76534 -12.5893,2.50263 -2.2122,-7.81209 11.7527,-1.90117 z m 0.3802,0.89182 1.6385,3.87148 -13.2184,2.63399 -1.1269,-3.97518 z m 2.0187,4.77022 1.5624,3.69864 -13.7645,2.96583 -1.1338,-4.00283 z m 1.9426,4.59047 2.3506,5.57216 -14.5665,3.31841 -1.673,-5.89709 z m 2.7308,6.46398 3.0696,7.26594 -15.6864,3.38754 -2.0741,-7.30741 z m 3.4567,8.15776 3.2977,7.79827 -16.7442,3.96135 -2.3574,-8.34442 z m -11.8564,20.90599 -19.5233,4.72874 -1.0785,-8.40664 18.3273,-4.33468 z m 0.2558,0.91948 2.8829,10.21102 -21.1273,5.53069 -1.3826,-10.99224 z m 3.1456,11.10285 3.4083,12.02924 -23.0146,6.54695 -1.6592,-12.96946 z m 3.664,12.94871 3.9891,14.0756 -25.1854,7.67382 -1.9496,-15.1679 z m 4.2448,14.98816 4.8394,17.06216 -27.7571,9.31921 -2.399,-18.66607 z m 0.9126,-0.27653 22.3509,-6.81657 6.6576,15.74171 -24.1968,8.10936 z m 23.2842,-7.12076 21.7425,-6.62991 8.2131,14.51805 -23.3119,7.82592 z m 22.6758,-6.91336 19.9381,-6.07684 9.6234,13.405 -21.3692,7.18989 z m 20.8783,-6.34646 19.3574,-5.904 10.5775,12.44404 -20.346,6.83039 z m 20.3668,-6.22202 33.9238,-10.37003 12.6791,10.68113 -36.0462,12.09838 z m 35.0092,-10.67422 13.7092,-4.14801 13.0455,10.10732 -14.0963,4.72874 z m 14.8223,-4.52134 12.3749,-3.76777 13.6884,9.47821 -13.0524,4.37615 z m 13.5363,-4.14801 13.9719,-4.25863 14.2899,8.84219 -14.6287,4.90848 z m 15.2094,-4.62503 11.9394,-3.64334 14.5733,8.29602 -12.2366,4.11345 z m 13.1976,-4.02358 11.2411,-3.45668 14.8568,7.83284 -11.566,3.8853 z m 12.5339,-3.82308 10.2179,-3.11793 15.2094,7.37655 -10.5843,3.54656 z m -1.196,-0.63603 -13.9097,-7.33507 9.6787,-2.76535 14.3936,6.98941 z m -15.1472,-7.94345 -11.6006,-6.11832 9.2363,-2.44733 11.9739,5.81414 z m -12.845,-6.77509 -9.3952,-4.95687 8.8905,-2.15697 9.6787,4.69417 z m -10.6742,-5.62747 -9.9483,-5.24724 8.296,-1.9703 10.4461,5.0744 z m -11.2273,-5.92474 -7.7015,-4.06506 8.0264,-1.73525 7.9227,3.85074 z m -8.9874,-4.75639 -12.5823,-6.63683 7.0931,-1.61081 13.4396,6.52621 z m -13.8751,-7.31433 -6.1252,-3.23545 6.7751,-1.45872 6.3672,3.09027 z m -7.4387,-3.92679 -2.9451,-1.55551 6.6714,-1.32736 2.9727,1.43798 z m -4.2863,-2.26067 -5.6897,-3.00039 6.222,-1.24441 6.0354,2.93126 z m -7.0309,-3.70556 -5.1988,-2.76534 6.222,-1.00244 5.1781,2.51647 z m -6.6023,-3.45667 -4.4245,-2.32981 5.904,-0.90565 4.6319,2.25376 z m -1.5624,0.25579 -6.7059,1.05083 v 0 l -0.9126,0.14518 -4.2794,-2.4335 1.9634,-0.29728 5.4685,-0.83651 z m -9.098,1.47254 -8.6278,1.38268 -4.148,-2.55103 8.4412,-1.32737 z m -19.2882,3.11101 -6.5815,1.06466 -3.595,-2.76534 6.2981,-0.96096 z m -7.8605,1.24441 -10.1903,1.64538 -3.4567,-2.91053 10.0313,-1.53476 z m -11.4347,1.84586 -4.9845,0.80887 -6.4156,1.037 -6.547,1.05774 -2.7169,-3.20088 9.1394,-1.38267 3.2701,-0.50468 4.7909,-0.7259 z m -19.0809,3.05571 -12.5339,2.074 -2.4127,-3.35989 12.2228,-1.8666 z m -13.5847,2.19153 -10.6466,1.72143 -1.9979,-3.53273 10.2248,-1.56242 z m -11.649,1.88043 -12.0016,1.97031 -1.5693,-3.71938 11.5591,-1.76291 z m -12.9625,2.07401 -11.6421,1.88043 -1.0993,-3.87839 11.1651,-1.70068 z m -12.5893,2.08092 -11.8495,1.915 -0.5323,-4.09962 11.2757,-1.72142 z m 0.2627,0.92639 2.2123,7.82592 -13.1354,2.60634 -1.0715,-8.52417 z m 2.475,8.7454 1.1269,3.98209 -13.8267,2.76534 -0.5323,-4.10653 z m 1.3827,4.90157 1.1338,4.01666 -14.5734,3.13866 -0.56,-4.36924 z m 1.3827,4.93613 1.673,5.91092 -15.5758,3.55347 -0.8089,-6.29807 z m 1.9357,6.8304 2.074,7.3005 -16.8409,3.64334 -0.9472,-7.36272 z m 2.3229,8.21998 2.4058,8.37207 -18.1959,4.30011 -1.1476,-8.98736 z m -15.5551,22.24718 -20.9405,5.0744 0.1521,-8.82835 19.71,-4.65961 z m 0.1245,0.95404 1.3826,11.01298 -22.655,5.95931 0.2074,-11.89097 z m 1.5347,11.96702 1.6662,12.98328 -24.7706,7.04471 0.2489,-14.00646 z m 1.7837,13.93733 1.9496,15.20938 -27.1419,8.29603 0.2904,-16.37774 z m 2.074,16.1496 2.392,18.66606 -30.0454,10.10041 0.3664,-20.44971 z m 2.5165,19.64775 3.0695,23.89948 -33.7234,12.77588 0.4701,-26.54729 z m 0.9263,-0.3111 27.8954,-9.36068 6.0907,21.51436 -30.9234,11.71123 z m 28.8011,-9.6787 24.2935,-8.15084 8.296,19.59245 -26.4988,10.03819 z m 25.2268,-8.46886 23.4156,-7.83283 10.1004,17.8572 -25.2545,9.56117 z m 24.342,-8.17158 21.4314,-7.19681 11.6904,16.28787 -23.0353,8.75922 z m 22.4061,-7.51482 20.4221,-6.85114 12.7137,14.97433 -21.4729,8.13011 z m 21.4314,-7.18298 36.2399,-12.16059 14.8913,12.54774 -38.4452,14.55953 z m 37.2976,-12.51317 14.1102,-4.71491 15.2093,11.7527 -14.518,5.48921 z m 15.2094,-5.10897 13.1354,-4.40381 15.7901,10.93001 -13.7576,5.21268 z m 14.2553,-4.78405 14.7047,-4.93613 16.3363,10.0451 -15.2993,5.7934 z m 15.9007,-5.33019 12.292,-4.14802 16.4883,9.40217 -12.4993,4.73565 z m 13.5018,-4.53516 11.6283,-3.89914 16.6543,8.78688 -11.8495,4.48677 z m 12.845,-4.31394 10.6466,-3.56729 16.8686,8.19233 -10.9162,4.14801 z m 21.9707,-8.37207 -11.255,3.77469 -15.1609,-7.32816 11.0613,-3.3668 z m -16.6543,-7.52865 -10.9922,3.34607 -14.3591,-6.97558 10.6466,-3.02805 z m -16.0528,-7.25211 -10.5844,3.01423 -11.9393,-5.80031 10.37,-2.76534 z m -13.564,-6.13906 -10.2733,2.71004 -9.6233,-4.67343 10.128,-2.45424 z m -11.1789,-5.06057 -10.0659,2.44041 -10.4391,-5.06749 9.6441,-2.28141 z m -12.285,-5.53069 -9.575,2.26067 -7.8813,-3.85765 9.4782,-2.07401 z m -9.4368,-4.27245 -9.4021,1.98413 -13.4673,-6.54004 8.5657,-1.92882 z m -15.6864,-7.13459 -8.5172,1.93574 -6.3396,-3.07644 7.7084,-1.65921 -0.1037,-0.48393 z m -7.9572,-3.60186 -8.2961,1.78365 -2.9312,-1.42415 7.0931,-1.41724 -0.1798,-0.89874 z m -4.3693,-1.97722 -8.296,1.64538 -6.0354,-2.93126 7.9919,-1.58316 z m -7.8328,-3.54655 -7.8951,1.57625 -5.1297,-2.47498 8.1025,-1.30663 z m -6.4502,-2.91743 -8.0195,1.29279 -4.6457,-2.25375 7.8881,-1.20292 z m -9.9621,-4.50751 3.6295,1.63846 -7.8467,1.21675 -3.4567,-1.68685 z m -9.3192,1.38267 3.4566,1.69377 -5.8141,0.88491 -3.2977,-1.73525 z m -11.3587,1.69377 v 0 l 4.148,-0.61529 3.3046,1.74217 -5.0675,0.7743 -2.2814,0.35258 -3.1386,-1.79748 z m -4.5697,0.69134 3.1456,1.79747 -8.3928,1.27897 -3.0004,-1.83895 z m -9.6787,1.4518 3.0073,1.85278 -7.4457,1.13379 -2.7653,-1.90808 z m -8.5726,1.28589 2.7654,1.90808 -6.222,0.94713 -2.5372,-1.96339 z m -7.2866,1.08539 2.5441,1.97031 -9.9622,1.52094 -2.475,-2.00487 z m -15.9008,2.3782 0.242,-0.0346 4.5628,-0.69133 2.399,2.02561 -4.715,0.69133 -2.4058,0.36641 -9.8239,1.5002 -1.8389,-2.16388 z m -12.7413,1.87352 1.8459,2.16388 -12.126,1.85278 -1.6178,-2.21919 z m -12.9487,1.93574 1.6108,2.23992 -10.1073,1.54168 -1.3135,-2.31597 z m -10.8194,1.61081 1.3135,2.32289 -11.4416,1.74908 -1.0162,-2.40585 z m -12.1191,1.8113 1.0232,2.40585 -11.0614,1.68686 -0.6913,-2.48881 z m -11.6836,1.74908 0.6914,2.48881 -11.1305,1.70068 -0.3319,-2.58559 z m -23.5054,3.50507 11.7527,-1.75599 0.3319,2.58559 -12.1537,1.85278 z m -0.062,3.65025 12.3196,-1.81821 0.5254,4.11345 -12.8934,2.074 z m -0.097,5.28872 13.0386,-2.10858 1.0923,8.53109 -14.2484,2.86904 z m -0.1175,10.26633 14.4005,-2.85521 0.5254,4.10653 -15.0365,3.0004 z m -0.09,5.20576 15.1748,-3.02114 0.56,4.37616 -15.8247,3.40828 z m -0.1037,5.745 15.9629,-3.45668 0.8089,6.30498 -16.8893,3.85074 z m -0.1383,7.69456 17.0276,-3.87839 0.9472,7.3489 -18.1061,3.91296 z m 18.0923,4.41764 1.1545,8.98736 -19.5648,4.63195 0.1729,-9.6787 z m -32.4306,-40.00068 14.0549,-2.07401 -0.048,2.68239 -14.4282,2.20536 z m -0.5669,3.77469 14.5181,-2.2261 -0.076,4.32776 -15.1679,2.45424 z m -0.8434,5.53069 15.3062,-2.47498 -0.2005,9.32611 -16.6819,3.31841 z m -1.6938,11.15124 16.8133,-3.34606 -0.069,4.23788 -17.4078,3.45668 z m -0.8503,5.37859 17.5392,-3.49816 -0.083,4.77713 -18.2443,3.92679 z m -0.9402,6.22202 18.3757,-3.95444 -0.1175,6.7267 -19.3574,4.41072 z m -1.2444,8.19233 19.4887,-4.43838 -0.1313,7.36964 -20.4774,4.43146 z m -1.2721,8.39973 20.6087,-4.45912 -0.1728,9.71327 -22.026,5.20575 z m -1.7421,11.47617 22.1642,-5.25415 -0.159,8.83527 -23.4087,5.68277 z m -1.5625,10.28707 23.5538,-5.70352 -0.2419,11.87023 -25.2891,6.67139 z m -2.074,13.90276 25.4274,-6.70596 -0.2489,14.02029 -27.4737,7.81901 z m -2.4542,16.16343 27.6188,-7.85358 -0.2903,16.4054 -30.0178,9.14637 z m -2.876,18.6868 30.1492,-9.18785 -0.3595,20.47044 -33.1841,11.13743 z m 28.6421,74.54672 -42.8144,18.66606 5.9385,-39.11577 37.4912,-14.20003 z m -36.7169,-21.49362 4.5075,-29.54769 33.3362,-11.18581 -0.4355,26.58877 z m 37.6778,21.07191 0.6153,-34.56678 33.8755,-12.82428 3.9544,30.64691 z m 39.3232,-17.16587 -3.9199,-30.56394 31.0617,-11.75271 7.6739,27.1211 z m 35.7006,-15.59653 -7.667,-27.0727 26.6096,-10.07277 10.3009,24.3765 z m 30.1215,-13.13537 -10.2871,-24.33502 25.3582,-9.60957 12.444,21.943 z m 28.3447,-12.38874 -12.3887,-21.8946 23.1597,-8.77305 14.1862,19.7722 z m 25.8491,-11.28951 -14.1171,-19.75838 21.5558,-8.15776 15.2716,17.97473 z m 23.5952,-10.30782 -15.2093,-17.97472 38.6318,-14.62867 17.4839,14.73237 z m 41.8535,-18.27891 -17.4217,-14.67706 14.5181,-5.53068 17.7397,13.74375 z m 15.8108,-6.91336 -17.6705,-13.69536 13.8267,-5.23341 18.2513,12.63762 z m 15.4306,-6.74052 -18.189,-12.60305 15.3753,-5.82104 18.6661,11.49691 z m 16.9378,-7.39729 -18.6661,-11.44852 12.5547,-4.75639 18.7213,10.68114 z m 13.7368,-6.00079 -18.6661,-10.63966 11.8979,-4.50751 18.7767,9.89993 z m 13.1354,-5.73118 -18.7076,-9.86535 10.9646,-4.14802 18.8597,9.1602 z m 12.2712,-5.35785 -18.7836,-9.12563 11.4416,-4.33467 18.7421,8.48269 z"
       inkscape:connector-curvature="0"
       style="fill:#ededf4;stroke-width:0.69133562" />
    <g
       transform="matrix(1.5143272,0,0,1.5143272,-829.82257,-59.656263)"
       id="g7938">
      <polygon
         style="fill:#ededf4"
         points="495.99,198.54 495.93,196.35 557.96,185.27 591.2,211.85 591.2,276.11 522.51,291.62 498.14,260.6 "
         id="polygon7257"
         transform="matrix(0.6913356,0,0,0.6913356,1175.0746,5.8205506)" />
      <polygon
         style="opacity:0.1"
         points="498.14,260.6 495.99,198.54 521.4,221.82 591.2,212.3 591.2,276.11 523.24,291.46 522.51,291.62 "
         id="polygon7259"
         transform="matrix(0.6913356,0,0,0.6913356,1175.0746,5.8205506)" />
      <polygon
         style="opacity:0.1"
         points="521.4,221.82 590.09,212.96 591.2,212.5 591.2,276.11 523.24,291.46 "
         id="polygon7261"
         transform="matrix(0.6913356,0,0,0.6913356,1175.0746,5.8205506)" />
      <polygon
         style="fill:#6c63ff"
         points="545.7,233.27 547.7,233.27 547.7,206.18 553.46,206.18 550.08,200.31 546.7,194.45 543.31,200.31 539.93,206.18 545.7,206.18 "
         id="polygon7263"
         transform="matrix(0.6913356,0,0,0.6913356,1175.0746,5.8205506)" />
      <polygon
         style="fill:#6c63ff"
         points="550.88,244.04 549.51,245.49 567.33,262.38 567.31,262.41 563.93,268.27 570.7,268.27 577.46,268.27 574.08,262.41 570.7,256.54 568.36,260.6 "
         id="polygon7265"
         transform="matrix(0.6913356,0,0,0.6913356,1175.0746,5.8205506)" />
      <polygon
         style="fill:#6c63ff"
         points="578.08,241.94 583.27,237.6 588.47,233.26 582.12,230.93 575.76,228.6 576.82,234.71 554.02,238.78 554.37,240.75 577.16,236.68 "
         id="polygon7267"
         transform="matrix(0.6913356,0,0,0.6913356,1175.0746,5.8205506)" />
    </g>
  </g>
  <path
     d="m 255.5,438.92 c 0,0 33,121 45,136 12,15 105,138 149,130 0,0 -13,56 -22,58 0,0 -91,-90 -122,-89 0,0 -57,-47 -63,-70 -6,-23 -54,-98 -54,-98 0,0 -24,-53 -14,-76 10,-23 63,-13 81,9 z"
     id="path6291"
     inkscape:connector-curvature="0"
     style="fill:#cbcdda" />
  <path
     d="m 385.17,182.77 a 21.43,21.43 0 0 0 -17.48,-19.49 c -6.26,-1 -13.25,0.77 -18.63,-2.6 -2.43,-1.53 -4.17,-3.92 -6.13,-6 -7.68,-8.21001 -19.21,-12.00003 -30.45,-12.33003 -11.24,-0.33 -22.32,2.39001 -33.12,5.50002 C 257.8,154.06 235.02,163.17 223.55,182.45 c -17.44,29.35 -1.35,68.91 -15.14,100.14 -6,13.64 -17.44,24.78 -21.16,39.22 -5,19.29 4.86,38.86 12.45,57.28 a 273.18,273.18 0 0 1 15.44,51.2 c 3.05,15.48 4.75,31.57 1.31,47 -1.51,6.75 -4,13.62 -2.66,20.4 2,10.26 11.92,16.73 20.94,22 l 2.35,1.38 c 13,7.6 26.37,15.36 41.26,17.24 9.25,1.16 19,-0.12 27,-4.85 8,-4.73 14.09,-13.17 14.77,-22.46 0.76,-10.51 -5.09,-20.35 -6.35,-30.82 a 9.37,9.37 0 0 1 0.35,-4.72 c 0.83,-2 2.76,-3.29 4.54,-4.53 25.64,-17.88 39.39,-51.34 33.72,-82.08 -3.86,-20.94 -15.86,-41.76 -10.05,-62.25 3.21,-11.32 11.48,-20.49 16.12,-31.3 a 52.54,52.54 0 0 0 1.72,-36.42 c -2.65,-8.26 -7.45,-16.51 -5.8,-25 2.91,-15.08 23,-19.89 30.59,-33.25 5.63,-9.94 2.3,-24 -7.2,-30.32"
     id="path6293"
     inkscape:connector-curvature="0"
     style="opacity:0.1" />
  <path
     d="m 383.17,181.77 a 21.43,21.43 0 0 0 -17.48,-19.49 c -6.26,-1 -13.25,0.77 -18.63,-2.6 -2.43,-1.53 -4.17,-3.92 -6.13,-6 -7.68,-8.21002 -19.21,-12.00003 -30.45,-12.33003 -11.24,-0.33 -22.32,2.39001 -33.12,5.50002 C 255.8,153.06 233.02,162.17 221.55,181.45 c -17.44,29.35 -1.35,68.91 -15.14,100.14 -6,13.64 -17.44,24.78 -21.16,39.22 -5,19.29 4.86,38.86 12.45,57.28 a 273.18,273.18 0 0 1 15.44,51.2 c 3.05,15.48 4.75,31.57 1.31,47 -1.51,6.75 -4,13.62 -2.66,20.4 2,10.26 11.92,16.73 20.94,22 l 2.35,1.38 c 13,7.6 26.37,15.36 41.26,17.24 9.25,1.16 19,-0.12 27,-4.85 8,-4.73 14.09,-13.17 14.77,-22.46 0.76,-10.51 -5.09,-20.35 -6.35,-30.82 a 9.37,9.37 0 0 1 0.35,-4.72 c 0.83,-2 2.76,-3.29 4.54,-4.53 25.64,-17.88 39.39,-51.34 33.72,-82.08 -3.86,-20.94 -15.86,-41.76 -10.05,-62.25 3.21,-11.32 11.48,-20.49 16.12,-31.3 a 52.54,52.54 0 0 0 1.72,-36.42 c -2.65,-8.26 -7.45,-16.51 -5.8,-25 2.91,-15.08 23,-19.89 30.59,-33.25 5.63,-9.94 2.3,-24 -7.2,-30.32"
     id="path6295"
     inkscape:connector-curvature="0"
     style="fill:#b96b6b" />
  <path
     d="m 451.2,817.21 a 11.67,11.67 0 0 0 3.83,-5.78 c 0.5,-2.3 -0.48,-5.05 -2.68,-5.89 -2.46,-0.94 -5.09,0.76 -7.08,2.49 -1.99,1.73 -4.28,3.69 -6.89,3.32 a 10.48,10.48 0 0 0 3.24,-9.81 4.1,4.1 0 0 0 -0.9,-2 c -1.37,-1.46 -3.84,-0.83 -5.48,0.32 -5.2,3.66 -6.65,10.72 -6.68,17.08 -0.52,-2.29 -0.08,-4.68 -0.1,-7 -0.02,-2.32 -0.66,-5 -2.64,-6.22 a 8,8 0 0 0 -4,-0.95 c -2.34,-0.09 -4.94,0.15 -6.54,1.86 -2,2.12 -1.47,5.69 0.26,8 1.73,2.31 4.35,3.8 6.77,5.42 a 15,15 0 0 1 4.84,4.61 4.57,4.57 0 0 1 0.36,0.82 h 14.63 a 40.83,40.83 0 0 0 9.06,-6.27 z"
     id="path6297"
     inkscape:connector-curvature="0"
     style="fill:#4285f4" />
  <circle
     cx="146.7"
     cy="211.75"
     r="37.330002"
     id="circle6437"
     style="opacity:0.1;fill:#4285f4" />
  <circle
     cx="146.7"
     cy="211.75"
     r="31.68"
     id="circle6439"
     style="opacity:0.1;fill:#4285f4" />
  <circle
     cx="146.7"
     cy="211.75"
     r="2.26"
     id="circle6441"
     style="opacity:0.1;fill:#4285f4" />
  <line
     x1="160.28"
     y1="188"
     x2="147.82001"
     y2="209.8"
     stroke-miterlimit="10"
     id="line6443"
     style="opacity:0.1;fill:none;stroke:#4285f4;stroke-miterlimit:10" />
  <line
     x1="160.84"
     y1="219.11"
     x2="148.74001"
     y2="212.74001"
     stroke-miterlimit="10"
     id="line6445"
     style="opacity:0.1;fill:none;stroke:#4285f4;stroke-miterlimit:10" />
  <rect
     x="468.26001"
     y="765.47998"
     width="117.43"
     height="16.59"
     rx="6.5"
     ry="6.5"
     id="rect6447"
     style="fill:#535461" />
  <g
     id="g6451"
     style="opacity:0.7"
     transform="translate(0,49.999932)">
    <rect
       x="539.72998"
       y="530.48999"
       width="291.85001"
       height="201.8"
       rx="28.219999"
       ry="28.219999"
       id="rect6449"
       style="fill:url(#27534bda-5ea1-4910-bcb7-b6f2fadd52ae)" />
  </g>
  <rect
     x="544.94"
     y="584.21002"
     width="276.47"
     height="198.07001"
     rx="26.84"
     ry="26.84"
     id="rect6453"
     style="fill:#3e3f49" />
  <rect
     x="548.77002"
     y="584.21002"
     width="276.47"
     height="198.07001"
     rx="26.84"
     ry="26.84"
     id="rect6455"
     style="fill:#535461" />
  <circle
     cx="699.91998"
     cy="681.88"
     r="8.9300003"
     id="circle6457"
     style="fill:#e0e0e0" />
  <path
     d="m 222.56,770.33 c 0,0 -15.88,-5.38 -23.52,8.61 a 25.52,25.52 0 0 0 0.34,24.57 c 5,9.07 15.36,20.85 35,19.8 16.62,-0.89 22.15,-13.57 23.65,-25.37 a 26.06,26.06 0 0 0 -34.61,-27.9 z"
     id="path6459"
     inkscape:connector-curvature="0"
     style="fill:#4285f4" />
  <path
     d="M 202.74,804.77 A 25.52,25.52 0 0 1 202.4,780.2 c 7.64,-14 23.52,-8.61 23.52,-8.61 l 0.81,-0.29 a 25.83,25.83 0 0 1 18.66,0.42 25.84,25.84 0 0 0 -22,-2.1 l -0.81,0.29 c 0,0 -15.88,-5.38 -23.52,8.61 a 25.52,25.52 0 0 0 0.34,24.57 c 3.31,6 8.92,13.11 18,17 a 39.35,39.35 0 0 1 -14.66,-15.32 z"
     id="path6461"
     inkscape:connector-curvature="0"
     style="opacity:0.1;fill:#ffffff" />
  <path
     d="m 214.36,777.06 c 0,0 5.89,4.63 20.18,0"
     id="path6463"
     inkscape:connector-curvature="0"
     style="opacity:0.2" />
  <path
     d="m 213.1,743.42 c 0,0 10.09,27.33 9.25,34.48 l 8,-0.84 c 0,0 -13.46,-24 -10.09,-33.64 z"
     id="path6465"
     inkscape:connector-curvature="0"
     style="fill:#4285f4" />
  <path
     d="m 213.1,743.42 c 0,0 10.09,27.33 9.25,34.48 l 8,-0.84 c 0,0 -13.46,-24 -10.09,-33.64 z"
     id="path6467"
     inkscape:connector-curvature="0"
     style="opacity:0.2" />
  <path
     d="m 254.29,745.71 c 0,0 -15.88,-8.12 -23,-1.41 -7.12,6.71 -8.2,23.86 -8.2,23.86 0,0 25.91,3.56 31.2,-22.45 z"
     id="path6469"
     inkscape:connector-curvature="0"
     style="fill:#4285f4" />
  <path
     d="m 254.29,745.71 c 0,0 -15.88,-8.12 -23,-1.41 -7.12,6.71 -8.2,23.86 -8.2,23.86 0,0 25.91,3.56 31.2,-22.45 z"
     id="path6471"
     inkscape:connector-curvature="0"
     style="opacity:0.1;fill:#ffffff" />
  <path
     d="m 223.1,768.16 c 0,0 4.17,-19.91 31.19,-22.45"
     stroke-miterlimit="10"
     id="path6473"
     inkscape:connector-curvature="0"
     style="fill:none;stroke:#4285f4;stroke-miterlimit:10" />
  <g
     id="g9449"
     transform="matrix(0.79945483,0,0,0.79945483,853.75113,541.84641)">
    <g
       id="g9381">
      <path
         id="path9355"
         d="m 246,277.5 c 0,13.75 -11.25,25 -25,25 H 25 c -13.75,0 -25,-11.25 -25,-25 v -235 c 0,-13.75 11.25,-25 25,-25 h 196 c 13.75,0 25,11.25 25,25 z"
         style="fill:#0071ce"
         inkscape:connector-curvature="0" />
      <path
         id="path9357"
         d="m 320,277.5 c 0,13.75 -11.25,25 -25,25 H 99 c -13.75,0 -25,-11.25 -25,-25 v -235 c 0,-13.75 11.25,-25 25,-25 h 196 c 13.75,0 25,11.25 25,25 z"
         style="fill:#5e96dc"
         inkscape:connector-curvature="0" />
      <rect
         id="rect9359"
         height="182"
         width="201.90601"
         style="fill:#005fad"
         y="41.5"
         x="96.046997" />
      <g
         id="g9371">
        <path
           id="path9361"
           d="m 244.5,70.401 c -4.971,0 -9,4.029 -9,9 0,4.971 4.029,9 9,9 h 53.453 v -18 z"
           style="fill:#a4a9ad"
           inkscape:connector-curvature="0" />
        <rect
           id="rect9363"
           height="50.666"
           width="28.5"
           style="fill:#1e252b"
           y="62.5"
           x="197" />
        <rect
           id="rect9365"
           height="50.666"
           width="38"
           style="fill:#333e48"
           y="62.5"
           x="225.5" />
        <path
           id="path9367"
           d="M 206.75,70.401 H 96.047 v 18 H 206.75 c 4.971,0 9,-4.029 9,-9 0,-4.97 -4.029,-9 -9,-9 z"
           style="fill:#a4a9ad"
           inkscape:connector-curvature="0" />
        <path
           id="path9369"
           d="M 219.896,113.166 V 133.5 c 0,5.718 4.636,10.354 10.354,10.354 5.718,0 10.354,-4.636 10.354,-10.354 v -20.334 z"
           style="fill:#a4a9ad"
           inkscape:connector-curvature="0" />
      </g>
      <polygon
         id="polygon9373"
         points="199.833,193.083 199.833,223.5 260.667,223.5 260.667,193.083 248.068,193.083 248.068,162.666 212.432,162.666 212.432,193.083 "
         style="fill:#ffffff" />
      <rect
         id="rect9375"
         height="27.327999"
         width="94.953003"
         style="fill:#333e48"
         y="249.39301"
         x="96.046997" />
      <circle
         id="circle9377"
         r="13.664"
         cy="263.05701"
         cx="240.511"
         style="fill:#bf534f" />
      <circle
         id="circle9379"
         r="13.664"
         cy="263.05701"
         cx="284.289"
         style="fill:#ffc843" />
    </g>
    <g
       id="g9383" />
    <g
       id="g9385" />
    <g
       id="g9387" />
    <g
       id="g9389" />
    <g
       id="g9391" />
    <g
       id="g9393" />
    <g
       id="g9395" />
    <g
       id="g9397" />
    <g
       id="g9399" />
    <g
       id="g9401" />
    <g
       id="g9403" />
    <g
       id="g9405" />
    <g
       id="g9407" />
    <g
       id="g9409" />
    <g
       id="g9411" />
  </g>
  <g
     transform="matrix(0.6913356,0,0,0.6913356,478.08395,-547.14104)"
     id="g9469"
     style="opacity:0.1" />
  <g
     id="g9746"
     transform="translate(359.61703,704.9635)">
    <ellipse
       style="opacity:0.1;fill:#6c63ff;stroke-width:0.2865766"
       cx="667.08179"
       cy="-399.1188"
       rx="115.83854"
       ry="18.440332"
       id="ellipse9451" />
    <path
       style="fill:#ffffff;stroke-width:0.24520901"
       inkscape:connector-curvature="0"
       d="m 749.10495,-548.76136 -0.0454,145.33153 c -7.21547,0 0,0 -7.28555,0.0525 h -27.11153 l -0.0824,-0.0467 a 16.710971,23.642003 0 0 0 -12.62293,0 l -0.068,0.0408 H 674.7198 q -1.37297,-0.78748 -2.68,-1.72663 a 16.230629,22.962434 0 0 0 -14.58346,0 q -1.31732,0.93623 -2.68003,1.72663 h -27.18984 l -0.0681,-0.0408 a 16.710971,23.642003 0 0 0 -12.62288,0 l -0.0825,0.0467 h -27.1074 a 36.489538,51.623914 0 0 1 -12.33017,-11.71892 v -133.66511 z"
       id="path9471" />
    <path
       sodipodi:nodetypes="ccccccc"
       style="fill:#ededf4;stroke-width:0.69133562"
       inkscape:connector-curvature="0"
       d="m 761.9711,-562.2355 v 14.85681 H 575.36865 v -14.85681 c -0.004,-2.81939 2.28271,-5.1059 5.1021,-5.10205 H 756.8552 c 2.82477,-0.0115 5.11975,2.27725 5.1159,5.10205 z"
       id="path9473" />
    <circle
       style="opacity:0.8;fill:#fa5959;stroke-width:0.69133562"
       cx="584.60492"
       cy="-557.50677"
       r="2.3851078"
       id="circle9475" />
    <circle
       style="opacity:0.8;fill:#fed253;stroke-width:0.69133562"
       cx="591.15875"
       cy="-557.50677"
       r="2.3851078"
       id="circle9477" />
    <circle
       style="opacity:0.8;fill:#8ccf4d;stroke-width:0.69133562"
       cx="597.70575"
       cy="-557.50677"
       r="2.3851078"
       id="circle9479" />
    <path
       style="fill:#ededf4;stroke-width:0.23474431"
       inkscape:connector-curvature="0"
       d="m 596.1194,-547.37869 v 145.98637 c 0,0 -8.45001,-0.0528 -20.74385,-0.34628 v -145.64009 z"
       id="path9481" />
    <path
       style="fill:#ededf4;stroke-width:0.19073732"
       inkscape:connector-curvature="0"
       d="m 761.9711,-547.37869 v 147.91795 c -0.0515,0.092 -4.93164,-0.13655 -5.14733,0.0534 h -8.39507 v -147.97138 z"
       id="path9483" />
    <g
       transform="matrix(0.34448933,0,0,0.34448933,872.1031,-380.67339)"
       id="g9269">
      <polygon
         style="fill:#6c63ff"
         points="336.372,145.025 151.746,145.025 59.433,304.916 151.746,464.807 336.372,464.807 428.685,304.916 "
         id="polygon9088"
         transform="translate(-829.04673,-595.95009)" />
      <path
         style="fill:#ffffff"
         inkscape:connector-curvature="0"
         d="m -661.84642,-157.91096 h 153.71738 l 76.85916,-133.12314 -76.85916,-133.12361 h -153.71738 l -76.85916,133.12361 z"
         id="path9090" />
      <rect
         style="fill:#3f3d56"
         x="-644.34558"
         y="-424.35571"
         width="2"
         height="82.555183"
         id="rect9126" />
      <circle
         style="fill:#6c63ff"
         cx="-643.34552"
         cy="-337.05609"
         r="5.69344"
         id="circle9128" />
      <rect
         style="fill:#3f3d56"
         x="-601.6449"
         y="-424.35571"
         width="2"
         height="82.555183"
         id="rect9130" />
      <circle
         style="fill:#3f3d56"
         cx="-600.64471"
         cy="-337.05609"
         r="5.69344"
         id="circle9132" />
      <rect
         style="fill:#3f3d56"
         x="-526.68103"
         y="-424.35571"
         width="2"
         height="82.555183"
         id="rect9134" />
      <circle
         style="fill:#3f3d56"
         cx="-525.68103"
         cy="-337.05609"
         r="5.69344"
         id="circle9136" />
      <circle
         style="fill:#3f3d56"
         cx="-556.995"
         cy="-255.45009"
         r="5.69344"
         id="circle9138" />
      <circle
         style="fill:#3f3d56"
         cx="-672.76166"
         cy="-307.63998"
         r="5.69344"
         id="circle9140" />
      <polygon
         style="fill:#3f3d56"
         points="273.052,335.755 271.052,335.755 271.052,236.276 228.402,236.276 228.402,234.276 273.052,234.276 "
         id="polygon9142"
         transform="translate(-829.04673,-595.95009)" />
      <circle
         style="fill:#6c63ff"
         cx="-630.06079"
         cy="-219.39162"
         r="5.69344"
         id="circle9144" />
      <polygon
         style="fill:#3f3d56"
         points="199.986,371.814 197.986,371.814 197.986,272.334 155.336,272.334 155.336,270.334 199.986,270.334 "
         id="polygon9146"
         transform="translate(-829.04673,-595.95009)" />
      <circle
         style="fill:#6c63ff"
         cx="-498.16272"
         cy="-263.99026"
         r="5.69344"
         id="circle9148" />
      <polygon
         style="fill:#3f3d56"
         points="331.884,327.215 329.884,327.215 329.884,227.736 302.417,227.736 302.417,225.736 331.884,225.736 "
         id="polygon9150"
         transform="translate(-829.04673,-595.95009)" />
      <polygon
         style="fill:#3f3d56"
         points="157.285,282.616 155.285,282.616 155.285,233.155 185.701,233.155 185.701,235.155 157.285,235.155 "
         id="polygon9152"
         transform="translate(-829.04673,-595.95009)" />
      <circle
         style="fill:#3f3d56"
         cx="-600.17023"
         cy="-197.0923"
         r="5.69344"
         id="circle9154" />
      <polygon
         style="fill:#3f3d56"
         points="229.876,393.164 227.876,393.164 227.876,345.703 199.46,345.703 199.46,343.703 229.876,343.703 "
         id="polygon9156"
         transform="translate(-829.04673,-595.95009)" />
      <circle
         style="fill:#3f3d56"
         cx="-527.57886"
         cy="-239.31865"
         r="5.69344"
         id="circle9158" />
      <polygon
         style="fill:#3f3d56"
         points="302.468,350.938 300.468,350.938 300.468,301.477 330.884,301.477 330.884,303.477 302.468,303.477 "
         id="polygon9160"
         transform="translate(-829.04673,-595.95009)" />
    </g>
  </g>
</svg>
