<?xml version="1.0" encoding="UTF-8" standalone="no"?>
<!-- Created with Inkscape (http://www.inkscape.org/) -->

<svg
   xmlns:dc="http://purl.org/dc/elements/1.1/"
   xmlns:cc="http://creativecommons.org/ns#"
   xmlns:rdf="http://www.w3.org/1999/02/22-rdf-syntax-ns#"
   xmlns:svg="http://www.w3.org/2000/svg"
   xmlns="http://www.w3.org/2000/svg"
   xmlns:sodipodi="http://sodipodi.sourceforge.net/DTD/sodipodi-0.dtd"
   xmlns:inkscape="http://www.inkscape.org/namespaces/inkscape"
   width="128"
   height="128"
   viewBox="0 0 33.866667 33.866667"
   version="1.1"
   id="svg1554"
   inkscape:version="0.92.1 r15371"
   sodipodi:docname="favicon.svg"
   inkscape:export-filename="/home/bennymalengier/inclusievekets/images/favicon.png"
   inkscape:export-xdpi="96"
   inkscape:export-ydpi="96">
  <defs
     id="defs1548" />
  <sodipodi:namedview
     id="base"
     pagecolor="#ffffff"
     bordercolor="#666666"
     borderopacity="1.0"
     inkscape:pageopacity="0.0"
     inkscape:pageshadow="2"
     inkscape:zoom="1.5318615"
     inkscape:cx="14.005251"
     inkscape:cy="52.485896"
     inkscape:document-units="mm"
     inkscape:current-layer="layer1"
     showgrid="false"
     fit-margin-top="0"
     fit-margin-left="0"
     fit-margin-right="0"
     fit-margin-bottom="0"
     inkscape:window-width="1156"
     inkscape:window-height="545"
     inkscape:window-x="105"
     inkscape:window-y="112"
     inkscape:window-maximized="0"
     units="px" />
  <metadata
     id="metadata1551">
    <rdf:RDF>
      <cc:Work
         rdf:about="">
        <dc:format>image/svg+xml</dc:format>
        <dc:type
           rdf:resource="http://purl.org/dc/dcmitype/StillImage" />
        <dc:title></dc:title>
      </cc:Work>
    </rdf:RDF>
  </metadata>
  <g
     inkscape:label="Layer 1"
     inkscape:groupmode="layer"
     id="layer1"
     transform="translate(91.274295,-99.315724)">
    <g
       id="g4700"
       transform="matrix(1.6128295,0,0,1.6127932,51.974646,-77.895962)">
      <path
         id="path859-8-9-3"
         d="m -79.903369,130.74758 c -1.517511,-0.23585 -2.942803,-0.79197 -4.237253,-1.65327 -4.285434,-2.85142 -5.861219,-8.38028 -3.740593,-13.12435 0.152418,-0.34098 0.301839,-0.60829 0.332048,-0.59403 0.03022,0.0143 0.229098,0.12874 0.441978,0.2544 l 0.387049,0.22847 0.02421,4.65823 0.02421,4.65822 1.233743,0.70936 c 0.678564,0.39014 1.26459,0.71003 1.302286,0.71086 0.03771,7.3e-4 0.06856,-0.40505 0.06856,-0.90196 0,-0.89351 -0.0039,-0.90939 -0.350513,-1.43938 -0.93942,-1.43632 -1.145884,-2.91256 -0.566244,-4.04874 0.792881,-1.5542 3.119999,-1.06323 4.460559,0.94108 1.113866,1.66536 1.194572,3.61763 0.187566,4.53739 -0.164641,0.15037 -0.351859,0.2734 -0.416056,0.2734 -0.08925,0 -0.116707,0.30712 -0.116707,1.30491 v 1.30491 l 1.09666,0.63069 1.096663,0.6307 v 0.53189 c 0,0.61743 0.08354,0.59109 -1.228154,0.38722 z"
         style="fill:#008000;stroke-width:0.09138881"
         inkscape:connector-curvature="0" />
      <path
         id="path857-5-3-0"
         d="m -77.944097,130.34326 v -0.50999 l 2.804923,-1.64099 c 1.542694,-0.90255 3.341915,-1.95383 3.998249,-2.3362 l 1.193341,-0.69521 0.02494,-1.61236 c 0.01376,-0.88679 -0.0068,-1.61195 -0.04569,-1.61145 -0.03886,2.9e-4 -0.378317,0.17612 -0.754361,0.39026 -0.661692,0.37682 -0.691119,0.40846 -0.913889,0.98282 -0.33842,0.87254 -0.669483,1.38519 -1.206142,1.86769 -0.676985,0.60867 -1.275277,0.88969 -1.994172,0.93668 -1.19906,0.0784 -1.913149,-0.62779 -1.990769,-1.9687 -0.05321,-0.91907 0.09303,-1.59175 0.540265,-2.4853 1.033753,-2.06538 3.095076,-3.04079 4.294035,-2.03193 l 0.292963,0.24651 0.876396,-0.46166 0.876411,-0.46165 0.02518,-1.54649 0.02521,-1.54649 0.358463,-0.20562 c 0.197152,-0.1131 0.396216,-0.20563 0.442354,-0.20563 0.122384,0 0.626242,1.17127 0.876802,2.03823 0.79181,2.73981 0.393914,5.77808 -1.081528,8.25847 -1.677923,2.8208 -4.716246,4.75248 -7.934749,5.0447 l -0.708265,0.0643 z"
         style="fill:#0000ff;stroke-width:0.09138881"
         inkscape:connector-curvature="0" />
      <path
         id="path853-1-1-0"
         d="m -79.278186,117.73254 c -1.280098,-0.18769 -2.409271,-0.83704 -2.77719,-1.59705 -0.11675,-0.24118 -0.184003,-0.56575 -0.184003,-0.88809 v -0.50801 l -0.783772,-0.46842 c -0.431073,-0.25763 -0.798862,-0.46842 -0.817311,-0.46842 -0.01845,0 -0.570314,0.329 -1.226373,0.73111 -0.65606,0.40211 -1.234961,0.73111 -1.286443,0.73111 -0.133332,0 -0.821091,-0.44493 -0.821091,-0.53119 0,-0.16473 0.872472,-1.25253 1.514744,-1.88858 1.486926,-1.47251 3.4749,-2.4853 5.584012,-2.84481 1.253932,-0.21374 3.147268,-0.13854 4.329458,0.17196 2.389563,0.62761 4.395493,1.96522 5.849908,3.90086 0.587677,0.78213 0.585172,0.75609 0.09915,1.0293 l -0.42948,0.24142 -1.505505,-0.87241 c -0.828028,-0.47983 -2.08125,-1.2098 -2.784939,-1.62217 -3.237445,-1.89713 -3.689661,-2.15382 -3.794553,-2.15382 -0.130709,0 -2.739755,1.47596 -2.739755,1.5499 0,0.0275 0.253558,0.20842 0.563449,0.40213 l 0.56345,0.35221 0.834617,-0.11047 c 1.053391,-0.13942 2.054343,0.0227 2.889916,0.46805 0.676449,0.36055 1.049712,0.79289 1.236988,1.43279 0.202409,0.69159 0.05798,1.24133 -0.484684,1.84491 -0.819933,0.91196 -2.267758,1.32685 -3.830598,1.09769 z"
         style="fill:#ff0000;stroke-width:0.09138881"
         inkscape:connector-curvature="0" />
    </g>
  </g>
</svg>
